<?xml version="1.0" encoding="utf-8" ?>
<svg baseProfile="full" height="100%" version="1.1" viewBox="-200 -250 1200 900" width="100%" xmlns="http://www.w3.org/2000/svg" xmlns:ev="http://www.w3.org/2001/xml-events" xmlns:xlink="http://www.w3.org/1999/xlink"><defs><marker id="id140" markerHeight="10" markerWidth="10" orient="auto" refX="0" refY="5"><path d="M 0 0 L 10 5 L 0 10 z" fill="blue" stroke="black" /></marker><marker id="id141" markerHeight="10" markerWidth="10" orient="auto" refX="0" refY="5"><path d="M 0 0 L 10 5 L 0 10 z" fill="blue" stroke="black" /></marker><marker id="id142" markerHeight="10" markerWidth="10" orient="auto" refX="0" refY="5"><path d="M 0 0 L 10 5 L 0 10 z" fill="blue" stroke="black" /></marker><marker id="id143" markerHeight="10" markerWidth="10" orient="auto" refX="0" refY="5"><path d="M 0 0 L 10 5 L 0 10 z" fill="blue" stroke="black" /></marker><marker id="id144" markerHeight="30" markerWidth="30" orient="auto" refX="8" refY="3"><path d=" M0,0 L3,3 L0,6 L8,3 L0,0" fill="black" /></marker><marker id="id145" markerHeight="20" markerWidth="30" orient="auto" refX="0" refY="3"><path d=" M0,3 L8,6 L5,3 L8,0 L0,3" fill="black" /></marker><marker id="id146" markerHeight="30" markerWidth="30" orient="auto" refX="8" refY="3"><path d=" M0,0 L3,3 L0,6 L8,3 L0,0" fill="black" /></marker><marker id="id147" markerHeight="20" markerWidth="30" orient="auto" refX="0" refY="3"><path d=" M0,3 L8,6 L5,3 L8,0 L0,3" fill="black" /></marker><marker id="id148" markerHeight="30" markerWidth="30" orient="auto" refX="8" refY="3"><path d=" M0,0 L3,3 L0,6 L8,3 L0,0" fill="black" /></marker><marker id="id149" markerHeight="20" markerWidth="30" orient="auto" refX="0" refY="3"><path d=" M0,3 L8,6 L5,3 L8,0 L0,3" fill="black" /></marker><marker id="id150" markerHeight="30" markerWidth="30" orient="auto" refX="8" refY="3"><path d=" M0,0 L3,3 L0,6 L8,3 L0,0" fill="black" /></marker><marker id="id151" markerHeight="20" markerWidth="30" orient="auto" refX="0" refY="3"><path d=" M0,3 L8,6 L5,3 L8,0 L0,3" fill="black" /></marker><marker id="id152" markerHeight="30" markerWidth="30" orient="auto" refX="8" refY="3"><path d=" M0,0 L3,3 L0,6 L8,3 L0,0" fill="black" /></marker><marker id="id153" markerHeight="20" markerWidth="30" orient="auto" refX="0" refY="3"><path d=" M0,3 L8,6 L5,3 L8,0 L0,3" fill="black" /></marker><marker id="id154" markerHeight="30" markerWidth="30" orient="auto" refX="8" refY="3"><path d=" M0,0 L3,3 L0,6 L8,3 L0,0" fill="black" /></marker><marker id="id155" markerHeight="20" markerWidth="30" orient="auto" refX="0" refY="3"><path d=" M0,3 L8,6 L5,3 L8,0 L0,3" fill="black" /></marker><marker id="id156" markerHeight="20" markerWidth="30" orient="auto" refX="0" refY="3"><path d=" M0,3 L8,6 L5,3 L8,0 L0,3" fill="black" /></marker><marker id="id157" markerHeight="20" markerWidth="30" orient="auto" refX="0" refY="3"><path d=" M0,3 L8,6 L5,3 L8,0 L0,3" fill="black" /></marker><marker id="id158" markerHeight="20" markerWidth="30" orient="auto" refX="0" refY="3"><path d=" M0,3 L8,6 L5,3 L8,0 L0,3" fill="black" /></marker><marker id="id159" markerHeight="20" markerWidth="30" orient="auto" refX="0" refY="3"><path d=" M0,3 L8,6 L5,3 L8,0 L0,3" fill="black" /></marker><marker id="id160" markerHeight="20" markerWidth="30" orient="auto" refX="0" refY="3"><path d=" M0,3 L8,6 L5,3 L8,0 L0,3" fill="black" /></marker><marker id="id161" markerHeight="30" markerWidth="30" orient="auto" refX="8" refY="3"><path d=" M0,0 L3,3 L0,6 L8,3 L0,0" fill="black" /></marker><marker id="id162" markerHeight="20" markerWidth="30" orient="auto" refX="0" refY="3"><path d=" M0,3 L8,6 L5,3 L8,0 L0,3" fill="black" /></marker></defs><line marker-end="url(#id140)" stroke="black" stroke-linecap="square" stroke-width="2.5" x1="850" x2="800" y1="0" y2="0" /><text fill="black" font-family="sans-serif" font-size="52" x="720" y="20">B</text><line marker-end="url(#id141)" stroke="black" stroke-linecap="square" stroke-width="2.5" x1="850" x2="800" y1="340" y2="340" /><text fill="black" font-family="sans-serif" font-size="52" x="720" y="360">B</text><line stroke="#666666" stroke-linecap="square" stroke-width="1.0" x1="850" x2="850" y1="0" y2="340" /><line marker-end="url(#id142)" stroke="black" stroke-linecap="square" stroke-width="2.5" x1="-50.0" x2="-50.0" y1="417.0" y2="367.0" /><text fill="black" font-family="sans-serif" font-size="52" x="-70.0" y="327.0">C</text><line marker-end="url(#id143)" stroke="black" stroke-linecap="square" stroke-width="2.5" x1="550.0" x2="550.0" y1="417.0" y2="367.0" /><text fill="black" font-family="sans-serif" font-size="52" x="530.0" y="327.0">C</text><line stroke="#666666" stroke-linecap="square" stroke-width="1.0" x1="-50.0" x2="550.0" y1="417.0" y2="417.0" /><polyline fill="none" points="0,0 180,0 180,340 0,340 0,0" stroke="blue" stroke-width="2.5" /><line stroke="red" stroke-dasharray="5 5" stroke-linecap="square" stroke-width="2.5" x1="84.9" x2="84.9" y1="0.0" y2="340.0" /><line stroke="red" stroke-dasharray="5 5" stroke-linecap="square" stroke-width="2.5" x1="95.1" x2="95.1" y1="0.0" y2="340.0" /><polyline fill="none" points="180,100 115.1,100.0 115.1,240.0 180,240" stroke="red" stroke-dasharray="5 5" stroke-width="2.5" /><polyline fill="none" points="180,100 190,100 465.1,100.0 465.1,240.0 190,240 180,240" stroke="blue" stroke-width="2.5" /><line stroke="blue" stroke-linecap="square" stroke-width="2.5" x1="190" x2="190" y1="100" y2="240" /><line stroke="red" stroke-dasharray="5 5" stroke-linecap="square" stroke-width="2.5" x1="115.1" x2="180.0" y1="166.15" y2="166.15" /><line stroke="red" stroke-dasharray="5 5" stroke-linecap="square" stroke-width="2.5" x1="115.1" x2="180.0" y1="173.85" y2="173.85" /><line stroke="blue" stroke-linecap="square" stroke-width="2.5" x1="180.0" x2="190.0" y1="166.15" y2="166.15" /><line stroke="blue" stroke-linecap="square" stroke-width="2.5" x1="180.0" x2="190.0" y1="173.85" y2="173.85" /><line stroke="red" stroke-dasharray="5 5" stroke-linecap="square" stroke-width="2.5" x1="190.0" x2="465.1" y1="166.15" y2="166.15" /><line stroke="red" stroke-dasharray="5 5" stroke-linecap="square" stroke-width="2.5" x1="190.0" x2="465.1" y1="173.85" y2="173.85" /><polyline fill="none" points="95.1,36.15 107.1,36.15 107.1,154.15 225.1,154.15 225.1,166.15 95.1,166.15 95.1,36.15" stroke="red" stroke-dasharray="5 5" stroke-width="2.5" /><polyline fill="none" points="95.1,303.85 107.1,303.85 107.1,185.85 225.1,185.85 225.1,173.85 95.1,173.85 95.1,303.85" stroke="red" stroke-dasharray="5 5" stroke-width="2.5" /><rect fill="black" height="31.7" stroke="black" stroke-width="2.5" width="16" x="187.1" y="154.15" /><line stroke="black" stroke-linecap="square" stroke-width="2.5" x1="195.1" x2="195.1" y1="144.15" y2="195.85" /><rect fill="black" height="31.7" stroke="black" stroke-width="2.5" width="16" x="147.1" y="154.15" /><line stroke="black" stroke-linecap="square" stroke-width="2.5" x1="155.1" x2="155.1" y1="144.15" y2="195.85" /><rect fill="black" height="16" stroke="black" stroke-width="2.5" width="22.2" x="84.9" y="58.15" /><line stroke="black" stroke-linecap="square" stroke-width="2.5" x1="74.9" x2="117.1" y1="66.15" y2="66.15" /><rect fill="black" height="16" stroke="black" stroke-width="2.5" width="22.2" x="84.9" y="265.85" /><line stroke="black" stroke-linecap="square" stroke-width="2.5" x1="74.9" x2="126.6" y1="273.85" y2="273.85" /><rect fill="black" height="16" stroke="black" stroke-width="2.5" width="22.2" x="84.9" y="98.15" /><line stroke="black" stroke-linecap="square" stroke-width="2.5" x1="74.9" x2="117.1" y1="106.15" y2="106.15" /><rect fill="black" height="16" stroke="black" stroke-width="2.5" width="22.2" x="84.9" y="225.85" /><line stroke="black" stroke-linecap="square" stroke-width="2.5" x1="74.9" x2="126.6" y1="233.85" y2="233.85" /><line stroke="#D8D8D8" stroke-linecap="square" stroke-opacity="0.7" stroke-width="2.5" x1="95.1" x2="-103.5" y1="36.15" y2="36.15" /><line stroke="#D8D8D8" stroke-linecap="square" stroke-opacity="0.7" stroke-width="2.5" x1="84.9" x2="-105.1" y1="66.15" y2="66.15" /><line marker-end="url(#id144)" marker-start="url(#id145)" stroke="black" stroke-linecap="square" stroke-width="2.5" x1="-105.1" x2="-105.1" y1="36.15" y2="66.15" /><text fill="black" font-family="sans-serif" font-size="28" x="-155.1" y="51.15">30</text><line stroke="black" stroke-linecap="square" stroke-opacity="1.0" stroke-width="2.5" x1="-115.1" x2="-95.1" y1="36.15" y2="36.15" /><line stroke="black" stroke-linecap="square" stroke-opacity="1.0" stroke-width="2.5" x1="-115.1" x2="-95.1" y1="66.15" y2="66.15" /><line stroke="#D8D8D8" stroke-linecap="square" stroke-opacity="0.7" stroke-width="2.5" x1="95.1" x2="-103.5" y1="303.85" y2="303.85" /><line stroke="#D8D8D8" stroke-linecap="square" stroke-opacity="0.7" stroke-width="2.5" x1="84.9" x2="-105.1" y1="273.85" y2="273.85" /><line marker-end="url(#id146)" marker-start="url(#id147)" stroke="black" stroke-linecap="square" stroke-width="2.5" x1="-105.1" x2="-105.1" y1="303.85" y2="273.85" /><text fill="black" font-family="sans-serif" font-size="28" x="-155.1" y="288.85">30</text><line stroke="black" stroke-linecap="square" stroke-opacity="1.0" stroke-width="2.5" x1="-115.1" x2="-95.1" y1="303.85" y2="303.85" /><line stroke="black" stroke-linecap="square" stroke-opacity="1.0" stroke-width="2.5" x1="-115.1" x2="-95.1" y1="273.85" y2="273.85" /><line stroke="#D8D8D8" stroke-linecap="square" stroke-opacity="0.7" stroke-width="2.5" x1="84.9" x2="-105.1" y1="106.15" y2="106.15" /><line marker-end="url(#id148)" marker-start="url(#id149)" stroke="black" stroke-linecap="square" stroke-width="2.5" x1="-105.1" x2="-105.1" y1="106.15" y2="66.15" /><text fill="black" font-family="sans-serif" font-size="28" x="-155.1" y="86.15">40</text><line stroke="black" stroke-linecap="square" stroke-opacity="1.0" stroke-width="2.5" x1="-115.1" x2="-95.1" y1="106.15" y2="106.15" /><line stroke="black" stroke-linecap="square" stroke-opacity="1.0" stroke-width="2.5" x1="-115.1" x2="-95.1" y1="66.15" y2="66.15" /><line stroke="#D8D8D8" stroke-linecap="square" stroke-opacity="0.7" stroke-width="2.5" x1="84.9" x2="-105.1" y1="233.85" y2="233.85" /><line marker-end="url(#id150)" marker-start="url(#id151)" stroke="black" stroke-linecap="square" stroke-width="2.5" x1="-105.1" x2="-105.1" y1="233.85" y2="273.85" /><text fill="black" font-family="sans-serif" font-size="28" x="-155.1" y="253.85">40</text><line stroke="black" stroke-linecap="square" stroke-opacity="1.0" stroke-width="2.5" x1="-115.1" x2="-95.1" y1="233.85" y2="233.85" /><line stroke="black" stroke-linecap="square" stroke-opacity="1.0" stroke-width="2.5" x1="-115.1" x2="-95.1" y1="273.85" y2="273.85" /><line stroke="#D8D8D8" stroke-linecap="square" stroke-opacity="0.7" stroke-width="2.5" x1="195.1" x2="195.1" y1="154.15" y2="-40.85" /><line stroke="#D8D8D8" stroke-linecap="square" stroke-opacity="0.7" stroke-width="2.5" x1="225.1" x2="225.1" y1="154.15" y2="-40.85" /><line marker-end="url(#id152)" marker-start="url(#id153)" stroke="black" stroke-linecap="square" stroke-width="2.5" x1="195.1" x2="225.1" y1="-40.85" y2="-40.85" /><text fill="black" font-family="sans-serif" font-size="28" x="210.1" y="-50.85">30</text><line stroke="black" stroke-linecap="square" stroke-opacity="1.0" stroke-width="2.5" x1="195.1" x2="195.1" y1="-50.85" y2="-30.85" /><line stroke="black" stroke-linecap="square" stroke-opacity="1.0" stroke-width="2.5" x1="225.1" x2="225.1" y1="-50.85" y2="-30.85" /><line stroke="#D8D8D8" stroke-linecap="square" stroke-opacity="0.7" stroke-width="2.5" x1="155.1" x2="155.1" y1="154.15" y2="-40.85" /><line marker-end="url(#id154)" marker-start="url(#id155)" stroke="black" stroke-linecap="square" stroke-width="2.5" x1="155.1" x2="195.1" y1="-65.85" y2="-65.85" /><text fill="black" font-family="sans-serif" font-size="28" x="175.1" y="-75.85">40</text><line stroke="black" stroke-linecap="square" stroke-opacity="1.0" stroke-width="2.5" x1="155.1" x2="155.1" y1="-75.85" y2="-55.85" /><line stroke="black" stroke-linecap="square" stroke-opacity="1.0" stroke-width="2.5" x1="195.1" x2="195.1" y1="-75.85" y2="-55.85" /><polyline fill="none" marker-start="url(#id156)" points="465.1,170.0 465.1,170.0 673.1,170.0" stroke="black" stroke-width="2.5" /><text fill="black" font-family="sans-serif" font-size="28" x="485.9" y="152.0">Beam ISMB 300</text><text fill="black" font-family="sans-serif" font-size="28" x="485.9" y="188.0" /><polyline fill="none" marker-start="url(#id157)" points="90,0 90.0,-150.0 298.0,-150.0" stroke="black" stroke-width="2.5" /><text fill="black" font-family="sans-serif" font-size="28" x="110.8" y="-168.0">Beam ISMB 500</text><text fill="black" font-family="sans-serif" font-size="28" x="110.8" y="-117.0" /><polyline fill="none" marker-start="url(#id158)" points="225.1,154.15 368.110431111,34.15 608.110431111,34.15" stroke="black" stroke-width="2.5" /><text fill="black" font-family="sans-serif" font-size="28" x="392.110431111" y="16.15">ISA. 130x130x12</text><text fill="black" font-family="sans-serif" font-size="28" x="392.110431111" y="67.15" /><polyline fill="none" marker-start="url(#id159)" points="195.1,154.15 435.1,-85.85 803.1,-85.85" stroke="black" stroke-width="2.5" /><text fill="black" font-family="sans-serif" font-size="28" x="471.9" y="-103.85">10 nos 16Ø holes</text><text fill="black" font-family="sans-serif" font-size="28" x="471.9" y="-52.85">for M16bolts(grade 4.8)</text><polyline fill="none" marker-start="url(#id160)" points="84.9,233.85 197.483302492,298.85 565.483302492,298.85" stroke="black" stroke-width="2.5" /><text fill="black" font-family="sans-serif" font-size="28" x="234.283302492" y="280.85">20 nos 16Ø holes</text><text fill="black" font-family="sans-serif" font-size="28" x="234.283302492" y="316.85">for M16bolts(grade 4.8)</text><line stroke="black" stroke-linecap="square" stroke-width="2.5" x1="180.0" x2="180.0" y1="450.0" y2="450.0" /><line stroke="black" stroke-linecap="square" stroke-width="2.5" x1="200.0" x2="200.0" y1="450.0" y2="450.0" /><line marker-end="url(#id161)" stroke="black" stroke-linecap="square" stroke-width="2.5" x1="130.0" x2="180" y1="440.0" y2="440" /><line marker-end="url(#id161)" stroke="black" stroke-linecap="butt" stroke-width="2.5" x1="250.0" x2="200" y1="440.0" y2="440" /><text fill="black" font-family="sans-serif" font-size="28" x="260.0" y="440.0">20</text><line stroke="#D8D8D8" stroke-linecap="square" stroke-opacity="0.7" stroke-width="2.5" x1="180" x2="180" y1="340" y2="440" /><line stroke="#D8D8D8" stroke-linecap="square" stroke-opacity="0.7" stroke-width="2.5" x1="190" x2="190" y1="240" y2="420" /><text fill="black" font-family="sans-serif" font-size="30" x="150" y="640">Top view (Sec A-A)</text><text fill="black" font-family="sans-serif" font-size="30" x="500" y="640">(All distances are in "mm")</text></svg>