<?xml version="1.0" encoding="utf-8" ?>
<svg baseProfile="full" height="100%" version="1.1" viewBox="-500 -350 1500 1350" width="100%" xmlns="http://www.w3.org/2000/svg" xmlns:ev="http://www.w3.org/2001/xml-events" xmlns:xlink="http://www.w3.org/1999/xlink"><defs><marker id="id82" markerHeight="10" markerWidth="10" orient="auto" refX="0" refY="5"><path d="M 0 0 L 10 5 L 0 10 z" fill="blue" stroke="black" /></marker><marker id="id83" markerHeight="10" markerWidth="10" orient="auto" refX="0" refY="5"><path d="M 0 0 L 10 5 L 0 10 z" fill="blue" stroke="black" /></marker><marker id="id84" markerHeight="30" markerWidth="30" orient="auto" refX="8" refY="3"><path d=" M0,0 L3,3 L0,6 L8,3 L0,0" fill="black" /></marker><marker id="id85" markerHeight="20" markerWidth="30" orient="auto" refX="0" refY="3"><path d=" M0,3 L8,6 L5,3 L8,0 L0,3" fill="black" /></marker><marker id="id86" markerHeight="30" markerWidth="30" orient="auto" refX="8" refY="3"><path d=" M0,0 L3,3 L0,6 L8,3 L0,0" fill="black" /></marker><marker id="id87" markerHeight="20" markerWidth="30" orient="auto" refX="0" refY="3"><path d=" M0,3 L8,6 L5,3 L8,0 L0,3" fill="black" /></marker><marker id="id88" markerHeight="30" markerWidth="30" orient="auto" refX="8" refY="3"><path d=" M0,0 L3,3 L0,6 L8,3 L0,0" fill="black" /></marker><marker id="id89" markerHeight="20" markerWidth="30" orient="auto" refX="0" refY="3"><path d=" M0,3 L8,6 L5,3 L8,0 L0,3" fill="black" /></marker><marker id="id90" markerHeight="30" markerWidth="30" orient="auto" refX="8" refY="3"><path d=" M0,0 L3,3 L0,6 L8,3 L0,0" fill="black" /></marker><marker id="id91" markerHeight="20" markerWidth="30" orient="auto" refX="0" refY="3"><path d=" M0,3 L8,6 L5,3 L8,0 L0,3" fill="black" /></marker><marker id="id92" markerHeight="30" markerWidth="30" orient="auto" refX="8" refY="3"><path d=" M0,0 L3,3 L0,6 L8,3 L0,0" fill="black" /></marker><marker id="id93" markerHeight="20" markerWidth="30" orient="auto" refX="0" refY="3"><path d=" M0,3 L8,6 L5,3 L8,0 L0,3" fill="black" /></marker><marker id="id94" markerHeight="30" markerWidth="30" orient="auto" refX="8" refY="3"><path d=" M0,0 L3,3 L0,6 L8,3 L0,0" fill="black" /></marker><marker id="id95" markerHeight="20" markerWidth="30" orient="auto" refX="0" refY="3"><path d=" M0,3 L8,6 L5,3 L8,0 L0,3" fill="black" /></marker><marker id="id96" markerHeight="30" markerWidth="30" orient="auto" refX="8" refY="3"><path d=" M0,0 L3,3 L0,6 L8,3 L0,0" fill="black" /></marker><marker id="id97" markerHeight="20" markerWidth="30" orient="auto" refX="0" refY="3"><path d=" M0,3 L8,6 L5,3 L8,0 L0,3" fill="black" /></marker><marker id="id98" markerHeight="30" markerWidth="30" orient="auto" refX="8" refY="3"><path d=" M0,0 L3,3 L0,6 L8,3 L0,0" fill="black" /></marker><marker id="id99" markerHeight="20" markerWidth="30" orient="auto" refX="0" refY="3"><path d=" M0,3 L8,6 L5,3 L8,0 L0,3" fill="black" /></marker><marker id="id100" markerHeight="30" markerWidth="30" orient="auto" refX="8" refY="3"><path d=" M0,0 L3,3 L0,6 L8,3 L0,0" fill="black" /></marker><marker id="id101" markerHeight="20" markerWidth="30" orient="auto" refX="0" refY="3"><path d=" M0,3 L8,6 L5,3 L8,0 L0,3" fill="black" /></marker><marker id="id102" markerHeight="30" markerWidth="30" orient="auto" refX="8" refY="3"><path d=" M0,0 L3,3 L0,6 L8,3 L0,0" fill="black" /></marker><marker id="id103" markerHeight="20" markerWidth="30" orient="auto" refX="0" refY="3"><path d=" M0,3 L8,6 L5,3 L8,0 L0,3" fill="black" /></marker><marker id="id104" markerHeight="20" markerWidth="30" orient="auto" refX="0" refY="3"><path d=" M0,3 L8,6 L5,3 L8,0 L0,3" fill="black" /></marker><marker id="id105" markerHeight="20" markerWidth="30" orient="auto" refX="0" refY="3"><path d=" M0,3 L8,6 L5,3 L8,0 L0,3" fill="black" /></marker><marker id="id106" markerHeight="20" markerWidth="30" orient="auto" refX="0" refY="3"><path d=" M0,3 L8,6 L5,3 L8,0 L0,3" fill="black" /></marker><marker id="id107" markerHeight="20" markerWidth="30" orient="auto" refX="0" refY="3"><path d=" M0,3 L8,6 L5,3 L8,0 L0,3" fill="black" /></marker><marker id="id108" markerHeight="20" markerWidth="30" orient="auto" refX="0" refY="3"><path d=" M0,3 L8,6 L5,3 L8,0 L0,3" fill="black" /></marker></defs><line marker-end="url(#id82)" stroke="black" stroke-linecap="square" stroke-width="2.5" x1="0" x2="0" y1="-320" y2="-270" /><text fill="black" font-family="sans-serif" font-size="52" x="-10" y="-190">A</text><line marker-end="url(#id83)" stroke="black" stroke-linecap="square" stroke-width="2.5" x1="465.1" x2="465.1" y1="-320.0" y2="-270.0" /><text fill="black" font-family="sans-serif" font-size="52" x="455.1" y="-190.0">A</text><line stroke="#666666" stroke-linecap="square" stroke-width="1.0" x1="0" x2="465.1" y1="-320" y2="-320.0" /><polyline fill="none" points="0,0 180,0 180.0,17.2 95.1,17.2 95.1,482.8 180.0,482.8 180.0,500.0 0.0,500.0 0.0,482.8 84.9,482.8 84.9,17.2 0.0,17.2 0,0" stroke="blue" stroke-width="2.5" /><polyline fill="none" points="190.0,17.2 190,0 465.1,0.0 465.1,300.0 115.1,300.0 115.1,286.9 115.1,254.2" stroke="blue" stroke-width="2.5" /><line stroke="red" stroke-dasharray="5 5" stroke-linecap="square" stroke-width="2.5" x1="115.1" x2="115.1" y1="34.2" y2="254.2" /><line stroke="blue" stroke-linecap="square" stroke-width="2.5" x1="190.0" x2="465.1" y1="13.1" y2="13.1" /><line stroke="blue" stroke-linecap="square" stroke-width="2.5" x1="115.1" x2="465.1" y1="286.9" y2="286.9" /><rect fill="none" height="220" stroke="blue" stroke-width="2.5" width="12" x="95.1" y="34.2" /><rect fill="none" height="220" stroke="blue" stroke-width="2.5" width="118" x="107.1" y="34.2" /><path d="M 190.0 17.2 A 17.0 17.0 , 0 , 0 , 1 , 173.0 34.2" fill="none" stroke="blue" stroke-width="2.5" /><circle cx="195.1" cy="64.2" fill="none" r="8" stroke="blue" stroke-width="1.5" /><line stroke="red" stroke-linecap="square" stroke-width="2.0" x1="183.1" x2="207.1" y1="64.2" y2="64.2" /><line stroke="red" stroke-linecap="square" stroke-width="2.0" x1="195.1" x2="195.1" y1="52.2" y2="76.2" /><circle cx="155.1" cy="64.2" fill="none" r="8" stroke="blue" stroke-width="1.5" /><line stroke="red" stroke-linecap="square" stroke-width="2.0" x1="143.1" x2="167.1" y1="64.2" y2="64.2" /><line stroke="red" stroke-linecap="square" stroke-width="2.0" x1="155.1" x2="155.1" y1="52.2" y2="76.2" /><circle cx="195.1" cy="104.2" fill="none" r="8" stroke="blue" stroke-width="1.5" /><line stroke="red" stroke-linecap="square" stroke-width="2.0" x1="183.1" x2="207.1" y1="104.2" y2="104.2" /><line stroke="red" stroke-linecap="square" stroke-width="2.0" x1="195.1" x2="195.1" y1="92.2" y2="116.2" /><circle cx="155.1" cy="104.2" fill="none" r="8" stroke="blue" stroke-width="1.5" /><line stroke="red" stroke-linecap="square" stroke-width="2.0" x1="143.1" x2="167.1" y1="104.2" y2="104.2" /><line stroke="red" stroke-linecap="square" stroke-width="2.0" x1="155.1" x2="155.1" y1="92.2" y2="116.2" /><circle cx="195.1" cy="144.2" fill="none" r="8" stroke="blue" stroke-width="1.5" /><line stroke="red" stroke-linecap="square" stroke-width="2.0" x1="183.1" x2="207.1" y1="144.2" y2="144.2" /><line stroke="red" stroke-linecap="square" stroke-width="2.0" x1="195.1" x2="195.1" y1="132.2" y2="156.2" /><circle cx="155.1" cy="144.2" fill="none" r="8" stroke="blue" stroke-width="1.5" /><line stroke="red" stroke-linecap="square" stroke-width="2.0" x1="143.1" x2="167.1" y1="144.2" y2="144.2" /><line stroke="red" stroke-linecap="square" stroke-width="2.0" x1="155.1" x2="155.1" y1="132.2" y2="156.2" /><circle cx="195.1" cy="184.2" fill="none" r="8" stroke="blue" stroke-width="1.5" /><line stroke="red" stroke-linecap="square" stroke-width="2.0" x1="183.1" x2="207.1" y1="184.2" y2="184.2" /><line stroke="red" stroke-linecap="square" stroke-width="2.0" x1="195.1" x2="195.1" y1="172.2" y2="196.2" /><circle cx="155.1" cy="184.2" fill="none" r="8" stroke="blue" stroke-width="1.5" /><line stroke="red" stroke-linecap="square" stroke-width="2.0" x1="143.1" x2="167.1" y1="184.2" y2="184.2" /><line stroke="red" stroke-linecap="square" stroke-width="2.0" x1="155.1" x2="155.1" y1="172.2" y2="196.2" /><circle cx="195.1" cy="224.2" fill="none" r="8" stroke="blue" stroke-width="1.5" /><line stroke="red" stroke-linecap="square" stroke-width="2.0" x1="183.1" x2="207.1" y1="224.2" y2="224.2" /><line stroke="red" stroke-linecap="square" stroke-width="2.0" x1="195.1" x2="195.1" y1="212.2" y2="236.2" /><circle cx="155.1" cy="224.2" fill="none" r="8" stroke="blue" stroke-width="1.5" /><line stroke="red" stroke-linecap="square" stroke-width="2.0" x1="143.1" x2="167.1" y1="224.2" y2="224.2" /><line stroke="red" stroke-linecap="square" stroke-width="2.0" x1="155.1" x2="155.1" y1="212.2" y2="236.2" /><rect fill="black" height="16" stroke="black" stroke-width="2.0" width="22.2" x="84.9" y="56.2" /><line stroke="black" stroke-linecap="square" stroke-width="2.0" x1="74.9" x2="124.1" y1="64.2" y2="64.2" /><rect fill="black" height="16" stroke="black" stroke-width="2.0" width="22.2" x="84.9" y="96.2" /><line stroke="black" stroke-linecap="square" stroke-width="2.0" x1="74.9" x2="124.1" y1="104.2" y2="104.2" /><rect fill="black" height="16" stroke="black" stroke-width="2.0" width="22.2" x="84.9" y="136.2" /><line stroke="black" stroke-linecap="square" stroke-width="2.0" x1="74.9" x2="124.1" y1="144.2" y2="144.2" /><rect fill="black" height="16" stroke="black" stroke-width="2.0" width="22.2" x="84.9" y="176.2" /><line stroke="black" stroke-linecap="square" stroke-width="2.0" x1="74.9" x2="124.1" y1="184.2" y2="184.2" /><rect fill="black" height="16" stroke="black" stroke-width="2.0" width="22.2" x="84.9" y="216.2" /><line stroke="black" stroke-linecap="square" stroke-width="2.0" x1="74.9" x2="124.1" y1="224.2" y2="224.2" /><line stroke="#D8D8D8" stroke-linecap="square" stroke-opacity="0.7" stroke-width="2.5" x1="225.1" x2="685.1" y1="34.2" y2="34.2" /><line stroke="#D8D8D8" stroke-linecap="square" stroke-opacity="0.7" stroke-width="2.5" x1="225.1" x2="685.1" y1="254.2" y2="254.2" /><line marker-end="url(#id84)" marker-start="url(#id85)" stroke="black" stroke-linecap="square" stroke-width="2.5" x1="575.1" x2="575.1" y1="34.2" y2="254.2" /><text fill="black" font-family="sans-serif" font-size="28" x="585.1" y="144.2">220</text><line stroke="black" stroke-linecap="square" stroke-opacity="1.0" stroke-width="2.5" x1="585.1" x2="565.1" y1="34.2" y2="34.2" /><line stroke="black" stroke-linecap="square" stroke-opacity="1.0" stroke-width="2.5" x1="585.1" x2="565.1" y1="254.2" y2="254.2" /><line stroke="#D8D8D8" stroke-linecap="square" stroke-opacity="0.7" stroke-width="2.5" x1="195.1" x2="695.1" y1="64.2" y2="64.2" /><line stroke="#D8D8D8" stroke-linecap="square" stroke-opacity="0.7" stroke-width="2.5" x1="195.1" x2="695.1" y1="224.2" y2="224.2" /><line marker-end="url(#id86)" marker-start="url(#id87)" stroke="black" stroke-linecap="square" stroke-width="2.5" x1="695.1" x2="695.1" y1="64.2" y2="224.2" /><text fill="black" font-family="sans-serif" font-size="28" x="705.1" y="144.2">4@40 c/c</text><line stroke="black" stroke-linecap="square" stroke-opacity="1.0" stroke-width="2.5" x1="705.1" x2="685.1" y1="64.2" y2="64.2" /><line stroke="black" stroke-linecap="square" stroke-opacity="1.0" stroke-width="2.5" x1="705.1" x2="685.1" y1="224.2" y2="224.2" /><line marker-end="url(#id88)" marker-start="url(#id89)" stroke="black" stroke-linecap="square" stroke-width="2.5" x1="695.1" x2="695.1" y1="64.2" y2="34.2" /><text fill="black" font-family="sans-serif" font-size="28" x="705.1" y="49.2">30</text><line stroke="black" stroke-linecap="square" stroke-opacity="1.0" stroke-width="2.5" x1="705.1" x2="685.1" y1="64.2" y2="64.2" /><line stroke="black" stroke-linecap="square" stroke-opacity="1.0" stroke-width="2.5" x1="705.1" x2="685.1" y1="34.2" y2="34.2" /><line marker-end="url(#id90)" marker-start="url(#id91)" stroke="black" stroke-linecap="square" stroke-width="2.5" x1="695.1" x2="695.1" y1="224.2" y2="254.2" /><text fill="black" font-family="sans-serif" font-size="28" x="705.1" y="239.2">30</text><line stroke="black" stroke-linecap="square" stroke-opacity="1.0" stroke-width="2.5" x1="705.1" x2="685.1" y1="224.2" y2="224.2" /><line stroke="black" stroke-linecap="square" stroke-opacity="1.0" stroke-width="2.5" x1="705.1" x2="685.1" y1="254.2" y2="254.2" /><line stroke="#D8D8D8" stroke-linecap="square" stroke-opacity="0.7" stroke-width="2.5" x1="155.1" x2="155.1" y1="34.2" y2="-100.0" /><line marker-end="url(#id92)" marker-start="url(#id93)" stroke="black" stroke-linecap="square" stroke-width="2.5" x1="195.1" x2="155.1" y1="-100.0" y2="-100.0" /><text fill="black" font-family="sans-serif" font-size="28" x="175.1" y="-120.0">40</text><line stroke="black" stroke-linecap="square" stroke-opacity="1.0" stroke-width="2.5" x1="195.1" x2="195.1" y1="-110.0" y2="-90.0" /><line stroke="black" stroke-linecap="square" stroke-opacity="1.0" stroke-width="2.5" x1="155.1" x2="155.1" y1="-110.0" y2="-90.0" /><line stroke="#D8D8D8" stroke-linecap="square" stroke-opacity="0.7" stroke-width="2.5" x1="195.1" x2="195.1" y1="34.2" y2="-180.0" /><line stroke="#D8D8D8" stroke-linecap="square" stroke-opacity="0.7" stroke-width="2.5" x1="225.1" x2="225.1" y1="34.2" y2="-180.0" /><line marker-end="url(#id94)" marker-start="url(#id95)" stroke="black" stroke-linecap="square" stroke-width="2.5" x1="225.1" x2="195.1" y1="-180.0" y2="-180.0" /><text fill="black" font-family="sans-serif" font-size="28" x="210.1" y="-200.0">30</text><line stroke="black" stroke-linecap="square" stroke-opacity="1.0" stroke-width="2.5" x1="225.1" x2="225.1" y1="-190.0" y2="-170.0" /><line stroke="black" stroke-linecap="square" stroke-opacity="1.0" stroke-width="2.5" x1="195.1" x2="195.1" y1="-190.0" y2="-170.0" /><line stroke="#D8D8D8" stroke-linecap="square" stroke-opacity="0.7" stroke-width="2.5" x1="0" x2="-30" y1="0" y2="0" /><line stroke="#D8D8D8" stroke-linecap="square" stroke-opacity="0.7" stroke-width="2.5" x1="115.1" x2="-30.0" y1="34.2" y2="34.2" /><line marker-end="url(#id96)" marker-start="url(#id97)" stroke="black" stroke-linecap="square" stroke-width="2.5" x1="-30.0" x2="-30.0" y1="0.0" y2="34.2" /><text fill="black" font-family="sans-serif" font-size="28" x="-80.0" y="17.1">34</text><line stroke="black" stroke-linecap="square" stroke-opacity="1.0" stroke-width="2.5" x1="-40.0" x2="-20.0" y1="0.0" y2="0.0" /><line stroke="black" stroke-linecap="square" stroke-opacity="1.0" stroke-width="2.5" x1="-40.0" x2="-20.0" y1="34.2" y2="34.2" /><line stroke="#D8D8D8" stroke-linecap="square" stroke-opacity="0.7" stroke-width="2.5" x1="95.1" x2="-8.75" y1="34.2" y2="34.2" /><line stroke="#D8D8D8" stroke-linecap="square" stroke-opacity="0.7" stroke-width="2.5" x1="84.9" x2="-11.25" y1="64.2" y2="64.2" /><line marker-end="url(#id98)" marker-start="url(#id99)" stroke="black" stroke-linecap="square" stroke-width="2.5" x1="-11.25" x2="-11.25" y1="34.2" y2="64.2" /><text fill="black" font-family="sans-serif" font-size="28" x="-61.25" y="49.2">30</text><line stroke="black" stroke-linecap="square" stroke-opacity="1.0" stroke-width="2.5" x1="-21.25" x2="-1.25" y1="34.2" y2="34.2" /><line stroke="black" stroke-linecap="square" stroke-opacity="1.0" stroke-width="2.5" x1="-21.25" x2="-1.25" y1="64.2" y2="64.2" /><line stroke="#D8D8D8" stroke-linecap="square" stroke-opacity="0.7" stroke-width="2.5" x1="84.9" x2="-11.25" y1="224.2" y2="224.2" /><line marker-end="url(#id100)" marker-start="url(#id101)" stroke="black" stroke-linecap="square" stroke-width="2.5" x1="-11.25" x2="-11.25" y1="64.2" y2="224.2" /><text fill="black" font-family="sans-serif" font-size="28" x="-161.25" y="144.2">4@40 c/c</text><line stroke="black" stroke-linecap="square" stroke-opacity="1.0" stroke-width="2.5" x1="-21.25" x2="-1.25" y1="64.2" y2="64.2" /><line stroke="black" stroke-linecap="square" stroke-opacity="1.0" stroke-width="2.5" x1="-21.25" x2="-1.25" y1="224.2" y2="224.2" /><line stroke="#D8D8D8" stroke-linecap="square" stroke-opacity="0.7" stroke-width="2.5" x1="95.1" x2="-8.75" y1="254.2" y2="254.2" /><line marker-end="url(#id102)" marker-start="url(#id103)" stroke="black" stroke-linecap="square" stroke-width="2.5" x1="-11.25" x2="-11.25" y1="254.2" y2="224.2" /><text fill="black" font-family="sans-serif" font-size="28" x="-61.25" y="239.2">30</text><line stroke="black" stroke-linecap="square" stroke-opacity="1.0" stroke-width="2.5" x1="-21.25" x2="-1.25" y1="254.2" y2="254.2" /><line stroke="black" stroke-linecap="square" stroke-opacity="1.0" stroke-width="2.5" x1="-21.25" x2="-1.25" y1="224.2" y2="224.2" /><polyline fill="none" marker-start="url(#id104)" points="465.1,300.0 551.702540378,350.0 759.702540378,350.0" stroke="black" stroke-width="2.5" /><text fill="black" font-family="sans-serif" font-size="28" x="572.502540378" y="332.0">Beam ISMB 300</text><text fill="black" font-family="sans-serif" font-size="28" x="572.502540378" y="368.0" /><polyline fill="none" marker-start="url(#id105)" points="0,0 -100.0,-100.0 -308.0,-100.0" stroke="black" stroke-width="2.5" /><text fill="black" font-family="sans-serif" font-size="28" x="-287.2" y="-118.0">Beam ISMB 500</text><text fill="black" font-family="sans-serif" font-size="28" x="-328.8" y="-82.0" /><polyline fill="none" marker-start="url(#id106)" points="195.1,64.2 382.1,-122.8 750.1,-122.8" stroke="black" stroke-width="2.5" /><text fill="black" font-family="sans-serif" font-size="28" x="418.9" y="-140.8">10 nos 16Ø holes</text><text fill="black" font-family="sans-serif" font-size="28" x="418.9" y="-89.8">for M16bolts(grade 4.8)</text><polyline fill="none" marker-start="url(#id107)" points="84.9,224.2 38.7119784648,304.2 -329.288021535,304.2" stroke="black" stroke-width="2.5" /><text fill="black" font-family="sans-serif" font-size="28" x="-292.488021535" y="286.2">20 nos 16Ø holes</text><text fill="black" font-family="sans-serif" font-size="28" x="-366.088021535" y="322.2">for M16bolts(grade 4.8)</text><polyline fill="none" marker-start="url(#id108)" points="225.1,254.2 264.166992256,400.0 488.166992256,400.0" stroke="black" stroke-width="2.5" /><text fill="black" font-family="sans-serif" font-size="28" x="286.566992256" y="382.0">ISA.130X130X12</text><text fill="black" font-family="sans-serif" font-size="28" x="286.566992256" y="418.0" /><text fill="black" font-family="sans-serif" font-size="30" x="50" y="990">Front view (Sec C-C)</text><text fill="black" font-family="sans-serif" font-size="30" x="400" y="990">(All distances are in "mm")</text></svg>