<?xml version="1.0" encoding="utf-8" ?>
<svg baseProfile="full" height="100%" version="1.1" viewBox="-500 -400 1500 1400" width="100%" xmlns="http://www.w3.org/2000/svg" xmlns:ev="http://www.w3.org/2001/xml-events" xmlns:xlink="http://www.w3.org/1999/xlink"><defs><marker id="id109" markerHeight="30" markerWidth="30" orient="auto" refX="8" refY="3"><path d=" M0,0 L3,3 L0,6 L8,3 L0,0" fill="black" /></marker><marker id="id110" markerHeight="20" markerWidth="30" orient="auto" refX="0" refY="3"><path d=" M0,3 L8,6 L5,3 L8,0 L0,3" fill="black" /></marker><marker id="id111" markerHeight="30" markerWidth="30" orient="auto" refX="8" refY="3"><path d=" M0,0 L3,3 L0,6 L8,3 L0,0" fill="black" /></marker><marker id="id112" markerHeight="20" markerWidth="30" orient="auto" refX="0" refY="3"><path d=" M0,3 L8,6 L5,3 L8,0 L0,3" fill="black" /></marker><marker id="id113" markerHeight="30" markerWidth="30" orient="auto" refX="8" refY="3"><path d=" M0,0 L3,3 L0,6 L8,3 L0,0" fill="black" /></marker><marker id="id114" markerHeight="20" markerWidth="30" orient="auto" refX="0" refY="3"><path d=" M0,3 L8,6 L5,3 L8,0 L0,3" fill="black" /></marker><marker id="id115" markerHeight="30" markerWidth="30" orient="auto" refX="8" refY="3"><path d=" M0,0 L3,3 L0,6 L8,3 L0,0" fill="black" /></marker><marker id="id116" markerHeight="20" markerWidth="30" orient="auto" refX="0" refY="3"><path d=" M0,3 L8,6 L5,3 L8,0 L0,3" fill="black" /></marker><marker id="id117" markerHeight="30" markerWidth="30" orient="auto" refX="8" refY="3"><path d=" M0,0 L3,3 L0,6 L8,3 L0,0" fill="black" /></marker><marker id="id118" markerHeight="20" markerWidth="30" orient="auto" refX="0" refY="3"><path d=" M0,3 L8,6 L5,3 L8,0 L0,3" fill="black" /></marker><marker id="id119" markerHeight="30" markerWidth="30" orient="auto" refX="8" refY="3"><path d=" M0,0 L3,3 L0,6 L8,3 L0,0" fill="black" /></marker><marker id="id120" markerHeight="20" markerWidth="30" orient="auto" refX="0" refY="3"><path d=" M0,3 L8,6 L5,3 L8,0 L0,3" fill="black" /></marker><marker id="id121" markerHeight="30" markerWidth="30" orient="auto" refX="8" refY="3"><path d=" M0,0 L3,3 L0,6 L8,3 L0,0" fill="black" /></marker><marker id="id122" markerHeight="20" markerWidth="30" orient="auto" refX="0" refY="3"><path d=" M0,3 L8,6 L5,3 L8,0 L0,3" fill="black" /></marker><marker id="id123" markerHeight="30" markerWidth="30" orient="auto" refX="8" refY="3"><path d=" M0,0 L3,3 L0,6 L8,3 L0,0" fill="black" /></marker><marker id="id124" markerHeight="20" markerWidth="30" orient="auto" refX="0" refY="3"><path d=" M0,3 L8,6 L5,3 L8,0 L0,3" fill="black" /></marker><marker id="id125" markerHeight="30" markerWidth="30" orient="auto" refX="8" refY="3"><path d=" M0,0 L3,3 L0,6 L8,3 L0,0" fill="black" /></marker><marker id="id126" markerHeight="20" markerWidth="30" orient="auto" refX="0" refY="3"><path d=" M0,3 L8,6 L5,3 L8,0 L0,3" fill="black" /></marker><marker id="id127" markerHeight="30" markerWidth="30" orient="auto" refX="8" refY="3"><path d=" M0,0 L3,3 L0,6 L8,3 L0,0" fill="black" /></marker><marker id="id128" markerHeight="20" markerWidth="30" orient="auto" refX="0" refY="3"><path d=" M0,3 L8,6 L5,3 L8,0 L0,3" fill="black" /></marker><marker id="id129" markerHeight="30" markerWidth="30" orient="auto" refX="8" refY="3"><path d=" M0,0 L3,3 L0,6 L8,3 L0,0" fill="black" /></marker><marker id="id130" markerHeight="20" markerWidth="30" orient="auto" refX="0" refY="3"><path d=" M0,3 L8,6 L5,3 L8,0 L0,3" fill="black" /></marker><marker id="id131" markerHeight="30" markerWidth="30" orient="auto" refX="8" refY="3"><path d=" M0,0 L3,3 L0,6 L8,3 L0,0" fill="black" /></marker><marker id="id132" markerHeight="20" markerWidth="30" orient="auto" refX="0" refY="3"><path d=" M0,3 L8,6 L5,3 L8,0 L0,3" fill="black" /></marker><marker id="id133" markerHeight="30" markerWidth="30" orient="auto" refX="8" refY="3"><path d=" M0,0 L3,3 L0,6 L8,3 L0,0" fill="black" /></marker><marker id="id134" markerHeight="20" markerWidth="30" orient="auto" refX="0" refY="3"><path d=" M0,3 L8,6 L5,3 L8,0 L0,3" fill="black" /></marker><marker id="id135" markerHeight="20" markerWidth="30" orient="auto" refX="0" refY="3"><path d=" M0,3 L8,6 L5,3 L8,0 L0,3" fill="black" /></marker><marker id="id136" markerHeight="20" markerWidth="30" orient="auto" refX="0" refY="3"><path d=" M0,3 L8,6 L5,3 L8,0 L0,3" fill="black" /></marker><marker id="id137" markerHeight="20" markerWidth="30" orient="auto" refX="0" refY="3"><path d=" M0,3 L8,6 L5,3 L8,0 L0,3" fill="black" /></marker><marker id="id138" markerHeight="20" markerWidth="30" orient="auto" refX="0" refY="3"><path d=" M0,3 L8,6 L5,3 L8,0 L0,3" fill="black" /></marker><marker id="id139" markerHeight="20" markerWidth="30" orient="auto" refX="0" refY="3"><path d=" M0,3 L8,6 L5,3 L8,0 L0,3" fill="black" /></marker></defs><polyline fill="none" points="0,0 340,0 340.0,500.0 0.0,500.0 0,0" stroke="blue" stroke-width="2.5" /><line stroke="blue" stroke-linecap="square" stroke-width="2.5" x1="0.0" x2="340.0" y1="482.8" y2="482.8" /><line stroke="blue" stroke-linecap="square" stroke-width="2.5" x1="0.0" x2="166.15" y1="17.2" y2="17.2" /><line stroke="blue" stroke-linecap="square" stroke-width="2.5" x1="173.85" x2="340.0" y1="17.2" y2="17.2" /><line stroke="red" stroke-dasharray="5 5" stroke-linecap="square" stroke-width="2.5" x1="166.15" x2="173.85" y1="17.2" y2="17.2" /><polyline fill="none" points="240,0 240.0,13.1 173.85,13.1 173.85,286.9 240.0,286.9 240.0,300.0 100.0,300.0 100.0,286.9 166.15,286.9 166.15,13.1 100.0,13.1 100,0" stroke="blue" stroke-width="2.5" /><rect fill="none" height="220" stroke="blue" stroke-width="2.5" width="12" x="173.85" y="34.2" /><rect fill="none" height="220" stroke="blue" stroke-width="2.5" width="118" x="185.85" y="34.2" /><rect fill="none" height="220" stroke="blue" stroke-width="2.5" width="12" x="154.15" y="34.2" /><rect fill="none" height="220" stroke="blue" stroke-width="2.5" width="118" x="36.15" y="34.2" /><rect fill="black" height="16" stroke="none" stroke-width="2.5" width="31.7" x="154.15" y="56.2" /><line stroke="black" stroke-linecap="square" stroke-width="1.5" x1="149.15" x2="190.85" y1="64.2" y2="64.2" /><rect fill="black" height="16" stroke="none" stroke-width="2.5" width="31.7" x="154.15" y="96.2" /><line stroke="black" stroke-linecap="square" stroke-width="1.5" x1="149.15" x2="190.85" y1="104.2" y2="104.2" /><rect fill="black" height="16" stroke="none" stroke-width="2.5" width="31.7" x="154.15" y="136.2" /><line stroke="black" stroke-linecap="square" stroke-width="1.5" x1="149.15" x2="190.85" y1="144.2" y2="144.2" /><rect fill="black" height="16" stroke="none" stroke-width="2.5" width="31.7" x="154.15" y="176.2" /><line stroke="black" stroke-linecap="square" stroke-width="1.5" x1="149.15" x2="190.85" y1="184.2" y2="184.2" /><rect fill="black" height="16" stroke="none" stroke-width="2.5" width="31.7" x="154.15" y="216.2" /><line stroke="black" stroke-linecap="square" stroke-width="1.5" x1="149.15" x2="190.85" y1="224.2" y2="224.2" /><circle cx="66.15" cy="64.2" fill="none" r="8" stroke="blue" stroke-width="1.5" /><line stroke="red" stroke-dasharray="10 5 1 5" stroke-linecap="square" stroke-width="1.5" x1="78.15" x2="54.15" y1="64.2" y2="64.2" /><line stroke="red" stroke-dasharray="10 5 1 5" stroke-linecap="square" stroke-width="1.5" x1="66.15" x2="66.15" y1="76.2" y2="52.2" /><circle cx="273.85" cy="64.2" fill="none" r="8" stroke="blue" stroke-width="1.5" /><line stroke="red" stroke-dasharray="10 5 1 5" stroke-linecap="square" stroke-width="1.5" x1="285.85" x2="261.85" y1="64.2" y2="64.2" /><line stroke="red" stroke-dasharray="10 5 1 5" stroke-linecap="square" stroke-width="1.5" x1="273.85" x2="273.85" y1="76.2" y2="52.2" /><circle cx="106.15" cy="64.2" fill="none" r="8" stroke="blue" stroke-width="1.5" /><line stroke="red" stroke-dasharray="10 5 1 5" stroke-linecap="square" stroke-width="1.5" x1="118.15" x2="94.15" y1="64.2" y2="64.2" /><line stroke="red" stroke-dasharray="10 5 1 5" stroke-linecap="square" stroke-width="1.5" x1="106.15" x2="106.15" y1="76.2" y2="52.2" /><circle cx="233.85" cy="64.2" fill="none" r="8" stroke="blue" stroke-width="1.5" /><line stroke="red" stroke-dasharray="10 5 1 5" stroke-linecap="square" stroke-width="1.5" x1="245.85" x2="221.85" y1="64.2" y2="64.2" /><line stroke="red" stroke-dasharray="10 5 1 5" stroke-linecap="square" stroke-width="1.5" x1="233.85" x2="233.85" y1="76.2" y2="52.2" /><circle cx="66.15" cy="104.2" fill="none" r="8" stroke="blue" stroke-width="1.5" /><line stroke="red" stroke-dasharray="10 5 1 5" stroke-linecap="square" stroke-width="1.5" x1="78.15" x2="54.15" y1="104.2" y2="104.2" /><line stroke="red" stroke-dasharray="10 5 1 5" stroke-linecap="square" stroke-width="1.5" x1="66.15" x2="66.15" y1="116.2" y2="92.2" /><circle cx="273.85" cy="104.2" fill="none" r="8" stroke="blue" stroke-width="1.5" /><line stroke="red" stroke-dasharray="10 5 1 5" stroke-linecap="square" stroke-width="1.5" x1="285.85" x2="261.85" y1="104.2" y2="104.2" /><line stroke="red" stroke-dasharray="10 5 1 5" stroke-linecap="square" stroke-width="1.5" x1="273.85" x2="273.85" y1="116.2" y2="92.2" /><circle cx="106.15" cy="104.2" fill="none" r="8" stroke="blue" stroke-width="1.5" /><line stroke="red" stroke-dasharray="10 5 1 5" stroke-linecap="square" stroke-width="1.5" x1="118.15" x2="94.15" y1="104.2" y2="104.2" /><line stroke="red" stroke-dasharray="10 5 1 5" stroke-linecap="square" stroke-width="1.5" x1="106.15" x2="106.15" y1="116.2" y2="92.2" /><circle cx="233.85" cy="104.2" fill="none" r="8" stroke="blue" stroke-width="1.5" /><line stroke="red" stroke-dasharray="10 5 1 5" stroke-linecap="square" stroke-width="1.5" x1="245.85" x2="221.85" y1="104.2" y2="104.2" /><line stroke="red" stroke-dasharray="10 5 1 5" stroke-linecap="square" stroke-width="1.5" x1="233.85" x2="233.85" y1="116.2" y2="92.2" /><circle cx="66.15" cy="144.2" fill="none" r="8" stroke="blue" stroke-width="1.5" /><line stroke="red" stroke-dasharray="10 5 1 5" stroke-linecap="square" stroke-width="1.5" x1="78.15" x2="54.15" y1="144.2" y2="144.2" /><line stroke="red" stroke-dasharray="10 5 1 5" stroke-linecap="square" stroke-width="1.5" x1="66.15" x2="66.15" y1="156.2" y2="132.2" /><circle cx="273.85" cy="144.2" fill="none" r="8" stroke="blue" stroke-width="1.5" /><line stroke="red" stroke-dasharray="10 5 1 5" stroke-linecap="square" stroke-width="1.5" x1="285.85" x2="261.85" y1="144.2" y2="144.2" /><line stroke="red" stroke-dasharray="10 5 1 5" stroke-linecap="square" stroke-width="1.5" x1="273.85" x2="273.85" y1="156.2" y2="132.2" /><circle cx="106.15" cy="144.2" fill="none" r="8" stroke="blue" stroke-width="1.5" /><line stroke="red" stroke-dasharray="10 5 1 5" stroke-linecap="square" stroke-width="1.5" x1="118.15" x2="94.15" y1="144.2" y2="144.2" /><line stroke="red" stroke-dasharray="10 5 1 5" stroke-linecap="square" stroke-width="1.5" x1="106.15" x2="106.15" y1="156.2" y2="132.2" /><circle cx="233.85" cy="144.2" fill="none" r="8" stroke="blue" stroke-width="1.5" /><line stroke="red" stroke-dasharray="10 5 1 5" stroke-linecap="square" stroke-width="1.5" x1="245.85" x2="221.85" y1="144.2" y2="144.2" /><line stroke="red" stroke-dasharray="10 5 1 5" stroke-linecap="square" stroke-width="1.5" x1="233.85" x2="233.85" y1="156.2" y2="132.2" /><circle cx="66.15" cy="184.2" fill="none" r="8" stroke="blue" stroke-width="1.5" /><line stroke="red" stroke-dasharray="10 5 1 5" stroke-linecap="square" stroke-width="1.5" x1="78.15" x2="54.15" y1="184.2" y2="184.2" /><line stroke="red" stroke-dasharray="10 5 1 5" stroke-linecap="square" stroke-width="1.5" x1="66.15" x2="66.15" y1="196.2" y2="172.2" /><circle cx="273.85" cy="184.2" fill="none" r="8" stroke="blue" stroke-width="1.5" /><line stroke="red" stroke-dasharray="10 5 1 5" stroke-linecap="square" stroke-width="1.5" x1="285.85" x2="261.85" y1="184.2" y2="184.2" /><line stroke="red" stroke-dasharray="10 5 1 5" stroke-linecap="square" stroke-width="1.5" x1="273.85" x2="273.85" y1="196.2" y2="172.2" /><circle cx="106.15" cy="184.2" fill="none" r="8" stroke="blue" stroke-width="1.5" /><line stroke="red" stroke-dasharray="10 5 1 5" stroke-linecap="square" stroke-width="1.5" x1="118.15" x2="94.15" y1="184.2" y2="184.2" /><line stroke="red" stroke-dasharray="10 5 1 5" stroke-linecap="square" stroke-width="1.5" x1="106.15" x2="106.15" y1="196.2" y2="172.2" /><circle cx="233.85" cy="184.2" fill="none" r="8" stroke="blue" stroke-width="1.5" /><line stroke="red" stroke-dasharray="10 5 1 5" stroke-linecap="square" stroke-width="1.5" x1="245.85" x2="221.85" y1="184.2" y2="184.2" /><line stroke="red" stroke-dasharray="10 5 1 5" stroke-linecap="square" stroke-width="1.5" x1="233.85" x2="233.85" y1="196.2" y2="172.2" /><circle cx="66.15" cy="224.2" fill="none" r="8" stroke="blue" stroke-width="1.5" /><line stroke="red" stroke-dasharray="10 5 1 5" stroke-linecap="square" stroke-width="1.5" x1="78.15" x2="54.15" y1="224.2" y2="224.2" /><line stroke="red" stroke-dasharray="10 5 1 5" stroke-linecap="square" stroke-width="1.5" x1="66.15" x2="66.15" y1="236.2" y2="212.2" /><circle cx="273.85" cy="224.2" fill="none" r="8" stroke="blue" stroke-width="1.5" /><line stroke="red" stroke-dasharray="10 5 1 5" stroke-linecap="square" stroke-width="1.5" x1="285.85" x2="261.85" y1="224.2" y2="224.2" /><line stroke="red" stroke-dasharray="10 5 1 5" stroke-linecap="square" stroke-width="1.5" x1="273.85" x2="273.85" y1="236.2" y2="212.2" /><circle cx="106.15" cy="224.2" fill="none" r="8" stroke="blue" stroke-width="1.5" /><line stroke="red" stroke-dasharray="10 5 1 5" stroke-linecap="square" stroke-width="1.5" x1="118.15" x2="94.15" y1="224.2" y2="224.2" /><line stroke="red" stroke-dasharray="10 5 1 5" stroke-linecap="square" stroke-width="1.5" x1="106.15" x2="106.15" y1="236.2" y2="212.2" /><circle cx="233.85" cy="224.2" fill="none" r="8" stroke="blue" stroke-width="1.5" /><line stroke="red" stroke-dasharray="10 5 1 5" stroke-linecap="square" stroke-width="1.5" x1="245.85" x2="221.85" y1="224.2" y2="224.2" /><line stroke="red" stroke-dasharray="10 5 1 5" stroke-linecap="square" stroke-width="1.5" x1="233.85" x2="233.85" y1="236.2" y2="212.2" /><line stroke="#D8D8D8" stroke-linecap="square" stroke-opacity="0.7" stroke-width="2.5" x1="303.85" x2="540.0" y1="34.2" y2="34.2" /><line stroke="#D8D8D8" stroke-linecap="square" stroke-opacity="0.7" stroke-width="2.5" x1="303.85" x2="540.0" y1="254.2" y2="254.2" /><line stroke="#D8D8D8" stroke-linecap="square" stroke-opacity="0.7" stroke-width="2.5" x1="273.85" x2="540.0" y1="64.2" y2="64.2" /><line stroke="#D8D8D8" stroke-linecap="square" stroke-opacity="0.7" stroke-width="2.5" x1="273.85" x2="540.0" y1="224.2" y2="224.2" /><line marker-end="url(#id109)" marker-start="url(#id110)" stroke="black" stroke-linecap="square" stroke-width="2.5" x1="360.0" x2="360.0" y1="34.2" y2="254.2" /><text fill="black" font-family="sans-serif" font-size="28" x="375.0" y="144.2">220</text><line stroke="black" stroke-linecap="square" stroke-opacity="1.0" stroke-width="2.5" x1="370.0" x2="350.0" y1="34.2" y2="34.2" /><line stroke="black" stroke-linecap="square" stroke-opacity="1.0" stroke-width="2.5" x1="370.0" x2="350.0" y1="254.2" y2="254.2" /><line marker-end="url(#id111)" marker-start="url(#id112)" stroke="black" stroke-linecap="square" stroke-width="2.5" x1="540.0" x2="540.0" y1="64.2" y2="224.2" /><text fill="black" font-family="sans-serif" font-size="28" x="560.0" y="144.2">4@40 c/c</text><line stroke="black" stroke-linecap="square" stroke-opacity="1.0" stroke-width="2.5" x1="550.0" x2="530.0" y1="64.2" y2="64.2" /><line stroke="black" stroke-linecap="square" stroke-opacity="1.0" stroke-width="2.5" x1="550.0" x2="530.0" y1="224.2" y2="224.2" /><line marker-end="url(#id113)" marker-start="url(#id114)" stroke="black" stroke-linecap="square" stroke-width="2.5" x1="540.0" x2="540.0" y1="64.2" y2="34.2" /><text fill="black" font-family="sans-serif" font-size="28" x="560.0" y="49.2">30</text><line stroke="black" stroke-linecap="square" stroke-opacity="1.0" stroke-width="2.5" x1="550.0" x2="530.0" y1="64.2" y2="64.2" /><line stroke="black" stroke-linecap="square" stroke-opacity="1.0" stroke-width="2.5" x1="550.0" x2="530.0" y1="34.2" y2="34.2" /><line marker-end="url(#id115)" marker-start="url(#id116)" stroke="black" stroke-linecap="square" stroke-width="2.5" x1="540.0" x2="540.0" y1="224.2" y2="254.2" /><text fill="black" font-family="sans-serif" font-size="28" x="560.0" y="239.2">30</text><line stroke="black" stroke-linecap="square" stroke-opacity="1.0" stroke-width="2.5" x1="550.0" x2="530.0" y1="224.2" y2="224.2" /><line stroke="black" stroke-linecap="square" stroke-opacity="1.0" stroke-width="2.5" x1="550.0" x2="530.0" y1="254.2" y2="254.2" /><line stroke="#D8D8D8" stroke-linecap="square" stroke-opacity="0.7" stroke-width="2.5" x1="340" x2="540" y1="0" y2="0" /><line marker-end="url(#id117)" marker-start="url(#id118)" stroke="black" stroke-linecap="square" stroke-width="2.5" x1="540.0" x2="540.0" y1="0.0" y2="34.2" /><text fill="black" font-family="sans-serif" font-size="28" x="560.0" y="17.1">34</text><line stroke="black" stroke-linecap="square" stroke-opacity="1.0" stroke-width="2.5" x1="550.0" x2="530.0" y1="0.0" y2="0.0" /><line stroke="black" stroke-linecap="square" stroke-opacity="1.0" stroke-width="2.5" x1="550.0" x2="530.0" y1="34.2" y2="34.2" /><line stroke="#D8D8D8" stroke-linecap="square" stroke-opacity="0.7" stroke-width="2.5" x1="36.15" x2="36.15" y1="254.2" y2="550.0" /><line stroke="#D8D8D8" stroke-linecap="square" stroke-opacity="0.7" stroke-width="2.5" x1="303.85" x2="303.85" y1="254.2" y2="550.0" /><line stroke="#D8D8D8" stroke-linecap="square" stroke-opacity="0.7" stroke-width="2.5" x1="273.85" x2="273.85" y1="224.2" y2="600.0" /><line stroke="#D8D8D8" stroke-linecap="square" stroke-opacity="0.7" stroke-width="2.5" x1="66.15" x2="66.15" y1="224.2" y2="600.0" /><line marker-end="url(#id119)" marker-start="url(#id120)" stroke="black" stroke-linecap="square" stroke-width="2.5" x1="36.15" x2="66.15" y1="550.0" y2="550.0" /><text fill="black" font-family="sans-serif" font-size="28" x="51.15" y="600.0">30</text><line stroke="black" stroke-linecap="square" stroke-opacity="1.0" stroke-width="2.5" x1="36.15" x2="36.15" y1="570.0" y2="530.0" /><line stroke="black" stroke-linecap="square" stroke-opacity="1.0" stroke-width="2.5" x1="66.15" x2="66.15" y1="570.0" y2="530.0" /><line marker-end="url(#id121)" marker-start="url(#id122)" stroke="black" stroke-linecap="square" stroke-width="2.5" x1="303.85" x2="273.85" y1="550.0" y2="550.0" /><text fill="black" font-family="sans-serif" font-size="28" x="288.85" y="600.0">30</text><line stroke="black" stroke-linecap="square" stroke-opacity="1.0" stroke-width="2.5" x1="303.85" x2="303.85" y1="570.0" y2="530.0" /><line stroke="black" stroke-linecap="square" stroke-opacity="1.0" stroke-width="2.5" x1="273.85" x2="273.85" y1="570.0" y2="530.0" /><line stroke="#D8D8D8" stroke-linecap="square" stroke-opacity="0.7" stroke-width="2.5" x1="233.85" x2="233.85" y1="224.2" y2="650.0" /><line stroke="#D8D8D8" stroke-linecap="square" stroke-opacity="0.7" stroke-width="2.5" x1="106.15" x2="106.15" y1="224.2" y2="650.0" /><line marker-end="url(#id123)" marker-start="url(#id124)" stroke="black" stroke-linecap="square" stroke-width="2.5" x1="233.85" x2="273.85" y1="600.0" y2="600.0" /><text fill="black" font-family="sans-serif" font-size="28" x="253.85" y="650.0">40</text><line stroke="black" stroke-linecap="square" stroke-opacity="1.0" stroke-width="2.5" x1="233.85" x2="233.85" y1="610.0" y2="590.0" /><line stroke="black" stroke-linecap="square" stroke-opacity="1.0" stroke-width="2.5" x1="273.85" x2="273.85" y1="610.0" y2="590.0" /><line marker-end="url(#id125)" marker-start="url(#id126)" stroke="black" stroke-linecap="square" stroke-width="2.5" x1="106.15" x2="66.15" y1="600.0" y2="600.0" /><text fill="black" font-family="sans-serif" font-size="28" x="86.15" y="650.0">40</text><line stroke="black" stroke-linecap="square" stroke-opacity="1.0" stroke-width="2.5" x1="106.15" x2="106.15" y1="610.0" y2="590.0" /><line stroke="black" stroke-linecap="square" stroke-opacity="1.0" stroke-width="2.5" x1="66.15" x2="66.15" y1="610.0" y2="590.0" /><line marker-end="url(#id127)" marker-start="url(#id128)" stroke="black" stroke-linecap="square" stroke-width="2.5" x1="106.15" x2="233.85" y1="650.0" y2="650.0" /><text fill="black" font-family="sans-serif" font-size="28" x="170.0" y="700.0">112</text><line stroke="black" stroke-linecap="square" stroke-opacity="1.0" stroke-width="2.5" x1="106.15" x2="106.15" y1="660.0" y2="640.0" /><line stroke="black" stroke-linecap="square" stroke-opacity="1.0" stroke-width="2.5" x1="233.85" x2="233.85" y1="660.0" y2="640.0" /><line stroke="#D8D8D8" stroke-linecap="square" stroke-opacity="0.7" stroke-width="2.5" x1="154.15" x2="-100.0" y1="34.2" y2="34.2" /><line stroke="#D8D8D8" stroke-linecap="square" stroke-opacity="0.7" stroke-width="2.5" x1="154.15" x2="-100.0" y1="254.2" y2="254.2" /><line stroke="#D8D8D8" stroke-linecap="square" stroke-opacity="0.7" stroke-width="2.5" x1="154.15" x2="-100.0" y1="64.2" y2="64.2" /><line stroke="#D8D8D8" stroke-linecap="square" stroke-opacity="0.7" stroke-width="2.5" x1="154.15" x2="-100.0" y1="224.2" y2="224.2" /><line marker-end="url(#id129)" marker-start="url(#id130)" stroke="black" stroke-linecap="square" stroke-width="2.5" x1="-100.0" x2="-100.0" y1="64.2" y2="224.2" /><text fill="black" font-family="sans-serif" font-size="28" x="-250.0" y="144.2">4@40 c/c</text><line stroke="black" stroke-linecap="square" stroke-opacity="1.0" stroke-width="2.5" x1="-110.0" x2="-90.0" y1="64.2" y2="64.2" /><line stroke="black" stroke-linecap="square" stroke-opacity="1.0" stroke-width="2.5" x1="-110.0" x2="-90.0" y1="224.2" y2="224.2" /><line marker-end="url(#id131)" marker-start="url(#id132)" stroke="black" stroke-linecap="square" stroke-width="2.5" x1="-100.0" x2="-100.0" y1="64.2" y2="34.2" /><text fill="black" font-family="sans-serif" font-size="28" x="-150.0" y="49.2">30</text><line stroke="black" stroke-linecap="square" stroke-opacity="1.0" stroke-width="2.5" x1="-110.0" x2="-90.0" y1="64.2" y2="64.2" /><line stroke="black" stroke-linecap="square" stroke-opacity="1.0" stroke-width="2.5" x1="-110.0" x2="-90.0" y1="34.2" y2="34.2" /><line marker-end="url(#id133)" marker-start="url(#id134)" stroke="black" stroke-linecap="square" stroke-width="2.5" x1="-100.0" x2="-100.0" y1="224.2" y2="254.2" /><text fill="black" font-family="sans-serif" font-size="28" x="-150.0" y="239.2">30</text><line stroke="black" stroke-linecap="square" stroke-opacity="1.0" stroke-width="2.5" x1="-110.0" x2="-90.0" y1="224.2" y2="224.2" /><line stroke="black" stroke-linecap="square" stroke-opacity="1.0" stroke-width="2.5" x1="-110.0" x2="-90.0" y1="254.2" y2="254.2" /><polyline fill="none" marker-start="url(#id135)" points="240.0,300.0 456.506350946,425.0 664.506350946,425.0" stroke="black" stroke-width="2.5" /><text fill="black" font-family="sans-serif" font-size="28" x="477.306350946" y="407.0">Beam ISMB 300</text><text fill="black" font-family="sans-serif" font-size="28" x="477.306350946" y="443.0" /><polyline fill="none" marker-start="url(#id136)" points="0,0 0.0,0.0 -208.0,0.0" stroke="black" stroke-width="2.5" /><text fill="black" font-family="sans-serif" font-size="28" x="-187.2" y="-18.0">Beam ISMB 500</text><text fill="black" font-family="sans-serif" font-size="28" x="-228.8" y="18.0" /><polyline fill="none" marker-start="url(#id137)" points="273.85,64.2 460.85,-122.8 828.85,-122.8" stroke="black" stroke-width="2.5" /><text fill="black" font-family="sans-serif" font-size="28" x="497.65" y="-140.8">20 nos 16Ø holes</text><text fill="black" font-family="sans-serif" font-size="28" x="497.65" y="-89.8">for M16bolts(grade 4.8)</text><polyline fill="none" marker-start="url(#id138)" points="154.15,64.2 74.0765484614,-155.8 -293.923451539,-155.8" stroke="black" stroke-width="2.5" /><text fill="black" font-family="sans-serif" font-size="28" x="-257.123451539" y="-173.8">10 nos 16Ø holes</text><text fill="black" font-family="sans-serif" font-size="28" x="-330.723451539" y="-137.8">for M16bolts(grade 4.8)</text><polyline fill="none" marker-start="url(#id139)" points="36.15,254.2 -98.5595006696,331.974566474 -322.55950067,331.974566474" stroke="black" stroke-width="2.5" /><text fill="black" font-family="sans-serif" font-size="28" x="-300.15950067" y="313.974566474">ISA.130X130X12</text><text fill="black" font-family="sans-serif" font-size="28" x="-344.95950067" y="349.974566474" /><text fill="black" font-family="sans-serif" font-size="30" x="50" y="980">Side View (Sec B-B)</text><text fill="black" font-family="sans-serif" font-size="30" x="400" y="980">(All distances are in "mm")</text></svg>