<?xml version="1.0" encoding="utf-8" ?>
<svg baseProfile="full" height="100%" version="1.1" viewBox="-350 -400 1150 1200" width="100%" xmlns="http://www.w3.org/2000/svg" xmlns:ev="http://www.w3.org/2001/xml-events" xmlns:xlink="http://www.w3.org/1999/xlink"><defs><pattern height="8" id="diagonalHatch" patternTransform="rotate(45 2 2)" patternUnits="userSpaceOnUse" width="6"><path d="M -1,2 l 6,0" stroke="#000000" stroke-width="2.5" /></pattern><marker id="id93" markerHeight="30" markerWidth="30" orient="auto" refX="8" refY="3"><path d=" M0,0 L3,3 L0,6 L8,3 L0,0" fill="black" /></marker><marker id="id94" markerHeight="20" markerWidth="30" orient="auto" refX="0" refY="3"><path d=" M0,3 L8,6 L5,3 L8,0 L0,3" fill="black" /></marker><marker id="id95" markerHeight="10" markerWidth="10" orient="auto" refX="0" refY="5"><path d="M 0 0 L 10 5 L 0 10 z" fill="blue" stroke="black" /></marker><marker id="id96" markerHeight="10" markerWidth="10" orient="auto" refX="0" refY="5"><path d="M 0 0 L 10 5 L 0 10 z" fill="blue" stroke="black" /></marker><marker id="id97" markerHeight="30" markerWidth="30" orient="auto" refX="8" refY="3"><path d=" M0,0 L3,3 L0,6 L8,3 L0,0" fill="black" /></marker><marker id="id98" markerHeight="20" markerWidth="30" orient="auto" refX="0" refY="3"><path d=" M0,3 L8,6 L5,3 L8,0 L0,3" fill="black" /></marker><marker id="id99" markerHeight="30" markerWidth="30" orient="auto" refX="8" refY="3"><path d=" M0,0 L3,3 L0,6 L8,3 L0,0" fill="black" /></marker><marker id="id100" markerHeight="20" markerWidth="30" orient="auto" refX="0" refY="3"><path d=" M0,3 L8,6 L5,3 L8,0 L0,3" fill="black" /></marker><marker id="id101" markerHeight="30" markerWidth="30" orient="auto" refX="8" refY="3"><path d=" M0,0 L3,3 L0,6 L8,3 L0,0" fill="black" /></marker><marker id="id102" markerHeight="20" markerWidth="30" orient="auto" refX="0" refY="3"><path d=" M0,3 L8,6 L5,3 L8,0 L0,3" fill="black" /></marker><marker id="id103" markerHeight="30" markerWidth="30" orient="auto" refX="8" refY="3"><path d=" M0,0 L3,3 L0,6 L8,3 L0,0" fill="black" /></marker><marker id="id104" markerHeight="20" markerWidth="30" orient="auto" refX="0" refY="3"><path d=" M0,3 L8,6 L5,3 L8,0 L0,3" fill="black" /></marker><marker id="id105" markerHeight="30" markerWidth="30" orient="auto" refX="8" refY="3"><path d=" M0,0 L3,3 L0,6 L8,3 L0,0" fill="black" /></marker><marker id="id106" markerHeight="20" markerWidth="30" orient="auto" refX="0" refY="3"><path d=" M0,3 L8,6 L5,3 L8,0 L0,3" fill="black" /></marker><marker id="id107" markerHeight="20" markerWidth="30" orient="auto" refX="0" refY="3"><path d=" M0,3 L8,6 L5,3 L8,0 L0,3" fill="black" /></marker><marker id="id108" markerHeight="20" markerWidth="30" orient="auto" refX="0" refY="3"><path d=" M0,3 L8,6 L5,3 L8,0 L0,3" fill="black" /></marker><marker id="id109" markerHeight="20" markerWidth="30" orient="auto" refX="0" refY="3"><path d=" M0,3 L8,6 L5,3 L8,0 L0,3" fill="black" /></marker><marker id="id110" markerHeight="20" markerWidth="30" orient="auto" refX="0" refY="3"><path d=" M0,3 L8,6 L5,3 L8,0 L0,3" fill="black" /></marker><marker id="id111" markerHeight="20" markerWidth="30" orient="auto" refX="0" refY="3"><path d=" M0,3 L8,6 L5,3 L8,0 L0,3" fill="black" /></marker><marker id="id112" markerHeight="15" markerWidth="15" orient="auto" refX="45" refY="7.5"><path d="M 0 0 L 8 7.5 L 0 15 z" fill="none" stroke="black" /></marker></defs><polyline fill="#E0E0E0" points="0,0 180,0 180.0,17.2 95.1,17.2 95.1,482.8 180.0,482.8 180,500 0,500 0.0,482.8 84.9,482.8 84.9,17.2 0.0,17.2 0,0" stroke="blue" stroke-width="2.5" /><line stroke="blue" stroke-linecap="square" stroke-width="2.5" x1="115.1" x2="173.0" y1="34.2" y2="34.2" /><polyline fill="none" points="190.0,17.2 190.0,13.1 190,0 475.1,0.0 475.1,300.0 115.1,300.0 115.1,234.2" stroke="blue" stroke-width="2.5" /><line stroke="red" stroke-dasharray="5 5" stroke-linecap="square" stroke-width="2.5" x1="115.1" x2="115.1" y1="34.2" y2="234.2" /><rect fill="url(#diagonalHatch)" height="200.0" stroke="white" stroke-width="2.5" width="8" x="95.1" y="34.2" /><rect fill="none" height="200.0" stroke="blue" stroke-width="2.5" width="100.0" x="95.1" y="34.2" /><line stroke="blue" stroke-linecap="square" stroke-width="2.5" x1="190.0" x2="475.1" y1="13.1" y2="13.1" /><line stroke="blue" stroke-linecap="square" stroke-width="2.5" x1="115.1" x2="475.1" y1="286.9" y2="286.9" /><path d="M 190.0 17.2 A 17.0 17.0 0 0 1 173.0 34.2" fill="none" stroke="blue" stroke-width="2.5" /><circle cx="155.1" cy="74.2" fill="none" r="10" stroke="blue" stroke-width="1.5" /><line stroke="red" stroke-linecap="square" stroke-width="2.0" x1="141.1" x2="169.1" y1="74.2" y2="74.2" /><line stroke="blue" stroke-dasharray="20 5 1 5" stroke-linecap="square" stroke-width="1.5" x1="155.1" x2="155.1" y1="34.2" y2="234.2" /><circle cx="155.1" cy="134.2" fill="none" r="10" stroke="blue" stroke-width="1.5" /><line stroke="red" stroke-linecap="square" stroke-width="2.0" x1="141.1" x2="169.1" y1="134.2" y2="134.2" /><line stroke="blue" stroke-dasharray="20 5 1 5" stroke-linecap="square" stroke-width="1.5" x1="155.1" x2="155.1" y1="34.2" y2="234.2" /><circle cx="155.1" cy="194.2" fill="none" r="10" stroke="blue" stroke-width="1.5" /><line stroke="red" stroke-linecap="square" stroke-width="2.0" x1="141.1" x2="169.1" y1="194.2" y2="194.2" /><line stroke="blue" stroke-dasharray="20 5 1 5" stroke-linecap="square" stroke-width="1.5" x1="155.1" x2="155.1" y1="34.2" y2="234.2" /><line marker-end="url(#id93)" marker-start="url(#id94)" stroke="black" stroke-linecap="square" stroke-width="2.5" x1="-40.0" x2="-40.0" y1="74.2" y2="194.2" /><text fill="black" font-family="sans-serif" font-size="28" x="-295.1" y="134.2">2 @60 mm c/c</text><line stroke="black" stroke-linecap="square" stroke-opacity="1.0" stroke-width="2.5" x1="-50.0" x2="-30.0" y1="74.2" y2="74.2" /><line stroke="black" stroke-linecap="square" stroke-opacity="1.0" stroke-width="2.5" x1="-50.0" x2="-30.0" y1="194.2" y2="194.2" /><line marker-end="url(#id95)" stroke="black" stroke-linecap="square" stroke-width="2.5" x1="-10" x2="-10" y1="-320" y2="-270" /><text fill="black" font-family="sans-serif" font-size="52" x="-20" y="-190">A</text><line marker-end="url(#id96)" stroke="black" stroke-linecap="square" stroke-width="2.5" x1="485.1" x2="485.1" y1="-320.0" y2="-270.0" /><text fill="black" font-family="sans-serif" font-size="52" x="475.1" y="-190.0">A</text><line stroke="#666666" stroke-linecap="square" stroke-width="1.0" x1="-10" x2="485.1" y1="-320" y2="-320.0" /><line marker-end="url(#id97)" marker-start="url(#id98)" stroke="black" stroke-linecap="square" stroke-width="2.5" x1="-40.0" x2="-40.0" y1="74.2" y2="34.2" /><text fill="black" font-family="sans-serif" font-size="28" x="-160.0" y="54.2">40 mm</text><line stroke="black" stroke-linecap="square" stroke-opacity="1.0" stroke-width="2.5" x1="-50.0" x2="-30.0" y1="74.2" y2="74.2" /><line stroke="black" stroke-linecap="square" stroke-opacity="1.0" stroke-width="2.5" x1="-50.0" x2="-30.0" y1="34.2" y2="34.2" /><line stroke="#D8D8D8" stroke-linecap="square" stroke-opacity="0.7" stroke-width="2.5" x1="155.1" x2="-30.0" y1="74.2" y2="74.2" /><line marker-end="url(#id99)" marker-start="url(#id100)" stroke="black" stroke-linecap="square" stroke-width="2.5" x1="-40.0" x2="-40.0" y1="34.2" y2="0.0" /><text fill="black" font-family="sans-serif" font-size="28" x="-165.0" y="17.1">64 mm</text><line stroke="black" stroke-linecap="square" stroke-opacity="1.0" stroke-width="2.5" x1="-50.0" x2="-30.0" y1="34.2" y2="34.2" /><line stroke="black" stroke-linecap="square" stroke-opacity="1.0" stroke-width="2.5" x1="-50.0" x2="-30.0" y1="0.0" y2="0.0" /><line stroke="#D8D8D8" stroke-linecap="square" stroke-opacity="0.7" stroke-width="2.5" x1="95.1" x2="-30.0" y1="34.2" y2="34.2" /><line stroke="#D8D8D8" stroke-linecap="square" stroke-opacity="0.7" stroke-width="2.5" x1="0" x2="-30" y1="0" y2="0" /><line marker-end="url(#id101)" marker-start="url(#id102)" stroke="black" stroke-linecap="square" stroke-width="2.5" x1="-40.0" x2="-40.0" y1="194.2" y2="234.2" /><text fill="black" font-family="sans-serif" font-size="28" x="-160.0" y="214.2">40 mm</text><line stroke="black" stroke-linecap="square" stroke-opacity="1.0" stroke-width="2.5" x1="-50.0" x2="-30.0" y1="194.2" y2="194.2" /><line stroke="black" stroke-linecap="square" stroke-opacity="1.0" stroke-width="2.5" x1="-50.0" x2="-30.0" y1="234.2" y2="234.2" /><line stroke="#D8D8D8" stroke-linecap="square" stroke-opacity="0.7" stroke-width="2.5" x1="155.1" x2="-30.0" y1="194.2" y2="194.2" /><line stroke="#D8D8D8" stroke-linecap="square" stroke-opacity="0.7" stroke-width="2.5" x1="95.1" x2="-90.0" y1="234.2" y2="234.2" /><line stroke="#D8D8D8" stroke-linecap="square" stroke-opacity="0.7" stroke-width="2.5" x1="115.1" x2="115.1" y1="300.0" y2="600.0" /><line stroke="#D8D8D8" stroke-linecap="square" stroke-opacity="0.7" stroke-width="2.5" x1="95.1" x2="95.1" y1="300.0" y2="600.0" /><line stroke="black" stroke-linecap="square" stroke-width="2.5" x1="115.1" x2="115.1" y1="540.0" y2="560.0" /><line stroke="black" stroke-linecap="square" stroke-width="2.5" x1="95.1" x2="95.1" y1="540.0" y2="560.0" /><line marker-end="url(#id103)" stroke="black" stroke-linecap="square" stroke-width="2.5" x1="165.1" x2="115.1" y1="550.0" y2="550.0" /><line marker-end="url(#id103)" stroke="black" stroke-linecap="butt" stroke-width="2.5" x1="45.1" x2="95.1" y1="550.0" y2="550.0" /><text fill="black" font-family="sans-serif" font-size="28" x="-74.9" y="550.0">20 mm</text><line marker-end="url(#id105)" marker-start="url(#id106)" stroke="black" stroke-linecap="square" stroke-width="2.5" x1="155.1" x2="195.1" y1="-112.9" y2="-112.9" /><text fill="black" font-family="sans-serif" font-size="28" x="175.1" y="-77.9">40 mm</text><line stroke="black" stroke-linecap="square" stroke-opacity="1.0" stroke-width="2.5" x1="155.1" x2="155.1" y1="-102.9" y2="-122.9" /><line stroke="black" stroke-linecap="square" stroke-opacity="1.0" stroke-width="2.5" x1="195.1" x2="195.1" y1="-102.9" y2="-122.9" /><line stroke="#D8D8D8" stroke-linecap="square" stroke-opacity="0.7" stroke-width="2.5" x1="155.1" x2="155.1" y1="34.2" y2="-112.9" /><line stroke="#D8D8D8" stroke-linecap="square" stroke-opacity="0.7" stroke-width="2.5" x1="195.1" x2="195.1" y1="34.2" y2="-112.9" /><polyline fill="none" marker-start="url(#id107)" points="195.1,234.2 454.907621135,384.2 694.907621135,384.2" stroke="black" stroke-width="2.5" /><text fill="black" font-family="sans-serif" font-size="28" x="478.907621135" y="366.2">PLT. 200X100X10</text><text fill="black" font-family="sans-serif" font-size="28" x="478.907621135" y="417.2" /><polyline fill="none" marker-start="url(#id108)" points="90,0 3.39745962156,-50.0 -204.602540378,-50.0" stroke="black" stroke-width="2.5" /><text fill="black" font-family="sans-serif" font-size="28" x="-163.002540378" y="-68.0">Beam ISMB 500</text><text fill="black" font-family="sans-serif" font-size="28" x="-225.402540378" y="-32.0" /><polyline fill="none" marker-start="url(#id109)" points="155.1,74.2 279.3,-50.0 679.3,-50.0" stroke="black" stroke-width="2.5" /><text fill="black" font-family="sans-serif" font-size="28" x="319.3" y="-68.0">3 nos 20Ø holes</text><text fill="black" font-family="sans-serif" font-size="28" x="319.3" y="-17.0">for M20 bolts (grade 8.8)</text><polyline fill="none" marker-start="url(#id110)" points="475.1,150.0 475.1,150.0 683.1,150.0" stroke="black" stroke-width="2.5" /><text fill="black" font-family="sans-serif" font-size="28" x="495.9" y="132.0">Beam ISMB 300</text><text fill="black" font-family="sans-serif" font-size="28" x="495.9" y="183.0" /><polyline fill="none" marker-end="url(#id112)" marker-start="url(#id111)" points="99.1,214.2 379.1,494.2 667.1,494.2" stroke="black" stroke-width="2.5" /><text fill="black" font-family="sans-serif" font-size="28" x="407.9" y="476.2">          z 8.0 mm</text><text fill="black" font-family="sans-serif" font-size="28" x="407.9" y="527.2" /><text fill="black" font-family="sans-serif" font-size="30" x="100" y="650">Front view (Sec C-C)</text></svg>