<?xml version="1.0" encoding="utf-8" ?>
<svg baseProfile="full" height="100%" preserveAspectRatio="xMidYMid meet" version="1.1" viewBox="-10 -200 1120.0 850.0" width="100%" xmlns="http://www.w3.org/2000/svg" xmlns:ev="http://www.w3.org/2001/xml-events" xmlns:xlink="http://www.w3.org/1999/xlink"><defs><pattern height="8" id="diagonalHatch" patternTransform="rotate(45 2 2)" patternUnits="userSpaceOnUse" width="6"><path d="M -1,2 l 6,0" stroke="#000000" stroke-width="2.5" /></pattern><marker id="id113" markerHeight="30" markerWidth="30" orient="auto" refX="8" refY="3"><path d=" M0,0 L3,3 L0,6 L8,3 L0,0" fill="black" /></marker><marker id="id114" markerHeight="20" markerWidth="30" orient="auto" refX="0" refY="3"><path d=" M0,3 L8,6 L5,3 L8,0 L0,3" fill="black" /></marker><marker id="id115" markerHeight="30" markerWidth="30" orient="auto" refX="8" refY="3"><path d=" M0,0 L3,3 L0,6 L8,3 L0,0" fill="black" /></marker><marker id="id116" markerHeight="20" markerWidth="30" orient="auto" refX="0" refY="3"><path d=" M0,3 L8,6 L5,3 L8,0 L0,3" fill="black" /></marker><marker id="id117" markerHeight="30" markerWidth="30" orient="auto" refX="8" refY="3"><path d=" M0,0 L3,3 L0,6 L8,3 L0,0" fill="black" /></marker><marker id="id118" markerHeight="20" markerWidth="30" orient="auto" refX="0" refY="3"><path d=" M0,3 L8,6 L5,3 L8,0 L0,3" fill="black" /></marker><marker id="id119" markerHeight="20" markerWidth="30" orient="auto" refX="0" refY="3"><path d=" M0,3 L8,6 L5,3 L8,0 L0,3" fill="black" /></marker><marker id="id120" markerHeight="20" markerWidth="30" orient="auto" refX="0" refY="3"><path d=" M0,3 L8,6 L5,3 L8,0 L0,3" fill="black" /></marker><marker id="id121" markerHeight="20" markerWidth="30" orient="auto" refX="0" refY="3"><path d=" M0,3 L8,6 L5,3 L8,0 L0,3" fill="black" /></marker><marker id="id122" markerHeight="20" markerWidth="30" orient="auto" refX="0" refY="3"><path d=" M0,3 L8,6 L5,3 L8,0 L0,3" fill="black" /></marker><marker id="id123" markerHeight="20" markerWidth="30" orient="auto" refX="0" refY="3"><path d=" M0,3 L8,6 L5,3 L8,0 L0,3" fill="black" /></marker><marker id="id124" markerHeight="15" markerWidth="15" orient="auto" refX="45" refY="7.5"><path d="M 0 0 L 8 7.5 L 0 15 z" fill="none" stroke="black" /></marker></defs><polyline fill="none" points="0,0 700,0 700,500 0,500 0,0" stroke="blue" stroke-width="2.5" /><line stroke="blue" stroke-linecap="square" stroke-width="2.5" x1="0.0" x2="700.0" y1="17.2" y2="17.2" /><line stroke="blue" stroke-linecap="square" stroke-width="2.5" x1="0.0" x2="700.0" y1="482.8" y2="482.8" /><polyline fill="#E0E0E0" points="280.0,0.0 420.0,0.0 420.0,13.1 353.85,13.1 353.85,286.9 420.0,286.9 420.0,300.0 280.0,300.0 280.0,286.9 346.15,286.9 346.15,13.1 280.0,13.1 280.0,0.0" stroke="blue" stroke-width="2.5" /><rect fill="url(#diagonalHatch)" height="200.0" stroke="white" stroke-width="2.5" width="8" x="328.15" y="27.1" /><rect fill="none" height="200.0" stroke="blue" stroke-width="2.5" width="10" x="336.15" y="27.1" /><circle cx="346.15" cy="67.1" fill="none" r="1.5" stroke="red" stroke-width="1.5" /><line stroke="red" stroke-dasharray="10 5 1 5" stroke-linecap="square" stroke-width="1.5" x1="366.15" x2="316.15" y1="67.1" y2="67.1" /><rect fill="black" height="17.7" stroke="black" stroke-width="2.5" width="20" x="336.15" y="57.1" /><line stroke="black" stroke-linecap="square" stroke-width="1.5" x1="336.15" x2="353.85" y1="57.1" y2="57.1" /><line stroke="black" stroke-linecap="square" stroke-width="1.5" x1="336.15" x2="353.85" y1="77.1" y2="77.1" /><circle cx="346.15" cy="127.1" fill="none" r="1.5" stroke="red" stroke-width="1.5" /><line stroke="red" stroke-dasharray="10 5 1 5" stroke-linecap="square" stroke-width="1.5" x1="366.15" x2="316.15" y1="127.1" y2="127.1" /><rect fill="black" height="17.7" stroke="black" stroke-width="2.5" width="20" x="336.15" y="117.1" /><line stroke="black" stroke-linecap="square" stroke-width="1.5" x1="336.15" x2="353.85" y1="117.1" y2="117.1" /><line stroke="black" stroke-linecap="square" stroke-width="1.5" x1="336.15" x2="353.85" y1="137.1" y2="137.1" /><circle cx="346.15" cy="187.1" fill="none" r="1.5" stroke="red" stroke-width="1.5" /><line stroke="red" stroke-dasharray="10 5 1 5" stroke-linecap="square" stroke-width="1.5" x1="366.15" x2="316.15" y1="187.1" y2="187.1" /><rect fill="black" height="17.7" stroke="black" stroke-width="2.5" width="20" x="336.15" y="177.1" /><line stroke="black" stroke-linecap="square" stroke-width="1.5" x1="336.15" x2="353.85" y1="177.1" y2="177.1" /><line stroke="black" stroke-linecap="square" stroke-width="1.5" x1="336.15" x2="353.85" y1="197.1" y2="197.1" /><line stroke="#D8D8D8" stroke-linecap="square" stroke-opacity="0.7" stroke-width="2.5" x1="346.15" x2="796.15" y1="27.1" y2="27.1" /><line stroke="#D8D8D8" stroke-linecap="square" stroke-opacity="0.7" stroke-width="2.5" x1="346.15" x2="796.15" y1="67.1" y2="67.1" /><line stroke="#D8D8D8" stroke-linecap="square" stroke-opacity="0.7" stroke-width="2.5" x1="346.15" x2="796.15" y1="227.1" y2="227.1" /><line stroke="#D8D8D8" stroke-linecap="square" stroke-opacity="0.7" stroke-width="2.5" x1="346.15" x2="696.15" y1="187.1" y2="187.1" /><line marker-end="url(#id113)" marker-start="url(#id114)" stroke="black" stroke-linecap="square" stroke-width="2.5" x1="796.15" x2="796.15" y1="67.1" y2="187.1" /><text fill="black" font-family="sans-serif" font-size="28" x="811.15" y="127.1">2 @60 mm c/c</text><line stroke="black" stroke-linecap="square" stroke-opacity="1.0" stroke-width="2.5" x1="806.15" x2="786.15" y1="67.1" y2="67.1" /><line stroke="black" stroke-linecap="square" stroke-opacity="1.0" stroke-width="2.5" x1="806.15" x2="786.15" y1="187.1" y2="187.1" /><line marker-end="url(#id115)" marker-start="url(#id116)" stroke="black" stroke-linecap="square" stroke-width="2.5" x1="796.15" x2="796.15" y1="27.1" y2="67.1" /><text fill="black" font-family="sans-serif" font-size="28" x="811.15" y="47.1">40 mm </text><line stroke="black" stroke-linecap="square" stroke-opacity="1.0" stroke-width="2.5" x1="806.15" x2="786.15" y1="27.1" y2="27.1" /><line stroke="black" stroke-linecap="square" stroke-opacity="1.0" stroke-width="2.5" x1="806.15" x2="786.15" y1="67.1" y2="67.1" /><line marker-end="url(#id117)" marker-start="url(#id118)" stroke="black" stroke-linecap="square" stroke-width="2.5" x1="796.15" x2="796.15" y1="187.1" y2="227.1" /><text fill="black" font-family="sans-serif" font-size="28" x="811.15" y="207.1">40 mm</text><line stroke="black" stroke-linecap="square" stroke-opacity="1.0" stroke-width="2.5" x1="806.15" x2="786.15" y1="187.1" y2="187.1" /><line stroke="black" stroke-linecap="square" stroke-opacity="1.0" stroke-width="2.5" x1="806.15" x2="786.15" y1="227.1" y2="227.1" /><polyline fill="none" marker-start="url(#id119)" points="700,500 786.602540378,550.0 994.602540378,550.0" stroke="black" stroke-width="2.5" /><text fill="black" font-family="sans-serif" font-size="28" x="807.402540378" y="532.0">Beam ISMB 500</text><text fill="black" font-family="sans-serif" font-size="28" x="807.402540378" y="583.0" /><polyline fill="none" marker-start="url(#id120)" points="350.0,0.0 490.0,-140.0 698.0,-140.0" stroke="black" stroke-width="2.5" /><text fill="black" font-family="sans-serif" font-size="28" x="510.8" y="-158.0">Beam ISMB 300</text><text fill="black" font-family="sans-serif" font-size="28" x="510.8" y="-107.0"> </text><polyline fill="none" marker-start="url(#id121)" points="341.15,97.1 481.15,-42.9 721.15,-42.9" stroke="black" stroke-width="2.5" /><text fill="black" font-family="sans-serif" font-size="28" x="505.15" y="-60.9">PLT. 200x100x10</text><text fill="black" font-family="sans-serif" font-size="28" x="505.15" y="-9.9" /><polyline fill="none" marker-start="url(#id122)" points="346.15,187.1 679.384534906,420.433333333 1079.38453491,420.433333333" stroke="black" stroke-width="2.5" /><text fill="black" font-family="sans-serif" font-size="28" x="719.384534906" y="402.433333333">3 nos 20Ø holes</text><text fill="black" font-family="sans-serif" font-size="28" x="719.384534906" y="453.433333333">for M20 bolts (grade 8.8)</text><polyline fill="none" marker-end="url(#id124)" marker-start="url(#id123)" points="332.15,157.1 707.438711089,332.1 963.438711089,332.1" stroke="black" stroke-width="2.5" /><text fill="black" font-family="sans-serif" font-size="28" x="733.038711089" y="314.1">          z 8 mm</text><text fill="black" font-family="sans-serif" font-size="28" x="733.038711089" y="365.1" /><text fill="black" font-family="sans-serif" font-size="30" x="350.0" y="627.272727273">Side view (Sec B-B)</text></svg>