<?xml version="1.0" encoding="utf-8" ?>
<svg baseProfile="full" height="100%" version="1.1" viewBox="-50 -300 950 1260.0" width="100%" xmlns="http://www.w3.org/2000/svg" xmlns:ev="http://www.w3.org/2001/xml-events" xmlns:xlink="http://www.w3.org/1999/xlink"><defs><marker id="id125" markerHeight="10" markerWidth="10" orient="auto" refX="0" refY="5"><path d="M 0 0 L 10 5 L 0 10 z" fill="blue" stroke="black" /></marker><marker id="id126" markerHeight="10" markerWidth="10" orient="auto" refX="0" refY="5"><path d="M 0 0 L 10 5 L 0 10 z" fill="blue" stroke="black" /></marker><marker id="id127" markerHeight="10" markerWidth="10" orient="auto" refX="0" refY="5"><path d="M 0 0 L 10 5 L 0 10 z" fill="blue" stroke="black" /></marker><marker id="id128" markerHeight="10" markerWidth="10" orient="auto" refX="0" refY="5"><path d="M 0 0 L 10 5 L 0 10 z" fill="blue" stroke="black" /></marker><marker id="id129" markerHeight="30" markerWidth="30" orient="auto" refX="8" refY="3"><path d=" M0,0 L3,3 L0,6 L8,3 L0,0" fill="black" /></marker><marker id="id130" markerHeight="20" markerWidth="30" orient="auto" refX="0" refY="3"><path d=" M0,3 L8,6 L5,3 L8,0 L0,3" fill="black" /></marker><marker id="id131" markerHeight="20" markerWidth="30" orient="auto" refX="0" refY="3"><path d=" M0,3 L8,6 L5,3 L8,0 L0,3" fill="black" /></marker><marker id="id132" markerHeight="20" markerWidth="30" orient="auto" refX="0" refY="3"><path d=" M0,3 L8,6 L5,3 L8,0 L0,3" fill="black" /></marker><marker id="id133" markerHeight="20" markerWidth="30" orient="auto" refX="0" refY="3"><path d=" M0,3 L8,6 L5,3 L8,0 L0,3" fill="black" /></marker><marker id="id134" markerHeight="20" markerWidth="30" orient="auto" refX="0" refY="3"><path d=" M0,3 L8,6 L5,3 L8,0 L0,3" fill="black" /></marker><marker id="id135" markerHeight="20" markerWidth="30" orient="auto" refX="0" refY="3"><path d=" M0,3 L8,6 L5,3 L8,0 L0,3" fill="black" /></marker><marker id="id136" markerHeight="15" markerWidth="15" orient="auto" refX="45" refY="7.5"><path d="M 0 0 L 8 7.5 L 0 15 z" fill="none" stroke="black" /></marker><marker id="id137" markerHeight="30" markerWidth="30" orient="auto" refX="8" refY="3"><path d=" M0,0 L3,3 L0,6 L8,3 L0,0" fill="black" /></marker><marker id="id138" markerHeight="20" markerWidth="30" orient="auto" refX="0" refY="3"><path d=" M0,3 L8,6 L5,3 L8,0 L0,3" fill="black" /></marker></defs><polyline fill="none" points="0,0 180,0 180,700 0,700 0,0" stroke="blue" stroke-width="2.5" /><line stroke="blue" stroke-linecap="square" stroke-width="2.5" x1="84.9" x2="84.9" y1="0.0" y2="700.0" /><line stroke="blue" stroke-linecap="square" stroke-width="2.5" x1="95.1" x2="95.1" y1="0.0" y2="700.0" /><polyline fill="none" points="190.0,280.0 465.1,280.0 465.1,420.0 190.0,420.0 190.0,280.0" stroke="blue" stroke-width="2.5" /><line stroke="blue" stroke-linecap="square" stroke-width="2.5" x1="180.0" x2="190.0" y1="280.0" y2="280.0" /><line stroke="blue" stroke-linecap="square" stroke-width="2.5" x1="180.0" x2="190.0" y1="420.0" y2="420.0" /><line stroke="red" stroke-dasharray="5 5" stroke-linecap="square" stroke-width="2.5" x1="190.0" x2="465.1" y1="346.15" y2="346.15" /><line stroke="red" stroke-dasharray="5 5" stroke-linecap="square" stroke-width="2.5" x1="190.0" x2="465.1" y1="353.85" y2="353.85" /><line stroke="blue" stroke-linecap="square" stroke-width="2.5" x1="180.0" x2="190.0" y1="346.15" y2="346.15" /><line stroke="blue" stroke-linecap="square" stroke-width="2.5" x1="180.0" x2="190.0" y1="353.85" y2="353.85" /><polyline fill="none" points="180.0,280.0 115.1,280.0 115.1,420.0 180.0,420.0" stroke="red" stroke-dasharray="[5, 5]" stroke-linecap="square" stroke-width="2.5" /><polyline fill="none" points="180.0,353.85 95.1,353.85 95.1,363.85 180.0,363.85" stroke="red" stroke-dasharray="[5, 5]" stroke-linecap="square" stroke-width="2.5" /><line stroke="blue" stroke-linecap="square" stroke-width="2.5" x1="180.0" x2="190.0" y1="363.85" y2="363.85" /><line stroke="red" stroke-dasharray="5 5" stroke-linecap="square" stroke-width="2.5" x1="115.1" x2="180.0" y1="346.15" y2="346.15" /><polyline fill="none" points="190.0,363.85 195.1,363.85 195.1,353.85" stroke="red" stroke-dasharray="[5, 5]" stroke-linecap="square" stroke-width="2.5" /><polyline fill="black" points="97.6,351.35 105.6,351.35 97.6,343.35 97.6,351.35" stroke="black" stroke-width="2.5" /><polyline fill="black" points="97.6,366.35 97.6,374.35 105.6,366.35 97.6,366.35" stroke="black" stroke-width="2.5" /><rect fill="black" height="17.7" stroke="black" stroke-width="2.5" width="20" x="145.1" y="346.15" /><line stroke="black" stroke-linecap="square" stroke-width="2.5" x1="155.1" x2="155.1" y1="336.15" y2="373.85" /><line marker-end="url(#id125)" stroke="black" stroke-linecap="square" stroke-width="2.5" x1="860" x2="810" y1="-20" y2="-20" /><text fill="black" font-family="sans-serif" font-size="52" x="740" y="0">B</text><line marker-end="url(#id126)" stroke="black" stroke-linecap="square" stroke-width="2.5" x1="860" x2="810" y1="720" y2="720" /><text fill="black" font-family="sans-serif" font-size="52" x="740" y="740">B</text><line stroke="#666666" stroke-linecap="square" stroke-width="1.0" x1="860" x2="860" y1="-20" y2="720" /><line marker-end="url(#id127)" stroke="black" stroke-linecap="square" stroke-width="2.5" x1="-20" x2="-20" y1="800" y2="750" /><text fill="black" font-family="sans-serif" font-size="52" x="-45" y="700">C</text><line marker-end="url(#id128)" stroke="black" stroke-linecap="square" stroke-width="2.5" x1="500" x2="500" y1="800" y2="750" /><text fill="black" font-family="sans-serif" font-size="52" x="505" y="700">C</text><line stroke="#666666" stroke-linecap="square" stroke-width="1.0" x1="-20" x2="500" y1="800" y2="800" /><line stroke="#D8D8D8" stroke-linecap="square" stroke-opacity="0.7" stroke-width="2.5" x1="195.1" x2="195.1" y1="346.15" y2="-143.85" /><line stroke="#D8D8D8" stroke-linecap="square" stroke-opacity="0.7" stroke-width="2.5" x1="155.1" x2="155.1" y1="346.15" y2="-143.85" /><line marker-end="url(#id129)" marker-start="url(#id130)" stroke="black" stroke-linecap="square" stroke-width="2.5" x1="155.1" x2="195.1" y1="-153.85" y2="-153.85" /><text fill="black" font-family="sans-serif" font-size="28" x="175.1" y="-173.85">40 mm</text><line stroke="black" stroke-linecap="square" stroke-opacity="1.0" stroke-width="2.5" x1="155.1" x2="155.1" y1="-163.85" y2="-143.85" /><line stroke="black" stroke-linecap="square" stroke-opacity="1.0" stroke-width="2.5" x1="195.1" x2="195.1" y1="-163.85" y2="-143.85" /><line stroke="#D8D8D8" stroke-linecap="square" stroke-opacity="0.7" stroke-width="2.5" x1="155.1" x2="155.1" y1="346.15" y2="-53.85" /><polyline fill="none" marker-start="url(#id131)" points="290.1,280.0 347.835026919,180.0 555.835026919,180.0" stroke="black" stroke-width="2.5" /><text fill="black" font-family="sans-serif" font-size="28" x="368.635026919" y="162.0">Beam ISMB 300</text><text fill="black" font-family="sans-serif" font-size="28" x="368.635026919" y="213.0" /><polyline fill="none" marker-start="url(#id132)" points="90,700 90.0,750.0 330.0,750.0" stroke="black" stroke-width="2.5" /><text fill="black" font-family="sans-serif" font-size="28" x="114.0" y="732.0">Column ISMB 500</text><text fill="black" font-family="sans-serif" font-size="28" x="114.0" y="783.0"> </text><polyline fill="none" marker-start="url(#id133)" points="195.1,363.85 310.570053838,563.85 550.570053838,563.85" stroke="black" stroke-width="2.5" /><text fill="black" font-family="sans-serif" font-size="28" x="334.570053838" y="545.85">PLT. 200x100x10</text><text fill="black" font-family="sans-serif" font-size="28" x="334.570053838" y="596.85" /><polyline fill="none" marker-start="url(#id134)" points="155.1,346.15 328.305080757,46.15 728.305080757,46.15" stroke="black" stroke-width="2.5" /><text fill="black" font-family="sans-serif" font-size="28" x="368.305080757" y="28.15">3 nos 20Ø holes</text><text fill="black" font-family="sans-serif" font-size="28" x="368.305080757" y="79.15">for M20 bolts (grade 8.8)</text><polyline fill="none" marker-end="url(#id136)" marker-start="url(#id135)" points="95.1,371.85 239.437567297,621.85 495.437567297,621.85" stroke="black" stroke-width="2.5" /><text fill="black" font-family="sans-serif" font-size="28" x="265.037567297" y="603.85">          z 8 mm</text><text fill="black" font-family="sans-serif" font-size="28" x="265.037567297" y="654.85" /><line stroke="black" stroke-linecap="square" stroke-width="2.5" x1="95.1" x2="95.1" y1="-240.0" y2="-260.0" /><line stroke="black" stroke-linecap="square" stroke-width="2.5" x1="115.1" x2="115.1" y1="-240.0" y2="-260.0" /><line marker-end="url(#id137)" stroke="black" stroke-linecap="square" stroke-width="2.5" x1="45.1" x2="95.1" y1="-250.0" y2="-250.0" /><line marker-end="url(#id137)" stroke="black" stroke-linecap="butt" stroke-width="2.5" x1="165.1" x2="115.1" y1="-250.0" y2="-250.0" /><text fill="black" font-family="sans-serif" font-size="28" x="175.1" y="-250.0">20 mm</text><line stroke="#D8D8D8" stroke-linecap="square" stroke-opacity="0.7" stroke-width="2.5" x1="95.1" x2="95.1" y1="0.0" y2="-240.0" /><line stroke="#D8D8D8" stroke-linecap="square" stroke-opacity="0.7" stroke-width="2.5" x1="115.1" x2="115.1" y1="280.0" y2="-240.0" /><text fill="black" font-family="sans-serif" font-size="32" x="260" y="900">Top view (Sec A-A)</text></svg>