<?xml version="1.0" encoding="utf-8" ?>
<svg baseProfile="full" height="100%" version="1.1" viewBox="-500 -350 1500 1350" width="100%" xmlns="http://www.w3.org/2000/svg" xmlns:ev="http://www.w3.org/2001/xml-events" xmlns:xlink="http://www.w3.org/1999/xlink"><defs><marker id="id1" markerHeight="10" markerWidth="10" orient="auto" refX="0" refY="5"><path d="M 0 0 L 10 5 L 0 10 z" fill="blue" stroke="black" /></marker><marker id="id2" markerHeight="10" markerWidth="10" orient="auto" refX="0" refY="5"><path d="M 0 0 L 10 5 L 0 10 z" fill="blue" stroke="black" /></marker><marker id="id3" markerHeight="30" markerWidth="30" orient="auto" refX="8" refY="3"><path d=" M0,0 L3,3 L0,6 L8,3 L0,0" fill="black" /></marker><marker id="id4" markerHeight="20" markerWidth="30" orient="auto" refX="0" refY="3"><path d=" M0,3 L8,6 L5,3 L8,0 L0,3" fill="black" /></marker><marker id="id5" markerHeight="30" markerWidth="30" orient="auto" refX="8" refY="3"><path d=" M0,0 L3,3 L0,6 L8,3 L0,0" fill="black" /></marker><marker id="id6" markerHeight="20" markerWidth="30" orient="auto" refX="0" refY="3"><path d=" M0,3 L8,6 L5,3 L8,0 L0,3" fill="black" /></marker><marker id="id7" markerHeight="30" markerWidth="30" orient="auto" refX="8" refY="3"><path d=" M0,0 L3,3 L0,6 L8,3 L0,0" fill="black" /></marker><marker id="id8" markerHeight="20" markerWidth="30" orient="auto" refX="0" refY="3"><path d=" M0,3 L8,6 L5,3 L8,0 L0,3" fill="black" /></marker><marker id="id9" markerHeight="30" markerWidth="30" orient="auto" refX="8" refY="3"><path d=" M0,0 L3,3 L0,6 L8,3 L0,0" fill="black" /></marker><marker id="id10" markerHeight="20" markerWidth="30" orient="auto" refX="0" refY="3"><path d=" M0,3 L8,6 L5,3 L8,0 L0,3" fill="black" /></marker><marker id="id11" markerHeight="30" markerWidth="30" orient="auto" refX="8" refY="3"><path d=" M0,0 L3,3 L0,6 L8,3 L0,0" fill="black" /></marker><marker id="id12" markerHeight="20" markerWidth="30" orient="auto" refX="0" refY="3"><path d=" M0,3 L8,6 L5,3 L8,0 L0,3" fill="black" /></marker><marker id="id13" markerHeight="30" markerWidth="30" orient="auto" refX="8" refY="3"><path d=" M0,0 L3,3 L0,6 L8,3 L0,0" fill="black" /></marker><marker id="id14" markerHeight="20" markerWidth="30" orient="auto" refX="0" refY="3"><path d=" M0,3 L8,6 L5,3 L8,0 L0,3" fill="black" /></marker><marker id="id15" markerHeight="30" markerWidth="30" orient="auto" refX="8" refY="3"><path d=" M0,0 L3,3 L0,6 L8,3 L0,0" fill="black" /></marker><marker id="id16" markerHeight="20" markerWidth="30" orient="auto" refX="0" refY="3"><path d=" M0,3 L8,6 L5,3 L8,0 L0,3" fill="black" /></marker><marker id="id17" markerHeight="30" markerWidth="30" orient="auto" refX="8" refY="3"><path d=" M0,0 L3,3 L0,6 L8,3 L0,0" fill="black" /></marker><marker id="id18" markerHeight="20" markerWidth="30" orient="auto" refX="0" refY="3"><path d=" M0,3 L8,6 L5,3 L8,0 L0,3" fill="black" /></marker><marker id="id19" markerHeight="30" markerWidth="30" orient="auto" refX="8" refY="3"><path d=" M0,0 L3,3 L0,6 L8,3 L0,0" fill="black" /></marker><marker id="id20" markerHeight="20" markerWidth="30" orient="auto" refX="0" refY="3"><path d=" M0,3 L8,6 L5,3 L8,0 L0,3" fill="black" /></marker><marker id="id21" markerHeight="30" markerWidth="30" orient="auto" refX="8" refY="3"><path d=" M0,0 L3,3 L0,6 L8,3 L0,0" fill="black" /></marker><marker id="id22" markerHeight="20" markerWidth="30" orient="auto" refX="0" refY="3"><path d=" M0,3 L8,6 L5,3 L8,0 L0,3" fill="black" /></marker><marker id="id23" markerHeight="20" markerWidth="30" orient="auto" refX="0" refY="3"><path d=" M0,3 L8,6 L5,3 L8,0 L0,3" fill="black" /></marker><marker id="id24" markerHeight="20" markerWidth="30" orient="auto" refX="0" refY="3"><path d=" M0,3 L8,6 L5,3 L8,0 L0,3" fill="black" /></marker><marker id="id25" markerHeight="20" markerWidth="30" orient="auto" refX="0" refY="3"><path d=" M0,3 L8,6 L5,3 L8,0 L0,3" fill="black" /></marker><marker id="id26" markerHeight="20" markerWidth="30" orient="auto" refX="0" refY="3"><path d=" M0,3 L8,6 L5,3 L8,0 L0,3" fill="black" /></marker><marker id="id27" markerHeight="20" markerWidth="30" orient="auto" refX="0" refY="3"><path d=" M0,3 L8,6 L5,3 L8,0 L0,3" fill="black" /></marker></defs><line marker-end="url(#id1)" stroke="black" stroke-linecap="square" stroke-width="2.5" x1="0" x2="0" y1="-320" y2="-270" /><text fill="black" font-family="sans-serif" font-size="52" x="-10" y="-190">A</text><line marker-end="url(#id2)" stroke="black" stroke-linecap="square" stroke-width="2.5" x1="465.1" x2="465.1" y1="-320.0" y2="-270.0" /><text fill="black" font-family="sans-serif" font-size="52" x="455.1" y="-190.0">A</text><line stroke="#666666" stroke-linecap="square" stroke-width="1.0" x1="0" x2="465.1" y1="-320" y2="-320.0" /><polyline fill="none" points="0,0 180,0 180.0,17.2 95.1,17.2 95.1,482.8 180.0,482.8 180.0,500.0 0.0,500.0 0.0,482.8 84.9,482.8 84.9,17.2 0.0,17.2 0,0" stroke="blue" stroke-width="2.5" /><polyline fill="none" points="190.0,17.2 190,0 465.1,0.0 465.1,300.0 115.1,300.0 115.1,286.9 115.1,214.2" stroke="blue" stroke-width="2.5" /><line stroke="red" stroke-dasharray="5 5" stroke-linecap="square" stroke-width="2.5" x1="115.1" x2="115.1" y1="34.2" y2="214.2" /><line stroke="blue" stroke-linecap="square" stroke-width="2.5" x1="190.0" x2="465.1" y1="13.1" y2="13.1" /><line stroke="blue" stroke-linecap="square" stroke-width="2.5" x1="115.1" x2="465.1" y1="286.9" y2="286.9" /><rect fill="none" height="180" stroke="blue" stroke-width="2.5" width="8" x="95.1" y="34.2" /><rect fill="none" height="180" stroke="blue" stroke-width="2.5" width="112" x="103.1" y="34.2" /><path d="M 190.0 17.2 A 17.0 17.0 , 0 , 0 , 1 , 173.0 34.2" fill="none" stroke="blue" stroke-width="2.5" /><circle cx="185.1" cy="64.2" fill="none" r="8" stroke="blue" stroke-width="1.5" /><line stroke="red" stroke-linecap="square" stroke-width="2.0" x1="173.1" x2="197.1" y1="64.2" y2="64.2" /><line stroke="red" stroke-linecap="square" stroke-width="2.0" x1="185.1" x2="185.1" y1="52.2" y2="76.2" /><circle cx="145.1" cy="64.2" fill="none" r="8" stroke="blue" stroke-width="1.5" /><line stroke="red" stroke-linecap="square" stroke-width="2.0" x1="133.1" x2="157.1" y1="64.2" y2="64.2" /><line stroke="red" stroke-linecap="square" stroke-width="2.0" x1="145.1" x2="145.1" y1="52.2" y2="76.2" /><circle cx="185.1" cy="104.2" fill="none" r="8" stroke="blue" stroke-width="1.5" /><line stroke="red" stroke-linecap="square" stroke-width="2.0" x1="173.1" x2="197.1" y1="104.2" y2="104.2" /><line stroke="red" stroke-linecap="square" stroke-width="2.0" x1="185.1" x2="185.1" y1="92.2" y2="116.2" /><circle cx="145.1" cy="104.2" fill="none" r="8" stroke="blue" stroke-width="1.5" /><line stroke="red" stroke-linecap="square" stroke-width="2.0" x1="133.1" x2="157.1" y1="104.2" y2="104.2" /><line stroke="red" stroke-linecap="square" stroke-width="2.0" x1="145.1" x2="145.1" y1="92.2" y2="116.2" /><circle cx="185.1" cy="144.2" fill="none" r="8" stroke="blue" stroke-width="1.5" /><line stroke="red" stroke-linecap="square" stroke-width="2.0" x1="173.1" x2="197.1" y1="144.2" y2="144.2" /><line stroke="red" stroke-linecap="square" stroke-width="2.0" x1="185.1" x2="185.1" y1="132.2" y2="156.2" /><circle cx="145.1" cy="144.2" fill="none" r="8" stroke="blue" stroke-width="1.5" /><line stroke="red" stroke-linecap="square" stroke-width="2.0" x1="133.1" x2="157.1" y1="144.2" y2="144.2" /><line stroke="red" stroke-linecap="square" stroke-width="2.0" x1="145.1" x2="145.1" y1="132.2" y2="156.2" /><circle cx="185.1" cy="184.2" fill="none" r="8" stroke="blue" stroke-width="1.5" /><line stroke="red" stroke-linecap="square" stroke-width="2.0" x1="173.1" x2="197.1" y1="184.2" y2="184.2" /><line stroke="red" stroke-linecap="square" stroke-width="2.0" x1="185.1" x2="185.1" y1="172.2" y2="196.2" /><circle cx="145.1" cy="184.2" fill="none" r="8" stroke="blue" stroke-width="1.5" /><line stroke="red" stroke-linecap="square" stroke-width="2.0" x1="133.1" x2="157.1" y1="184.2" y2="184.2" /><line stroke="red" stroke-linecap="square" stroke-width="2.0" x1="145.1" x2="145.1" y1="172.2" y2="196.2" /><rect fill="black" height="16" stroke="black" stroke-width="2.0" width="18.2" x="84.9" y="56.2" /><line stroke="black" stroke-linecap="square" stroke-width="2.0" x1="74.9" x2="120.1" y1="64.2" y2="64.2" /><rect fill="black" height="16" stroke="black" stroke-width="2.0" width="18.2" x="84.9" y="96.2" /><line stroke="black" stroke-linecap="square" stroke-width="2.0" x1="74.9" x2="120.1" y1="104.2" y2="104.2" /><rect fill="black" height="16" stroke="black" stroke-width="2.0" width="18.2" x="84.9" y="136.2" /><line stroke="black" stroke-linecap="square" stroke-width="2.0" x1="74.9" x2="120.1" y1="144.2" y2="144.2" /><rect fill="black" height="16" stroke="black" stroke-width="2.0" width="18.2" x="84.9" y="176.2" /><line stroke="black" stroke-linecap="square" stroke-width="2.0" x1="74.9" x2="120.1" y1="184.2" y2="184.2" /><line stroke="#D8D8D8" stroke-linecap="square" stroke-opacity="0.7" stroke-width="2.5" x1="215.1" x2="675.1" y1="34.2" y2="34.2" /><line stroke="#D8D8D8" stroke-linecap="square" stroke-opacity="0.7" stroke-width="2.5" x1="215.1" x2="675.1" y1="214.2" y2="214.2" /><line marker-end="url(#id3)" marker-start="url(#id4)" stroke="black" stroke-linecap="square" stroke-width="2.5" x1="565.1" x2="565.1" y1="34.2" y2="214.2" /><text fill="black" font-family="sans-serif" font-size="28" x="575.1" y="124.2">180</text><line stroke="black" stroke-linecap="square" stroke-opacity="1.0" stroke-width="2.5" x1="575.1" x2="555.1" y1="34.2" y2="34.2" /><line stroke="black" stroke-linecap="square" stroke-opacity="1.0" stroke-width="2.5" x1="575.1" x2="555.1" y1="214.2" y2="214.2" /><line stroke="#D8D8D8" stroke-linecap="square" stroke-opacity="0.7" stroke-width="2.5" x1="185.1" x2="685.1" y1="64.2" y2="64.2" /><line stroke="#D8D8D8" stroke-linecap="square" stroke-opacity="0.7" stroke-width="2.5" x1="185.1" x2="685.1" y1="184.2" y2="184.2" /><line marker-end="url(#id5)" marker-start="url(#id6)" stroke="black" stroke-linecap="square" stroke-width="2.5" x1="685.1" x2="685.1" y1="64.2" y2="184.2" /><text fill="black" font-family="sans-serif" font-size="28" x="695.1" y="124.2">3@40 c/c</text><line stroke="black" stroke-linecap="square" stroke-opacity="1.0" stroke-width="2.5" x1="695.1" x2="675.1" y1="64.2" y2="64.2" /><line stroke="black" stroke-linecap="square" stroke-opacity="1.0" stroke-width="2.5" x1="695.1" x2="675.1" y1="184.2" y2="184.2" /><line marker-end="url(#id7)" marker-start="url(#id8)" stroke="black" stroke-linecap="square" stroke-width="2.5" x1="685.1" x2="685.1" y1="64.2" y2="34.2" /><text fill="black" font-family="sans-serif" font-size="28" x="695.1" y="49.2">30</text><line stroke="black" stroke-linecap="square" stroke-opacity="1.0" stroke-width="2.5" x1="695.1" x2="675.1" y1="64.2" y2="64.2" /><line stroke="black" stroke-linecap="square" stroke-opacity="1.0" stroke-width="2.5" x1="695.1" x2="675.1" y1="34.2" y2="34.2" /><line marker-end="url(#id9)" marker-start="url(#id10)" stroke="black" stroke-linecap="square" stroke-width="2.5" x1="685.1" x2="685.1" y1="184.2" y2="214.2" /><text fill="black" font-family="sans-serif" font-size="28" x="695.1" y="199.2">30</text><line stroke="black" stroke-linecap="square" stroke-opacity="1.0" stroke-width="2.5" x1="695.1" x2="675.1" y1="184.2" y2="184.2" /><line stroke="black" stroke-linecap="square" stroke-opacity="1.0" stroke-width="2.5" x1="695.1" x2="675.1" y1="214.2" y2="214.2" /><line stroke="#D8D8D8" stroke-linecap="square" stroke-opacity="0.7" stroke-width="2.5" x1="145.1" x2="145.1" y1="34.2" y2="-100.0" /><line marker-end="url(#id11)" marker-start="url(#id12)" stroke="black" stroke-linecap="square" stroke-width="2.5" x1="185.1" x2="145.1" y1="-100.0" y2="-100.0" /><text fill="black" font-family="sans-serif" font-size="28" x="165.1" y="-120.0">40</text><line stroke="black" stroke-linecap="square" stroke-opacity="1.0" stroke-width="2.5" x1="185.1" x2="185.1" y1="-110.0" y2="-90.0" /><line stroke="black" stroke-linecap="square" stroke-opacity="1.0" stroke-width="2.5" x1="145.1" x2="145.1" y1="-110.0" y2="-90.0" /><line stroke="#D8D8D8" stroke-linecap="square" stroke-opacity="0.7" stroke-width="2.5" x1="185.1" x2="185.1" y1="34.2" y2="-180.0" /><line stroke="#D8D8D8" stroke-linecap="square" stroke-opacity="0.7" stroke-width="2.5" x1="215.1" x2="215.1" y1="34.2" y2="-180.0" /><line marker-end="url(#id13)" marker-start="url(#id14)" stroke="black" stroke-linecap="square" stroke-width="2.5" x1="215.1" x2="185.1" y1="-180.0" y2="-180.0" /><text fill="black" font-family="sans-serif" font-size="28" x="200.1" y="-200.0">30</text><line stroke="black" stroke-linecap="square" stroke-opacity="1.0" stroke-width="2.5" x1="215.1" x2="215.1" y1="-190.0" y2="-170.0" /><line stroke="black" stroke-linecap="square" stroke-opacity="1.0" stroke-width="2.5" x1="185.1" x2="185.1" y1="-190.0" y2="-170.0" /><line stroke="#D8D8D8" stroke-linecap="square" stroke-opacity="0.7" stroke-width="2.5" x1="0" x2="-30" y1="0" y2="0" /><line stroke="#D8D8D8" stroke-linecap="square" stroke-opacity="0.7" stroke-width="2.5" x1="115.1" x2="-30.0" y1="34.2" y2="34.2" /><line marker-end="url(#id15)" marker-start="url(#id16)" stroke="black" stroke-linecap="square" stroke-width="2.5" x1="-30.0" x2="-30.0" y1="0.0" y2="34.2" /><text fill="black" font-family="sans-serif" font-size="28" x="-80.0" y="17.1">34</text><line stroke="black" stroke-linecap="square" stroke-opacity="1.0" stroke-width="2.5" x1="-40.0" x2="-20.0" y1="0.0" y2="0.0" /><line stroke="black" stroke-linecap="square" stroke-opacity="1.0" stroke-width="2.5" x1="-40.0" x2="-20.0" y1="34.2" y2="34.2" /><line stroke="#D8D8D8" stroke-linecap="square" stroke-opacity="0.7" stroke-width="2.5" x1="95.1" x2="-8.75" y1="34.2" y2="34.2" /><line stroke="#D8D8D8" stroke-linecap="square" stroke-opacity="0.7" stroke-width="2.5" x1="84.9" x2="-11.25" y1="64.2" y2="64.2" /><line marker-end="url(#id17)" marker-start="url(#id18)" stroke="black" stroke-linecap="square" stroke-width="2.5" x1="-11.25" x2="-11.25" y1="34.2" y2="64.2" /><text fill="black" font-family="sans-serif" font-size="28" x="-61.25" y="49.2">30</text><line stroke="black" stroke-linecap="square" stroke-opacity="1.0" stroke-width="2.5" x1="-21.25" x2="-1.25" y1="34.2" y2="34.2" /><line stroke="black" stroke-linecap="square" stroke-opacity="1.0" stroke-width="2.5" x1="-21.25" x2="-1.25" y1="64.2" y2="64.2" /><line stroke="#D8D8D8" stroke-linecap="square" stroke-opacity="0.7" stroke-width="2.5" x1="84.9" x2="-11.25" y1="184.2" y2="184.2" /><line marker-end="url(#id19)" marker-start="url(#id20)" stroke="black" stroke-linecap="square" stroke-width="2.5" x1="-11.25" x2="-11.25" y1="64.2" y2="184.2" /><text fill="black" font-family="sans-serif" font-size="28" x="-161.25" y="124.2">3@40 c/c</text><line stroke="black" stroke-linecap="square" stroke-opacity="1.0" stroke-width="2.5" x1="-21.25" x2="-1.25" y1="64.2" y2="64.2" /><line stroke="black" stroke-linecap="square" stroke-opacity="1.0" stroke-width="2.5" x1="-21.25" x2="-1.25" y1="184.2" y2="184.2" /><line stroke="#D8D8D8" stroke-linecap="square" stroke-opacity="0.7" stroke-width="2.5" x1="95.1" x2="-8.75" y1="214.2" y2="214.2" /><line marker-end="url(#id21)" marker-start="url(#id22)" stroke="black" stroke-linecap="square" stroke-width="2.5" x1="-11.25" x2="-11.25" y1="214.2" y2="184.2" /><text fill="black" font-family="sans-serif" font-size="28" x="-61.25" y="199.2">30</text><line stroke="black" stroke-linecap="square" stroke-opacity="1.0" stroke-width="2.5" x1="-21.25" x2="-1.25" y1="214.2" y2="214.2" /><line stroke="black" stroke-linecap="square" stroke-opacity="1.0" stroke-width="2.5" x1="-21.25" x2="-1.25" y1="184.2" y2="184.2" /><polyline fill="none" marker-start="url(#id23)" points="465.1,300.0 551.702540378,350.0 759.702540378,350.0" stroke="black" stroke-width="2.5" /><text fill="black" font-family="sans-serif" font-size="28" x="572.502540378" y="332.0">Beam ISMB 300</text><text fill="black" font-family="sans-serif" font-size="28" x="572.502540378" y="368.0" /><polyline fill="none" marker-start="url(#id24)" points="0,0 -100.0,-100.0 -308.0,-100.0" stroke="black" stroke-width="2.5" /><text fill="black" font-family="sans-serif" font-size="28" x="-287.2" y="-118.0">Beam ISMB 500</text><text fill="black" font-family="sans-serif" font-size="28" x="-328.8" y="-82.0" /><polyline fill="none" marker-start="url(#id25)" points="185.1,64.2 372.1,-122.8 740.1,-122.8" stroke="black" stroke-width="2.5" /><text fill="black" font-family="sans-serif" font-size="28" x="408.9" y="-140.8">8 nos 16Ø holes</text><text fill="black" font-family="sans-serif" font-size="28" x="408.9" y="-89.8">for M16bolts(grade 4.8)</text><polyline fill="none" marker-start="url(#id26)" points="84.9,184.2 38.7119784648,264.2 -329.288021535,264.2" stroke="black" stroke-width="2.5" /><text fill="black" font-family="sans-serif" font-size="28" x="-292.488021535" y="246.2">8 nos 16Ø holes</text><text fill="black" font-family="sans-serif" font-size="28" x="-366.088021535" y="282.2">for M16bolts(grade 4.8)</text><polyline fill="none" marker-start="url(#id27)" points="215.1,214.2 264.884959954,400.0 456.884959954,400.0" stroke="black" stroke-width="2.5" /><text fill="black" font-family="sans-serif" font-size="28" x="284.084959954" y="382.0">ISA.120X80X8</text><text fill="black" font-family="sans-serif" font-size="28" x="284.084959954" y="418.0" /><text fill="black" font-family="sans-serif" font-size="30" x="50" y="990">Front view (Sec C-C)</text><text fill="black" font-family="sans-serif" font-size="30" x="400" y="990">(All distances are in "mm")</text></svg>