<?xml version="1.0" encoding="utf-8" ?>
<svg baseProfile="full" height="100%" version="1.1" viewBox="-200 -250 1200 900" width="100%" xmlns="http://www.w3.org/2000/svg" xmlns:ev="http://www.w3.org/2001/xml-events" xmlns:xlink="http://www.w3.org/1999/xlink"><defs><marker id="id55" markerHeight="10" markerWidth="10" orient="auto" refX="0" refY="5"><path d="M 0 0 L 10 5 L 0 10 z" fill="blue" stroke="black" /></marker><marker id="id56" markerHeight="10" markerWidth="10" orient="auto" refX="0" refY="5"><path d="M 0 0 L 10 5 L 0 10 z" fill="blue" stroke="black" /></marker><marker id="id57" markerHeight="10" markerWidth="10" orient="auto" refX="0" refY="5"><path d="M 0 0 L 10 5 L 0 10 z" fill="blue" stroke="black" /></marker><marker id="id58" markerHeight="10" markerWidth="10" orient="auto" refX="0" refY="5"><path d="M 0 0 L 10 5 L 0 10 z" fill="blue" stroke="black" /></marker><marker id="id59" markerHeight="30" markerWidth="30" orient="auto" refX="8" refY="3"><path d=" M0,0 L3,3 L0,6 L8,3 L0,0" fill="black" /></marker><marker id="id60" markerHeight="20" markerWidth="30" orient="auto" refX="0" refY="3"><path d=" M0,3 L8,6 L5,3 L8,0 L0,3" fill="black" /></marker><marker id="id61" markerHeight="30" markerWidth="30" orient="auto" refX="8" refY="3"><path d=" M0,0 L3,3 L0,6 L8,3 L0,0" fill="black" /></marker><marker id="id62" markerHeight="20" markerWidth="30" orient="auto" refX="0" refY="3"><path d=" M0,3 L8,6 L5,3 L8,0 L0,3" fill="black" /></marker><marker id="id63" markerHeight="30" markerWidth="30" orient="auto" refX="8" refY="3"><path d=" M0,0 L3,3 L0,6 L8,3 L0,0" fill="black" /></marker><marker id="id64" markerHeight="20" markerWidth="30" orient="auto" refX="0" refY="3"><path d=" M0,3 L8,6 L5,3 L8,0 L0,3" fill="black" /></marker><marker id="id65" markerHeight="30" markerWidth="30" orient="auto" refX="8" refY="3"><path d=" M0,0 L3,3 L0,6 L8,3 L0,0" fill="black" /></marker><marker id="id66" markerHeight="20" markerWidth="30" orient="auto" refX="0" refY="3"><path d=" M0,3 L8,6 L5,3 L8,0 L0,3" fill="black" /></marker><marker id="id67" markerHeight="20" markerWidth="30" orient="auto" refX="0" refY="3"><path d=" M0,3 L8,6 L5,3 L8,0 L0,3" fill="black" /></marker><marker id="id68" markerHeight="20" markerWidth="30" orient="auto" refX="0" refY="3"><path d=" M0,3 L8,6 L5,3 L8,0 L0,3" fill="black" /></marker><marker id="id69" markerHeight="20" markerWidth="30" orient="auto" refX="0" refY="3"><path d=" M0,3 L8,6 L5,3 L8,0 L0,3" fill="black" /></marker><marker id="id70" markerHeight="20" markerWidth="30" orient="auto" refX="0" refY="3"><path d=" M0,3 L8,6 L5,3 L8,0 L0,3" fill="black" /></marker><marker id="id71" markerHeight="20" markerWidth="30" orient="auto" refX="0" refY="3"><path d=" M0,3 L8,6 L5,3 L8,0 L0,3" fill="black" /></marker><marker id="id72" markerHeight="30" markerWidth="30" orient="auto" refX="8" refY="3"><path d=" M0,0 L3,3 L0,6 L8,3 L0,0" fill="black" /></marker><marker id="id73" markerHeight="20" markerWidth="30" orient="auto" refX="0" refY="3"><path d=" M0,3 L8,6 L5,3 L8,0 L0,3" fill="black" /></marker></defs><line marker-end="url(#id55)" stroke="black" stroke-linecap="square" stroke-width="2.5" x1="850" x2="800" y1="0" y2="0" /><text fill="black" font-family="sans-serif" font-size="52" x="720" y="20">B</text><line marker-end="url(#id56)" stroke="black" stroke-linecap="square" stroke-width="2.5" x1="850" x2="800" y1="340" y2="340" /><text fill="black" font-family="sans-serif" font-size="52" x="720" y="360">B</text><line stroke="#666666" stroke-linecap="square" stroke-width="1.0" x1="850" x2="850" y1="0" y2="340" /><line marker-end="url(#id57)" stroke="black" stroke-linecap="square" stroke-width="2.5" x1="-50.0" x2="-50.0" y1="417.0" y2="367.0" /><text fill="black" font-family="sans-serif" font-size="52" x="-70.0" y="327.0">C</text><line marker-end="url(#id58)" stroke="black" stroke-linecap="square" stroke-width="2.5" x1="550.0" x2="550.0" y1="417.0" y2="367.0" /><text fill="black" font-family="sans-serif" font-size="52" x="530.0" y="327.0">C</text><line stroke="#666666" stroke-linecap="square" stroke-width="1.0" x1="-50.0" x2="550.0" y1="417.0" y2="417.0" /><polyline fill="none" points="0,0 180,0 180,340 0,340 0,0" stroke="blue" stroke-width="2.5" /><line stroke="red" stroke-dasharray="5 5" stroke-linecap="square" stroke-width="2.5" x1="84.9" x2="84.9" y1="0.0" y2="340.0" /><line stroke="red" stroke-dasharray="5 5" stroke-linecap="square" stroke-width="2.5" x1="95.1" x2="95.1" y1="0.0" y2="340.0" /><polyline fill="none" points="180,100 115.1,100.0 115.1,240.0 180,240" stroke="red" stroke-dasharray="5 5" stroke-width="2.5" /><polyline fill="none" points="180,100 190,100 465.1,100.0 465.1,240.0 190,240 180,240" stroke="blue" stroke-width="2.5" /><line stroke="blue" stroke-linecap="square" stroke-width="2.5" x1="190" x2="190" y1="100" y2="240" /><line stroke="red" stroke-dasharray="5 5" stroke-linecap="square" stroke-width="2.5" x1="115.1" x2="180.0" y1="166.15" y2="166.15" /><line stroke="red" stroke-dasharray="5 5" stroke-linecap="square" stroke-width="2.5" x1="115.1" x2="180.0" y1="173.85" y2="173.85" /><line stroke="blue" stroke-linecap="square" stroke-width="2.5" x1="180.0" x2="190.0" y1="166.15" y2="166.15" /><line stroke="blue" stroke-linecap="square" stroke-width="2.5" x1="180.0" x2="190.0" y1="173.85" y2="173.85" /><line stroke="red" stroke-dasharray="5 5" stroke-linecap="square" stroke-width="2.5" x1="190.0" x2="465.1" y1="166.15" y2="166.15" /><line stroke="red" stroke-dasharray="5 5" stroke-linecap="square" stroke-width="2.5" x1="190.0" x2="465.1" y1="173.85" y2="173.85" /><polyline fill="none" points="95.1,86.15 103.1,86.15 103.1,158.15 215.1,158.15 215.1,166.15 95.1,166.15 95.1,86.15" stroke="red" stroke-dasharray="5 5" stroke-width="2.5" /><polyline fill="none" points="95.1,253.85 103.1,253.85 103.1,181.85 215.1,181.85 215.1,173.85 95.1,173.85 95.1,253.85" stroke="red" stroke-dasharray="5 5" stroke-width="2.5" /><rect fill="black" height="23.7" stroke="black" stroke-width="2.5" width="16" x="177.1" y="158.15" /><line stroke="black" stroke-linecap="square" stroke-width="2.5" x1="185.1" x2="185.1" y1="148.15" y2="191.85" /><rect fill="black" height="23.7" stroke="black" stroke-width="2.5" width="16" x="137.1" y="158.15" /><line stroke="black" stroke-linecap="square" stroke-width="2.5" x1="145.1" x2="145.1" y1="148.15" y2="191.85" /><rect fill="black" height="16" stroke="black" stroke-width="2.5" width="18.2" x="84.9" y="108.15" /><line stroke="black" stroke-linecap="square" stroke-width="2.5" x1="74.9" x2="113.1" y1="116.15" y2="116.15" /><rect fill="black" height="16" stroke="black" stroke-width="2.5" width="18.2" x="84.9" y="215.85" /><line stroke="black" stroke-linecap="square" stroke-width="2.5" x1="74.9" x2="118.6" y1="223.85" y2="223.85" /><line stroke="#D8D8D8" stroke-linecap="square" stroke-opacity="0.7" stroke-width="2.5" x1="95.1" x2="-103.5" y1="86.15" y2="86.15" /><line stroke="#D8D8D8" stroke-linecap="square" stroke-opacity="0.7" stroke-width="2.5" x1="84.9" x2="-105.1" y1="116.15" y2="116.15" /><line marker-end="url(#id59)" marker-start="url(#id60)" stroke="black" stroke-linecap="square" stroke-width="2.5" x1="-105.1" x2="-105.1" y1="86.15" y2="116.15" /><text fill="black" font-family="sans-serif" font-size="28" x="-155.1" y="101.15">30</text><line stroke="black" stroke-linecap="square" stroke-opacity="1.0" stroke-width="2.5" x1="-115.1" x2="-95.1" y1="86.15" y2="86.15" /><line stroke="black" stroke-linecap="square" stroke-opacity="1.0" stroke-width="2.5" x1="-115.1" x2="-95.1" y1="116.15" y2="116.15" /><line stroke="#D8D8D8" stroke-linecap="square" stroke-opacity="0.7" stroke-width="2.5" x1="95.1" x2="-103.5" y1="253.85" y2="253.85" /><line stroke="#D8D8D8" stroke-linecap="square" stroke-opacity="0.7" stroke-width="2.5" x1="84.9" x2="-105.1" y1="223.85" y2="223.85" /><line marker-end="url(#id61)" marker-start="url(#id62)" stroke="black" stroke-linecap="square" stroke-width="2.5" x1="-105.1" x2="-105.1" y1="253.85" y2="223.85" /><text fill="black" font-family="sans-serif" font-size="28" x="-155.1" y="238.85">30</text><line stroke="black" stroke-linecap="square" stroke-opacity="1.0" stroke-width="2.5" x1="-115.1" x2="-95.1" y1="253.85" y2="253.85" /><line stroke="black" stroke-linecap="square" stroke-opacity="1.0" stroke-width="2.5" x1="-115.1" x2="-95.1" y1="223.85" y2="223.85" /><line stroke="#D8D8D8" stroke-linecap="square" stroke-opacity="0.7" stroke-width="2.5" x1="185.1" x2="185.1" y1="158.15" y2="-36.85" /><line stroke="#D8D8D8" stroke-linecap="square" stroke-opacity="0.7" stroke-width="2.5" x1="215.1" x2="215.1" y1="158.15" y2="-36.85" /><line marker-end="url(#id63)" marker-start="url(#id64)" stroke="black" stroke-linecap="square" stroke-width="2.5" x1="185.1" x2="215.1" y1="-36.85" y2="-36.85" /><text fill="black" font-family="sans-serif" font-size="28" x="200.1" y="-46.85">30</text><line stroke="black" stroke-linecap="square" stroke-opacity="1.0" stroke-width="2.5" x1="185.1" x2="185.1" y1="-46.85" y2="-26.85" /><line stroke="black" stroke-linecap="square" stroke-opacity="1.0" stroke-width="2.5" x1="215.1" x2="215.1" y1="-46.85" y2="-26.85" /><line stroke="#D8D8D8" stroke-linecap="square" stroke-opacity="0.7" stroke-width="2.5" x1="145.1" x2="145.1" y1="158.15" y2="-36.85" /><line marker-end="url(#id65)" marker-start="url(#id66)" stroke="black" stroke-linecap="square" stroke-width="2.5" x1="145.1" x2="185.1" y1="-61.85" y2="-61.85" /><text fill="black" font-family="sans-serif" font-size="28" x="165.1" y="-71.85">40</text><line stroke="black" stroke-linecap="square" stroke-opacity="1.0" stroke-width="2.5" x1="145.1" x2="145.1" y1="-71.85" y2="-51.85" /><line stroke="black" stroke-linecap="square" stroke-opacity="1.0" stroke-width="2.5" x1="185.1" x2="185.1" y1="-71.85" y2="-51.85" /><polyline fill="none" marker-start="url(#id67)" points="465.1,170.0 465.1,170.0 673.1,170.0" stroke="black" stroke-width="2.5" /><text fill="black" font-family="sans-serif" font-size="28" x="485.9" y="152.0">Beam ISMB 300</text><text fill="black" font-family="sans-serif" font-size="28" x="485.9" y="188.0" /><polyline fill="none" marker-start="url(#id68)" points="90,0 90.0,-150.0 298.0,-150.0" stroke="black" stroke-width="2.5" /><text fill="black" font-family="sans-serif" font-size="28" x="110.8" y="-168.0">Beam ISMB 500</text><text fill="black" font-family="sans-serif" font-size="28" x="110.8" y="-117.0" /><polyline fill="none" marker-start="url(#id69)" points="215.1,158.15 358.110431111,38.15 566.110431111,38.15" stroke="black" stroke-width="2.5" /><text fill="black" font-family="sans-serif" font-size="28" x="378.910431111" y="20.15">ISA. 120x80x8</text><text fill="black" font-family="sans-serif" font-size="28" x="378.910431111" y="71.15" /><polyline fill="none" marker-start="url(#id70)" points="185.1,158.15 425.1,-81.85 793.1,-81.85" stroke="black" stroke-width="2.5" /><text fill="black" font-family="sans-serif" font-size="28" x="461.9" y="-99.85">8 nos 16Ø holes</text><text fill="black" font-family="sans-serif" font-size="28" x="461.9" y="-48.85">for M16bolts(grade 4.8)</text><polyline fill="none" marker-start="url(#id71)" points="84.9,223.85 214.803810568,298.85 582.803810568,298.85" stroke="black" stroke-width="2.5" /><text fill="black" font-family="sans-serif" font-size="28" x="251.603810568" y="280.85">8 nos 16Ø holes</text><text fill="black" font-family="sans-serif" font-size="28" x="251.603810568" y="316.85">for M16bolts(grade 4.8)</text><line stroke="black" stroke-linecap="square" stroke-width="2.5" x1="180.0" x2="180.0" y1="450.0" y2="450.0" /><line stroke="black" stroke-linecap="square" stroke-width="2.5" x1="200.0" x2="200.0" y1="450.0" y2="450.0" /><line marker-end="url(#id72)" stroke="black" stroke-linecap="square" stroke-width="2.5" x1="130.0" x2="180" y1="440.0" y2="440" /><line marker-end="url(#id72)" stroke="black" stroke-linecap="butt" stroke-width="2.5" x1="250.0" x2="200" y1="440.0" y2="440" /><text fill="black" font-family="sans-serif" font-size="28" x="260.0" y="440.0">20</text><line stroke="#D8D8D8" stroke-linecap="square" stroke-opacity="0.7" stroke-width="2.5" x1="180" x2="180" y1="340" y2="440" /><line stroke="#D8D8D8" stroke-linecap="square" stroke-opacity="0.7" stroke-width="2.5" x1="190" x2="190" y1="240" y2="420" /><text fill="black" font-family="sans-serif" font-size="30" x="150" y="640">Top view (Sec A-A)</text><text fill="black" font-family="sans-serif" font-size="30" x="500" y="640">(All distances are in "mm")</text></svg>