<?xml version="1.0" encoding="utf-8" ?>
<svg baseProfile="full" height="100%" version="1.1" viewBox="-500 -400 1500 1400" width="100%" xmlns="http://www.w3.org/2000/svg" xmlns:ev="http://www.w3.org/2001/xml-events" xmlns:xlink="http://www.w3.org/1999/xlink"><defs><marker id="id28" markerHeight="30" markerWidth="30" orient="auto" refX="8" refY="3"><path d=" M0,0 L3,3 L0,6 L8,3 L0,0" fill="black" /></marker><marker id="id29" markerHeight="20" markerWidth="30" orient="auto" refX="0" refY="3"><path d=" M0,3 L8,6 L5,3 L8,0 L0,3" fill="black" /></marker><marker id="id30" markerHeight="30" markerWidth="30" orient="auto" refX="8" refY="3"><path d=" M0,0 L3,3 L0,6 L8,3 L0,0" fill="black" /></marker><marker id="id31" markerHeight="20" markerWidth="30" orient="auto" refX="0" refY="3"><path d=" M0,3 L8,6 L5,3 L8,0 L0,3" fill="black" /></marker><marker id="id32" markerHeight="30" markerWidth="30" orient="auto" refX="8" refY="3"><path d=" M0,0 L3,3 L0,6 L8,3 L0,0" fill="black" /></marker><marker id="id33" markerHeight="20" markerWidth="30" orient="auto" refX="0" refY="3"><path d=" M0,3 L8,6 L5,3 L8,0 L0,3" fill="black" /></marker><marker id="id34" markerHeight="30" markerWidth="30" orient="auto" refX="8" refY="3"><path d=" M0,0 L3,3 L0,6 L8,3 L0,0" fill="black" /></marker><marker id="id35" markerHeight="20" markerWidth="30" orient="auto" refX="0" refY="3"><path d=" M0,3 L8,6 L5,3 L8,0 L0,3" fill="black" /></marker><marker id="id36" markerHeight="30" markerWidth="30" orient="auto" refX="8" refY="3"><path d=" M0,0 L3,3 L0,6 L8,3 L0,0" fill="black" /></marker><marker id="id37" markerHeight="20" markerWidth="30" orient="auto" refX="0" refY="3"><path d=" M0,3 L8,6 L5,3 L8,0 L0,3" fill="black" /></marker><marker id="id38" markerHeight="30" markerWidth="30" orient="auto" refX="8" refY="3"><path d=" M0,0 L3,3 L0,6 L8,3 L0,0" fill="black" /></marker><marker id="id39" markerHeight="20" markerWidth="30" orient="auto" refX="0" refY="3"><path d=" M0,3 L8,6 L5,3 L8,0 L0,3" fill="black" /></marker><marker id="id40" markerHeight="30" markerWidth="30" orient="auto" refX="8" refY="3"><path d=" M0,0 L3,3 L0,6 L8,3 L0,0" fill="black" /></marker><marker id="id41" markerHeight="20" markerWidth="30" orient="auto" refX="0" refY="3"><path d=" M0,3 L8,6 L5,3 L8,0 L0,3" fill="black" /></marker><marker id="id42" markerHeight="30" markerWidth="30" orient="auto" refX="8" refY="3"><path d=" M0,0 L3,3 L0,6 L8,3 L0,0" fill="black" /></marker><marker id="id43" markerHeight="20" markerWidth="30" orient="auto" refX="0" refY="3"><path d=" M0,3 L8,6 L5,3 L8,0 L0,3" fill="black" /></marker><marker id="id44" markerHeight="30" markerWidth="30" orient="auto" refX="8" refY="3"><path d=" M0,0 L3,3 L0,6 L8,3 L0,0" fill="black" /></marker><marker id="id45" markerHeight="20" markerWidth="30" orient="auto" refX="0" refY="3"><path d=" M0,3 L8,6 L5,3 L8,0 L0,3" fill="black" /></marker><marker id="id46" markerHeight="30" markerWidth="30" orient="auto" refX="8" refY="3"><path d=" M0,0 L3,3 L0,6 L8,3 L0,0" fill="black" /></marker><marker id="id47" markerHeight="20" markerWidth="30" orient="auto" refX="0" refY="3"><path d=" M0,3 L8,6 L5,3 L8,0 L0,3" fill="black" /></marker><marker id="id48" markerHeight="30" markerWidth="30" orient="auto" refX="8" refY="3"><path d=" M0,0 L3,3 L0,6 L8,3 L0,0" fill="black" /></marker><marker id="id49" markerHeight="20" markerWidth="30" orient="auto" refX="0" refY="3"><path d=" M0,3 L8,6 L5,3 L8,0 L0,3" fill="black" /></marker><marker id="id50" markerHeight="20" markerWidth="30" orient="auto" refX="0" refY="3"><path d=" M0,3 L8,6 L5,3 L8,0 L0,3" fill="black" /></marker><marker id="id51" markerHeight="20" markerWidth="30" orient="auto" refX="0" refY="3"><path d=" M0,3 L8,6 L5,3 L8,0 L0,3" fill="black" /></marker><marker id="id52" markerHeight="20" markerWidth="30" orient="auto" refX="0" refY="3"><path d=" M0,3 L8,6 L5,3 L8,0 L0,3" fill="black" /></marker><marker id="id53" markerHeight="20" markerWidth="30" orient="auto" refX="0" refY="3"><path d=" M0,3 L8,6 L5,3 L8,0 L0,3" fill="black" /></marker><marker id="id54" markerHeight="20" markerWidth="30" orient="auto" refX="0" refY="3"><path d=" M0,3 L8,6 L5,3 L8,0 L0,3" fill="black" /></marker></defs><polyline fill="none" points="0,0 340,0 340.0,500.0 0.0,500.0 0,0" stroke="blue" stroke-width="2.5" /><line stroke="blue" stroke-linecap="square" stroke-width="2.5" x1="0.0" x2="340.0" y1="482.8" y2="482.8" /><line stroke="blue" stroke-linecap="square" stroke-width="2.5" x1="0.0" x2="166.15" y1="17.2" y2="17.2" /><line stroke="blue" stroke-linecap="square" stroke-width="2.5" x1="173.85" x2="340.0" y1="17.2" y2="17.2" /><line stroke="red" stroke-dasharray="5 5" stroke-linecap="square" stroke-width="2.5" x1="166.15" x2="173.85" y1="17.2" y2="17.2" /><polyline fill="none" points="240,0 240.0,13.1 173.85,13.1 173.85,286.9 240.0,286.9 240.0,300.0 100.0,300.0 100.0,286.9 166.15,286.9 166.15,13.1 100.0,13.1 100,0" stroke="blue" stroke-width="2.5" /><rect fill="none" height="180" stroke="blue" stroke-width="2.5" width="8" x="173.85" y="34.2" /><rect fill="none" height="180" stroke="blue" stroke-width="2.5" width="72" x="181.85" y="34.2" /><rect fill="none" height="180" stroke="blue" stroke-width="2.5" width="8" x="158.15" y="34.2" /><rect fill="none" height="180" stroke="blue" stroke-width="2.5" width="72" x="86.15" y="34.2" /><rect fill="black" height="16" stroke="none" stroke-width="2.5" width="23.7" x="158.15" y="56.2" /><line stroke="black" stroke-linecap="square" stroke-width="1.5" x1="153.15" x2="186.85" y1="64.2" y2="64.2" /><rect fill="black" height="16" stroke="none" stroke-width="2.5" width="23.7" x="158.15" y="96.2" /><line stroke="black" stroke-linecap="square" stroke-width="1.5" x1="153.15" x2="186.85" y1="104.2" y2="104.2" /><rect fill="black" height="16" stroke="none" stroke-width="2.5" width="23.7" x="158.15" y="136.2" /><line stroke="black" stroke-linecap="square" stroke-width="1.5" x1="153.15" x2="186.85" y1="144.2" y2="144.2" /><rect fill="black" height="16" stroke="none" stroke-width="2.5" width="23.7" x="158.15" y="176.2" /><line stroke="black" stroke-linecap="square" stroke-width="1.5" x1="153.15" x2="186.85" y1="184.2" y2="184.2" /><circle cx="116.15" cy="64.2" fill="none" r="8" stroke="blue" stroke-width="1.5" /><line stroke="red" stroke-dasharray="10 5 1 5" stroke-linecap="square" stroke-width="1.5" x1="128.15" x2="104.15" y1="64.2" y2="64.2" /><line stroke="red" stroke-dasharray="10 5 1 5" stroke-linecap="square" stroke-width="1.5" x1="116.15" x2="116.15" y1="76.2" y2="52.2" /><circle cx="223.85" cy="64.2" fill="none" r="8" stroke="blue" stroke-width="1.5" /><line stroke="red" stroke-dasharray="10 5 1 5" stroke-linecap="square" stroke-width="1.5" x1="235.85" x2="211.85" y1="64.2" y2="64.2" /><line stroke="red" stroke-dasharray="10 5 1 5" stroke-linecap="square" stroke-width="1.5" x1="223.85" x2="223.85" y1="76.2" y2="52.2" /><circle cx="116.15" cy="104.2" fill="none" r="8" stroke="blue" stroke-width="1.5" /><line stroke="red" stroke-dasharray="10 5 1 5" stroke-linecap="square" stroke-width="1.5" x1="128.15" x2="104.15" y1="104.2" y2="104.2" /><line stroke="red" stroke-dasharray="10 5 1 5" stroke-linecap="square" stroke-width="1.5" x1="116.15" x2="116.15" y1="116.2" y2="92.2" /><circle cx="223.85" cy="104.2" fill="none" r="8" stroke="blue" stroke-width="1.5" /><line stroke="red" stroke-dasharray="10 5 1 5" stroke-linecap="square" stroke-width="1.5" x1="235.85" x2="211.85" y1="104.2" y2="104.2" /><line stroke="red" stroke-dasharray="10 5 1 5" stroke-linecap="square" stroke-width="1.5" x1="223.85" x2="223.85" y1="116.2" y2="92.2" /><circle cx="116.15" cy="144.2" fill="none" r="8" stroke="blue" stroke-width="1.5" /><line stroke="red" stroke-dasharray="10 5 1 5" stroke-linecap="square" stroke-width="1.5" x1="128.15" x2="104.15" y1="144.2" y2="144.2" /><line stroke="red" stroke-dasharray="10 5 1 5" stroke-linecap="square" stroke-width="1.5" x1="116.15" x2="116.15" y1="156.2" y2="132.2" /><circle cx="223.85" cy="144.2" fill="none" r="8" stroke="blue" stroke-width="1.5" /><line stroke="red" stroke-dasharray="10 5 1 5" stroke-linecap="square" stroke-width="1.5" x1="235.85" x2="211.85" y1="144.2" y2="144.2" /><line stroke="red" stroke-dasharray="10 5 1 5" stroke-linecap="square" stroke-width="1.5" x1="223.85" x2="223.85" y1="156.2" y2="132.2" /><circle cx="116.15" cy="184.2" fill="none" r="8" stroke="blue" stroke-width="1.5" /><line stroke="red" stroke-dasharray="10 5 1 5" stroke-linecap="square" stroke-width="1.5" x1="128.15" x2="104.15" y1="184.2" y2="184.2" /><line stroke="red" stroke-dasharray="10 5 1 5" stroke-linecap="square" stroke-width="1.5" x1="116.15" x2="116.15" y1="196.2" y2="172.2" /><circle cx="223.85" cy="184.2" fill="none" r="8" stroke="blue" stroke-width="1.5" /><line stroke="red" stroke-dasharray="10 5 1 5" stroke-linecap="square" stroke-width="1.5" x1="235.85" x2="211.85" y1="184.2" y2="184.2" /><line stroke="red" stroke-dasharray="10 5 1 5" stroke-linecap="square" stroke-width="1.5" x1="223.85" x2="223.85" y1="196.2" y2="172.2" /><line stroke="#D8D8D8" stroke-linecap="square" stroke-opacity="0.7" stroke-width="2.5" x1="253.85" x2="540.0" y1="34.2" y2="34.2" /><line stroke="#D8D8D8" stroke-linecap="square" stroke-opacity="0.7" stroke-width="2.5" x1="253.85" x2="540.0" y1="214.2" y2="214.2" /><line stroke="#D8D8D8" stroke-linecap="square" stroke-opacity="0.7" stroke-width="2.5" x1="223.85" x2="540.0" y1="64.2" y2="64.2" /><line stroke="#D8D8D8" stroke-linecap="square" stroke-opacity="0.7" stroke-width="2.5" x1="223.85" x2="540.0" y1="184.2" y2="184.2" /><line marker-end="url(#id28)" marker-start="url(#id29)" stroke="black" stroke-linecap="square" stroke-width="2.5" x1="360.0" x2="360.0" y1="34.2" y2="214.2" /><text fill="black" font-family="sans-serif" font-size="28" x="375.0" y="124.2">180</text><line stroke="black" stroke-linecap="square" stroke-opacity="1.0" stroke-width="2.5" x1="370.0" x2="350.0" y1="34.2" y2="34.2" /><line stroke="black" stroke-linecap="square" stroke-opacity="1.0" stroke-width="2.5" x1="370.0" x2="350.0" y1="214.2" y2="214.2" /><line marker-end="url(#id30)" marker-start="url(#id31)" stroke="black" stroke-linecap="square" stroke-width="2.5" x1="540.0" x2="540.0" y1="64.2" y2="184.2" /><text fill="black" font-family="sans-serif" font-size="28" x="560.0" y="124.2">3@40 c/c</text><line stroke="black" stroke-linecap="square" stroke-opacity="1.0" stroke-width="2.5" x1="550.0" x2="530.0" y1="64.2" y2="64.2" /><line stroke="black" stroke-linecap="square" stroke-opacity="1.0" stroke-width="2.5" x1="550.0" x2="530.0" y1="184.2" y2="184.2" /><line marker-end="url(#id32)" marker-start="url(#id33)" stroke="black" stroke-linecap="square" stroke-width="2.5" x1="540.0" x2="540.0" y1="64.2" y2="34.2" /><text fill="black" font-family="sans-serif" font-size="28" x="560.0" y="49.2">30</text><line stroke="black" stroke-linecap="square" stroke-opacity="1.0" stroke-width="2.5" x1="550.0" x2="530.0" y1="64.2" y2="64.2" /><line stroke="black" stroke-linecap="square" stroke-opacity="1.0" stroke-width="2.5" x1="550.0" x2="530.0" y1="34.2" y2="34.2" /><line marker-end="url(#id34)" marker-start="url(#id35)" stroke="black" stroke-linecap="square" stroke-width="2.5" x1="540.0" x2="540.0" y1="184.2" y2="214.2" /><text fill="black" font-family="sans-serif" font-size="28" x="560.0" y="199.2">30</text><line stroke="black" stroke-linecap="square" stroke-opacity="1.0" stroke-width="2.5" x1="550.0" x2="530.0" y1="184.2" y2="184.2" /><line stroke="black" stroke-linecap="square" stroke-opacity="1.0" stroke-width="2.5" x1="550.0" x2="530.0" y1="214.2" y2="214.2" /><line stroke="#D8D8D8" stroke-linecap="square" stroke-opacity="0.7" stroke-width="2.5" x1="340" x2="540" y1="0" y2="0" /><line marker-end="url(#id36)" marker-start="url(#id37)" stroke="black" stroke-linecap="square" stroke-width="2.5" x1="540.0" x2="540.0" y1="0.0" y2="34.2" /><text fill="black" font-family="sans-serif" font-size="28" x="560.0" y="17.1">34</text><line stroke="black" stroke-linecap="square" stroke-opacity="1.0" stroke-width="2.5" x1="550.0" x2="530.0" y1="0.0" y2="0.0" /><line stroke="black" stroke-linecap="square" stroke-opacity="1.0" stroke-width="2.5" x1="550.0" x2="530.0" y1="34.2" y2="34.2" /><line stroke="#D8D8D8" stroke-linecap="square" stroke-opacity="0.7" stroke-width="2.5" x1="86.15" x2="86.15" y1="214.2" y2="550.0" /><line stroke="#D8D8D8" stroke-linecap="square" stroke-opacity="0.7" stroke-width="2.5" x1="253.85" x2="253.85" y1="214.2" y2="550.0" /><line stroke="#D8D8D8" stroke-linecap="square" stroke-opacity="0.7" stroke-width="2.5" x1="223.85" x2="223.85" y1="184.2" y2="600.0" /><line stroke="#D8D8D8" stroke-linecap="square" stroke-opacity="0.7" stroke-width="2.5" x1="116.15" x2="116.15" y1="184.2" y2="600.0" /><line marker-end="url(#id38)" marker-start="url(#id39)" stroke="black" stroke-linecap="square" stroke-width="2.5" x1="86.15" x2="116.15" y1="550.0" y2="550.0" /><text fill="black" font-family="sans-serif" font-size="28" x="101.15" y="600.0">30</text><line stroke="black" stroke-linecap="square" stroke-opacity="1.0" stroke-width="2.5" x1="86.15" x2="86.15" y1="570.0" y2="530.0" /><line stroke="black" stroke-linecap="square" stroke-opacity="1.0" stroke-width="2.5" x1="116.15" x2="116.15" y1="570.0" y2="530.0" /><line marker-end="url(#id40)" marker-start="url(#id41)" stroke="black" stroke-linecap="square" stroke-width="2.5" x1="253.85" x2="223.85" y1="550.0" y2="550.0" /><text fill="black" font-family="sans-serif" font-size="28" x="238.85" y="600.0">30</text><line stroke="black" stroke-linecap="square" stroke-opacity="1.0" stroke-width="2.5" x1="253.85" x2="253.85" y1="570.0" y2="530.0" /><line stroke="black" stroke-linecap="square" stroke-opacity="1.0" stroke-width="2.5" x1="223.85" x2="223.85" y1="570.0" y2="530.0" /><line marker-end="url(#id42)" marker-start="url(#id43)" stroke="black" stroke-linecap="square" stroke-width="2.5" x1="116.15" x2="223.85" y1="650.0" y2="650.0" /><text fill="black" font-family="sans-serif" font-size="28" x="170.0" y="700.0">92</text><line stroke="black" stroke-linecap="square" stroke-opacity="1.0" stroke-width="2.5" x1="116.15" x2="116.15" y1="660.0" y2="640.0" /><line stroke="black" stroke-linecap="square" stroke-opacity="1.0" stroke-width="2.5" x1="223.85" x2="223.85" y1="660.0" y2="640.0" /><line stroke="#D8D8D8" stroke-linecap="square" stroke-opacity="0.7" stroke-width="2.5" x1="158.15" x2="-100.0" y1="34.2" y2="34.2" /><line stroke="#D8D8D8" stroke-linecap="square" stroke-opacity="0.7" stroke-width="2.5" x1="158.15" x2="-100.0" y1="214.2" y2="214.2" /><line stroke="#D8D8D8" stroke-linecap="square" stroke-opacity="0.7" stroke-width="2.5" x1="158.15" x2="-100.0" y1="64.2" y2="64.2" /><line stroke="#D8D8D8" stroke-linecap="square" stroke-opacity="0.7" stroke-width="2.5" x1="158.15" x2="-100.0" y1="184.2" y2="184.2" /><line marker-end="url(#id44)" marker-start="url(#id45)" stroke="black" stroke-linecap="square" stroke-width="2.5" x1="-100.0" x2="-100.0" y1="64.2" y2="184.2" /><text fill="black" font-family="sans-serif" font-size="28" x="-250.0" y="124.2">3@40 c/c</text><line stroke="black" stroke-linecap="square" stroke-opacity="1.0" stroke-width="2.5" x1="-110.0" x2="-90.0" y1="64.2" y2="64.2" /><line stroke="black" stroke-linecap="square" stroke-opacity="1.0" stroke-width="2.5" x1="-110.0" x2="-90.0" y1="184.2" y2="184.2" /><line marker-end="url(#id46)" marker-start="url(#id47)" stroke="black" stroke-linecap="square" stroke-width="2.5" x1="-100.0" x2="-100.0" y1="64.2" y2="34.2" /><text fill="black" font-family="sans-serif" font-size="28" x="-150.0" y="49.2">30</text><line stroke="black" stroke-linecap="square" stroke-opacity="1.0" stroke-width="2.5" x1="-110.0" x2="-90.0" y1="64.2" y2="64.2" /><line stroke="black" stroke-linecap="square" stroke-opacity="1.0" stroke-width="2.5" x1="-110.0" x2="-90.0" y1="34.2" y2="34.2" /><line marker-end="url(#id48)" marker-start="url(#id49)" stroke="black" stroke-linecap="square" stroke-width="2.5" x1="-100.0" x2="-100.0" y1="184.2" y2="214.2" /><text fill="black" font-family="sans-serif" font-size="28" x="-150.0" y="199.2">30</text><line stroke="black" stroke-linecap="square" stroke-opacity="1.0" stroke-width="2.5" x1="-110.0" x2="-90.0" y1="184.2" y2="184.2" /><line stroke="black" stroke-linecap="square" stroke-opacity="1.0" stroke-width="2.5" x1="-110.0" x2="-90.0" y1="214.2" y2="214.2" /><polyline fill="none" marker-start="url(#id50)" points="240.0,300.0 456.506350946,425.0 664.506350946,425.0" stroke="black" stroke-width="2.5" /><text fill="black" font-family="sans-serif" font-size="28" x="477.306350946" y="407.0">Beam ISMB 300</text><text fill="black" font-family="sans-serif" font-size="28" x="477.306350946" y="443.0" /><polyline fill="none" marker-start="url(#id51)" points="0,0 0.0,0.0 -208.0,0.0" stroke="black" stroke-width="2.5" /><text fill="black" font-family="sans-serif" font-size="28" x="-187.2" y="-18.0">Beam ISMB 500</text><text fill="black" font-family="sans-serif" font-size="28" x="-228.8" y="18.0" /><polyline fill="none" marker-start="url(#id52)" points="223.85,64.2 410.85,-122.8 778.85,-122.8" stroke="black" stroke-width="2.5" /><text fill="black" font-family="sans-serif" font-size="28" x="447.65" y="-140.8">8 nos 16Ø holes</text><text fill="black" font-family="sans-serif" font-size="28" x="447.65" y="-89.8">for M16bolts(grade 4.8)</text><polyline fill="none" marker-start="url(#id53)" points="158.15,64.2 78.0765484614,-155.8 -289.923451539,-155.8" stroke="black" stroke-width="2.5" /><text fill="black" font-family="sans-serif" font-size="28" x="-253.123451539" y="-173.8">8 nos 16Ø holes</text><text fill="black" font-family="sans-serif" font-size="28" x="-326.723451539" y="-137.8">for M16bolts(grade 4.8)</text><polyline fill="none" marker-start="url(#id54)" points="86.15,214.2 -221.764581426,391.974566474 -413.764581426,391.974566474" stroke="black" stroke-width="2.5" /><text fill="black" font-family="sans-serif" font-size="28" x="-394.564581426" y="373.974566474">ISA.120X80X8</text><text fill="black" font-family="sans-serif" font-size="28" x="-432.964581426" y="409.974566474" /><text fill="black" font-family="sans-serif" font-size="30" x="50" y="980">Side View (Sec B-B)</text><text fill="black" font-family="sans-serif" font-size="30" x="400" y="980">(All distances are in "mm")</text></svg>