<?xml version="1.0" encoding="utf-8" ?>
<svg baseProfile="full" height="100%" version="1.1" viewBox="-340 -280 1200 1225" width="100%" xmlns="http://www.w3.org/2000/svg" xmlns:ev="http://www.w3.org/2001/xml-events" xmlns:xlink="http://www.w3.org/1999/xlink"><defs><marker id="id1" markerHeight="10" markerWidth="10" orient="auto" refX="0" refY="5"><path d="M 0 0 L 10 5 L 0 10 z" fill="blue" stroke="black" /></marker><marker id="id2" markerHeight="10" markerWidth="10" orient="auto" refX="0" refY="5"><path d="M 0 0 L 10 5 L 0 10 z" fill="blue" stroke="black" /></marker><pattern height="4" id="diagonalHatch" patternTransform="rotate(45 2 2)" patternUnits="userSpaceOnUse" width="4"><path d="M -1,2 l 6,0" stroke="#000000" stroke-width="1.5" /></pattern><marker id="id3" markerHeight="30" markerWidth="30" orient="auto" refX="8" refY="3"><path d=" M0,0 L3,3 L0,6 L8,3 L0,0" fill="black" /></marker><marker id="id4" markerHeight="20" markerWidth="30" orient="auto" refX="0" refY="3"><path d=" M0,3 L8,6 L5,3 L8,0 L0,3" fill="black" /></marker><marker id="id5" markerHeight="30" markerWidth="30" orient="auto" refX="8" refY="3"><path d=" M0,0 L3,3 L0,6 L8,3 L0,0" fill="black" /></marker><marker id="id6" markerHeight="20" markerWidth="30" orient="auto" refX="0" refY="3"><path d=" M0,3 L8,6 L5,3 L8,0 L0,3" fill="black" /></marker><marker id="id7" markerHeight="30" markerWidth="30" orient="auto" refX="8" refY="3"><path d=" M0,0 L3,3 L0,6 L8,3 L0,0" fill="black" /></marker><marker id="id8" markerHeight="20" markerWidth="30" orient="auto" refX="0" refY="3"><path d=" M0,3 L8,6 L5,3 L8,0 L0,3" fill="black" /></marker><marker id="id9" markerHeight="30" markerWidth="30" orient="auto" refX="8" refY="3"><path d=" M0,0 L3,3 L0,6 L8,3 L0,0" fill="black" /></marker><marker id="id10" markerHeight="20" markerWidth="30" orient="auto" refX="0" refY="3"><path d=" M0,3 L8,6 L5,3 L8,0 L0,3" fill="black" /></marker><marker id="id11" markerHeight="20" markerWidth="30" orient="auto" refX="0" refY="3"><path d=" M0,3 L8,6 L5,3 L8,0 L0,3" fill="black" /></marker><marker id="id12" markerHeight="20" markerWidth="30" orient="auto" refX="0" refY="3"><path d=" M0,3 L8,6 L5,3 L8,0 L0,3" fill="black" /></marker><marker id="id13" markerHeight="20" markerWidth="30" orient="auto" refX="0" refY="3"><path d=" M0,3 L8,6 L5,3 L8,0 L0,3" fill="black" /></marker><marker id="id14" markerHeight="15" markerWidth="15" orient="auto" refX="15" refY="7.5"><path d="M 0 0 L 8 7.5 L 0 15 z" fill="none" stroke="black" /></marker><marker id="id15" markerHeight="20" markerWidth="30" orient="auto" refX="0" refY="3"><path d=" M0,3 L8,6 L5,3 L8,0 L0,3" fill="black" /></marker><marker id="id16" markerHeight="20" markerWidth="30" orient="auto" refX="0" refY="3"><path d=" M0,3 L8,6 L5,3 L8,0 L0,3" fill="black" /></marker></defs><line marker-end="url(#id1)" stroke="black" stroke-linecap="square" stroke-width="2.5" x1="0" x2="0" y1="-250" y2="-200" /><text fill="black" font-family="sans-serif" font-size="52" x="-10" y="-120">A</text><line marker-end="url(#id2)" stroke="black" stroke-linecap="square" stroke-width="2.5" x1="550" x2="550" y1="-250" y2="-200" /><text fill="black" font-family="sans-serif" font-size="52" x="540" y="-120">A</text><line stroke="#666666" stroke-linecap="square" stroke-width="1.0" x1="0" x2="550" y1="-250" y2="-250" /><polyline fill="none" points="0,0 200,0.0 200,800 0.0,800 0,0" stroke="blue" stroke-width="2.5" /><line stroke="blue" stroke-linecap="square" stroke-width="2.5" x1="15.0" x2="15.0" y1="0.0" y2="800.0" /><line stroke="blue" stroke-linecap="square" stroke-width="2.5" x1="185.0" x2="185.0" y1="0.0" y2="800.0" /><polyline fill="none" points="210.0,233.0 210,200 560,200 560,600 210,600 210,473.0" stroke="blue" stroke-width="2.5" /><line stroke="red" stroke-dasharray="5 5" stroke-linecap="square" stroke-width="2.5" x1="210.0" x2="210" y1="233.0" y2="473.0" /><line stroke="blue" stroke-linecap="square" stroke-width="2.5" x1="210" x2="560" y1="216.0" y2="216.0" /><line stroke="blue" stroke-linecap="square" stroke-width="2.5" x1="210" x2="560" y1="584.0" y2="584.0" /><rect fill="none" height="240.0" stroke="blue" stroke-width="2.5" width="10" x="200" y="233.0" /><rect fill="url(#diagonalHatch)" height="240.0" stroke="white" stroke-width="2.0" width="8" x="210.0" y="233.0" /><line stroke="red" stroke-dasharray="5 5" stroke-linecap="square" stroke-width="2.5" x1="210.0" x2="210" y1="233.0" y2="473.0" /><rect fill="black" height="20" stroke="black" stroke-width="2.5" width="25.0" x="185.0" y="293.0" /><line stroke="black" stroke-linecap="square" stroke-width="2.5" x1="175.0" x2="220.0" y1="303.0" y2="303.0" /><rect fill="black" height="20" stroke="black" stroke-width="2.5" width="25.0" x="185.0" y="343.0" /><line stroke="black" stroke-linecap="square" stroke-width="2.5" x1="175.0" x2="220.0" y1="353.0" y2="353.0" /><rect fill="black" height="20" stroke="black" stroke-width="2.5" width="25.0" x="185.0" y="393.0" /><line stroke="black" stroke-linecap="square" stroke-width="2.5" x1="175.0" x2="220.0" y1="403.0" y2="403.0" /><line marker-end="url(#id3)" marker-start="url(#id4)" stroke="black" stroke-linecap="square" stroke-width="2.5" x1="-75.0" x2="-75.0" y1="303.0" y2="403.0" /><text fill="black" font-family="sans-serif" font-size="28" x="-225.0" y="353.0">2 @50c/c</text><line stroke="black" stroke-linecap="square" stroke-opacity="1.0" stroke-width="2.5" x1="-85.0" x2="-65.0" y1="303.0" y2="303.0" /><line stroke="black" stroke-linecap="square" stroke-opacity="1.0" stroke-width="2.5" x1="-85.0" x2="-65.0" y1="403.0" y2="403.0" /><line marker-end="url(#id5)" marker-start="url(#id6)" stroke="black" stroke-linecap="square" stroke-width="2.5" x1="-50.0" x2="-50.0" y1="200.0" y2="233.0" /><text fill="black" font-family="sans-serif" font-size="28" x="-100.0" y="216.5">33</text><line stroke="black" stroke-linecap="square" stroke-opacity="1.0" stroke-width="2.5" x1="-60.0" x2="-40.0" y1="200.0" y2="200.0" /><line stroke="black" stroke-linecap="square" stroke-opacity="1.0" stroke-width="2.5" x1="-60.0" x2="-40.0" y1="233.0" y2="233.0" /><line stroke="#D8D8D8" stroke-linecap="square" stroke-opacity="0.7" stroke-width="2.5" x1="210" x2="-60" y1="200" y2="200" /><line marker-end="url(#id7)" marker-start="url(#id8)" stroke="black" stroke-linecap="square" stroke-width="2.5" x1="-75.0" x2="-75.0" y1="303.0" y2="233.0" /><text fill="black" font-family="sans-serif" font-size="28" x="-125.0" y="268.0">70</text><line stroke="black" stroke-linecap="square" stroke-opacity="1.0" stroke-width="2.5" x1="-85.0" x2="-65.0" y1="303.0" y2="303.0" /><line stroke="black" stroke-linecap="square" stroke-opacity="1.0" stroke-width="2.5" x1="-85.0" x2="-65.0" y1="233.0" y2="233.0" /><line marker-end="url(#id9)" marker-start="url(#id10)" stroke="black" stroke-linecap="square" stroke-width="2.5" x1="-135.0" x2="-135.0" y1="403.0" y2="473.0" /><text fill="black" font-family="sans-serif" font-size="28" x="-185.0" y="438.0">70</text><line stroke="black" stroke-linecap="square" stroke-opacity="1.0" stroke-width="2.5" x1="-145.0" x2="-125.0" y1="403.0" y2="403.0" /><line stroke="black" stroke-linecap="square" stroke-opacity="1.0" stroke-width="2.5" x1="-145.0" x2="-125.0" y1="473.0" y2="473.0" /><line stroke="#D8D8D8" stroke-linecap="square" stroke-opacity="0.7" stroke-width="2.5" x1="200" x2="-60.0" y1="233.0" y2="233.0" /><line stroke="#D8D8D8" stroke-linecap="square" stroke-opacity="0.7" stroke-width="2.5" x1="185.0" x2="-60.0" y1="303.0" y2="303.0" /><line stroke="#D8D8D8" stroke-linecap="square" stroke-opacity="0.7" stroke-width="2.5" x1="185.0" x2="-60.0" y1="403.0" y2="403.0" /><line stroke="#D8D8D8" stroke-linecap="square" stroke-opacity="0.7" stroke-width="2.5" x1="200" x2="-60.0" y1="473.0" y2="473.0" /><polyline fill="none" marker-start="url(#id11)" points="560,400 560.0,400.0 768.0,400.0" stroke="black" stroke-width="2.5" /><text fill="black" font-family="sans-serif" font-size="28" x="580.8" y="382.0">Beam ISMB 400</text><text fill="black" font-family="sans-serif" font-size="28" x="580.8" y="418.0" /><polyline fill="none" marker-start="url(#id12)" points="100.0,800.0 -38.5640646055,880.0 -278.564064606,880.0" stroke="black" stroke-width="2.5" /><text fill="black" font-family="sans-serif" font-size="28" x="-254.564064606" y="862.0">Column ISSC 200</text><text fill="black" font-family="sans-serif" font-size="28" x="-302.564064606" y="898.0" /><polyline fill="none" marker-end="url(#id14)" marker-start="url(#id13)" points="214.0,233.0 14.0,33.0 -194.0,33.0" stroke="black" stroke-width="2.5" /><text fill="black" font-family="sans-serif" font-size="28" x="-173.2" y="15.0">          z 8</text><text fill="black" font-family="sans-serif" font-size="28" x="-214.8" y="51.0" /><polyline fill="none" marker-start="url(#id15)" points="185.0,303.0 385.0,103.0 785.0,103.0" stroke="black" stroke-width="2.5" /><text fill="black" font-family="sans-serif" font-size="28" x="425.0" y="85.0">3 nos 20Ø holes</text><text fill="black" font-family="sans-serif" font-size="28" x="425.0" y="136.0">for M20 bolts (grade 8.8)</text><polyline fill="none" marker-start="url(#id16)" points="205.0,473.0 455.0,723.0 695.0,723.0" stroke="black" stroke-width="2.5" /><text fill="black" font-family="sans-serif" font-size="28" x="479.0" y="705.0">PLT. 240X174X10</text><text fill="black" font-family="sans-serif" font-size="28" x="479.0" y="741.0" /><text fill="black" font-family="sans-serif" font-size="30" x="50" y="930">Front view (Sec C-C)</text><text fill="black" font-family="sans-serif" font-size="30" x="400" y="930">(All Dimensions are in mm)</text></svg>