<?xml version="1.0" encoding="utf-8" ?>
<svg baseProfile="full" height="100%" version="1.1" viewBox="-100 -100 1000 1200" width="100%" xmlns="http://www.w3.org/2000/svg" xmlns:ev="http://www.w3.org/2001/xml-events" xmlns:xlink="http://www.w3.org/1999/xlink"><defs><pattern height="6" id="diagonalHatch" patternTransform="rotate(45 2 2)" patternUnits="userSpaceOnUse" width="6"><path d="M -1,2 l 6,0" stroke="#000000" stroke-width="0.7" /></pattern><marker id="id17" markerHeight="30" markerWidth="30" orient="auto" refX="8" refY="3"><path d=" M0,0 L3,3 L0,6 L8,3 L0,0" fill="black" /></marker><marker id="id18" markerHeight="20" markerWidth="30" orient="auto" refX="0" refY="3"><path d=" M0,3 L8,6 L5,3 L8,0 L0,3" fill="black" /></marker><marker id="id19" markerHeight="30" markerWidth="30" orient="auto" refX="8" refY="3"><path d=" M0,0 L3,3 L0,6 L8,3 L0,0" fill="black" /></marker><marker id="id20" markerHeight="20" markerWidth="30" orient="auto" refX="0" refY="3"><path d=" M0,3 L8,6 L5,3 L8,0 L0,3" fill="black" /></marker><marker id="id21" markerHeight="30" markerWidth="30" orient="auto" refX="8" refY="3"><path d=" M0,0 L3,3 L0,6 L8,3 L0,0" fill="black" /></marker><marker id="id22" markerHeight="20" markerWidth="30" orient="auto" refX="0" refY="3"><path d=" M0,3 L8,6 L5,3 L8,0 L0,3" fill="black" /></marker><marker id="id23" markerHeight="20" markerWidth="30" orient="auto" refX="0" refY="3"><path d=" M0,3 L8,6 L5,3 L8,0 L0,3" fill="black" /></marker><marker id="id24" markerHeight="20" markerWidth="30" orient="auto" refX="0" refY="3"><path d=" M0,3 L8,6 L5,3 L8,0 L0,3" fill="black" /></marker><marker id="id25" markerHeight="20" markerWidth="30" orient="auto" refX="0" refY="3"><path d=" M0,3 L8,6 L5,3 L8,0 L0,3" fill="black" /></marker><marker id="id26" markerHeight="20" markerWidth="30" orient="auto" refX="0" refY="3"><path d=" M0,3 L8,6 L5,3 L8,0 L0,3" fill="black" /></marker><marker id="id27" markerHeight="20" markerWidth="30" orient="auto" refX="0" refY="3"><path d=" M0,3 L8,6 L5,3 L8,0 L0,3" fill="black" /></marker><marker id="id28" markerHeight="15" markerWidth="15" orient="auto" refX="45" refY="7.5"><path d="M 0 0 L 8 7.5 L 0 15 z" fill="none" stroke="black" /></marker></defs><rect fill="none" height="800" stroke="blue" stroke-width="2.5" width="200" x="0" y="0" /><polyline fill="none" points="30,200 170,200 170.0,216.0 104.45,216.0 104.45,584.0 170.0,584.0 170,600 30,600 30.0,584.0 95.55,584.0 95.55,216.0 30.0,216.0 30,200" stroke="blue" stroke-width="2.5" /><rect fill="url(#diagonalHatch)" height="224.0" stroke="white" stroke-width="2.5" width="8" x="85.05" y="249.0" /><rect fill="none" height="240.0" stroke="blue" stroke-width="2.5" width="174.0" x="13.0" y="249.0" /><rect fill="url(#diagonalHatch)" height="224.0" stroke="white" stroke-width="2.5" width="8" x="106.95" y="249.0" /><circle cx="50.0" cy="319.0" fill="none" r="10" stroke="blue" stroke-width="1.5" /><circle cx="150.0" cy="319.0" fill="none" r="10" stroke="blue" stroke-width="1.5" /><line stroke="black" stroke-linecap="square" stroke-width="1" x1="65.0" x2="35.0" y1="319.0" y2="319.0" /><line stroke="black" stroke-linecap="square" stroke-width="1" x1="50.0" x2="50.0" y1="334.0" y2="304.0" /><line stroke="black" stroke-linecap="square" stroke-width="1" x1="165.0" x2="135.0" y1="319.0" y2="319.0" /><line stroke="black" stroke-linecap="square" stroke-width="1" x1="150.0" x2="150.0" y1="334.0" y2="304.0" /><circle cx="50.0" cy="369.0" fill="none" r="10" stroke="blue" stroke-width="1.5" /><circle cx="150.0" cy="369.0" fill="none" r="10" stroke="blue" stroke-width="1.5" /><line stroke="black" stroke-linecap="square" stroke-width="1" x1="65.0" x2="35.0" y1="369.0" y2="369.0" /><line stroke="black" stroke-linecap="square" stroke-width="1" x1="50.0" x2="50.0" y1="384.0" y2="354.0" /><line stroke="black" stroke-linecap="square" stroke-width="1" x1="165.0" x2="135.0" y1="369.0" y2="369.0" /><line stroke="black" stroke-linecap="square" stroke-width="1" x1="150.0" x2="150.0" y1="384.0" y2="354.0" /><circle cx="50.0" cy="419.0" fill="none" r="10" stroke="blue" stroke-width="1.5" /><circle cx="150.0" cy="419.0" fill="none" r="10" stroke="blue" stroke-width="1.5" /><line stroke="black" stroke-linecap="square" stroke-width="1" x1="65.0" x2="35.0" y1="419.0" y2="419.0" /><line stroke="black" stroke-linecap="square" stroke-width="1" x1="50.0" x2="50.0" y1="434.0" y2="404.0" /><line stroke="black" stroke-linecap="square" stroke-width="1" x1="165.0" x2="135.0" y1="419.0" y2="419.0" /><line stroke="black" stroke-linecap="square" stroke-width="1" x1="150.0" x2="150.0" y1="434.0" y2="404.0" /><line marker-end="url(#id17)" marker-start="url(#id18)" stroke="black" stroke-linecap="square" stroke-width="2.5" x1="280.0" x2="280.0" y1="319.0" y2="419.0" /><text fill="black" font-family="sans-serif" font-size="28" x="330.0" y="369.0">2 @50c/c</text><line stroke="black" stroke-linecap="square" stroke-opacity="1.0" stroke-width="2.5" x1="290.0" x2="270.0" y1="319.0" y2="319.0" /><line stroke="black" stroke-linecap="square" stroke-opacity="1.0" stroke-width="2.5" x1="290.0" x2="270.0" y1="419.0" y2="419.0" /><line marker-end="url(#id19)" marker-start="url(#id20)" stroke="black" stroke-linecap="square" stroke-width="2.5" x1="280.0" x2="280.0" y1="235.0" y2="319.0" /><text fill="black" font-family="sans-serif" font-size="28" x="330.0" y="277.0">70</text><line stroke="black" stroke-linecap="square" stroke-opacity="1.0" stroke-width="2.5" x1="290.0" x2="270.0" y1="235.0" y2="235.0" /><line stroke="black" stroke-linecap="square" stroke-opacity="1.0" stroke-width="2.5" x1="290.0" x2="270.0" y1="319.0" y2="319.0" /><line marker-end="url(#id21)" marker-start="url(#id22)" stroke="black" stroke-linecap="square" stroke-width="2.5" x1="280.0" x2="280.0" y1="419.0" y2="475.0" /><text fill="black" font-family="sans-serif" font-size="28" x="330.0" y="447.0">70</text><line stroke="black" stroke-linecap="square" stroke-opacity="1.0" stroke-width="2.5" x1="290.0" x2="270.0" y1="419.0" y2="419.0" /><line stroke="black" stroke-linecap="square" stroke-opacity="1.0" stroke-width="2.5" x1="290.0" x2="270.0" y1="475.0" y2="475.0" /><line stroke="#D8D8D8" stroke-linecap="square" stroke-opacity="0.7" stroke-width="2.5" x1="187.0" x2="287.0" y1="249.0" y2="249.0" /><line stroke="#D8D8D8" stroke-linecap="square" stroke-opacity="0.7" stroke-width="2.5" x1="150.0" x2="287.0" y1="319.0" y2="319.0" /><line stroke="#D8D8D8" stroke-linecap="square" stroke-opacity="0.7" stroke-width="2.5" x1="150.0" x2="287.0" y1="419.0" y2="419.0" /><line stroke="#D8D8D8" stroke-linecap="square" stroke-opacity="0.7" stroke-width="2.5" x1="187.0" x2="287.0" y1="489.0" y2="489.0" /><polyline fill="none" marker-start="url(#id23)" points="100,600 100.0,850.0 -108.0,850.0" stroke="black" stroke-width="2.5" /><text fill="black" font-family="sans-serif" font-size="28" x="-87.2" y="832.0">Beam ISMB 400</text><text fill="black" font-family="sans-serif" font-size="28" x="-128.8" y="868.0" /><polyline fill="none" marker-start="url(#id24)" points="200,800 270.0,870.0 510.0,870.0" stroke="black" stroke-width="2.5" /><text fill="black" font-family="sans-serif" font-size="28" x="294.0" y="852.0">Column ISSC 200</text><text fill="black" font-family="sans-serif" font-size="28" x="294.0" y="888.0"> </text><polyline fill="none" marker-start="url(#id25)" points="143.5,489.0 303.5,649.0 543.5,649.0" stroke="black" stroke-width="2.5" /><text fill="black" font-family="sans-serif" font-size="28" x="327.5" y="631.0">PLT. 240x174x10</text><text fill="black" font-family="sans-serif" font-size="28" x="327.5" y="667.0" /><polyline fill="none" marker-start="url(#id26)" points="150.0,319.0 283.0,186.0 683.0,186.0" stroke="black" stroke-width="2.5" /><text fill="black" font-family="sans-serif" font-size="28" x="323.0" y="168.0">3 nos 20Ø holes</text><text fill="black" font-family="sans-serif" font-size="28" x="323.0" y="219.0">for M20 bolts (grade 8.8)</text><polyline fill="none" marker-end="url(#id28)" marker-start="url(#id27)" points="89.05,249.0 89.05,-31.0 297.05,-31.0" stroke="black" stroke-width="2.5" /><text fill="black" font-family="sans-serif" font-size="28" x="109.85" y="-49.0">          z 8</text><text fill="black" font-family="sans-serif" font-size="28" x="109.85" y="2.0" /><text fill="black" font-family="sans-serif" font-size="30" x="10" y="950">Side view (Sec B-B)</text><text fill="black" font-family="sans-serif" font-size="30" x="360" y="950">(All Dimensions are in mm)</text></svg>