<?xml version="1.0" encoding="utf-8" ?>
<svg baseProfile="full" height="100%" version="1.1" viewBox="-250 -350 1200 1000" width="100%" xmlns="http://www.w3.org/2000/svg" xmlns:ev="http://www.w3.org/2001/xml-events" xmlns:xlink="http://www.w3.org/1999/xlink"><defs><marker id="id29" markerHeight="10" markerWidth="10" orient="auto" refX="0" refY="5"><path d="M 0 0 L 10 5 L 0 10 z" fill="blue" stroke="black" /></marker><marker id="id30" markerHeight="10" markerWidth="10" orient="auto" refX="0" refY="5"><path d="M 0 0 L 10 5 L 0 10 z" fill="blue" stroke="black" /></marker><marker id="id31" markerHeight="10" markerWidth="10" orient="auto" refX="0" refY="5"><path d="M 0 0 L 10 5 L 0 10 z" fill="blue" stroke="black" /></marker><marker id="id32" markerHeight="10" markerWidth="10" orient="auto" refX="0" refY="5"><path d="M 0 0 L 10 5 L 0 10 z" fill="blue" stroke="black" /></marker><marker id="id33" markerHeight="30" markerWidth="30" orient="auto" refX="8" refY="3"><path d=" M0,0 L3,3 L0,6 L8,3 L0,0" fill="black" /></marker><marker id="id34" markerHeight="20" markerWidth="30" orient="auto" refX="0" refY="3"><path d=" M0,3 L8,6 L5,3 L8,0 L0,3" fill="black" /></marker><marker id="id35" markerHeight="30" markerWidth="30" orient="auto" refX="8" refY="3"><path d=" M0,0 L3,3 L0,6 L8,3 L0,0" fill="black" /></marker><marker id="id36" markerHeight="20" markerWidth="30" orient="auto" refX="0" refY="3"><path d=" M0,3 L8,6 L5,3 L8,0 L0,3" fill="black" /></marker><marker id="id37" markerHeight="20" markerWidth="30" orient="auto" refX="0" refY="3"><path d=" M0,3 L8,6 L5,3 L8,0 L0,3" fill="black" /></marker><marker id="id38" markerHeight="20" markerWidth="30" orient="auto" refX="0" refY="3"><path d=" M0,3 L8,6 L5,3 L8,0 L0,3" fill="black" /></marker><marker id="id39" markerHeight="20" markerWidth="30" orient="auto" refX="0" refY="3"><path d=" M0,3 L8,6 L5,3 L8,0 L0,3" fill="black" /></marker><marker id="id40" markerHeight="20" markerWidth="30" orient="auto" refX="0" refY="3"><path d=" M0,3 L8,6 L5,3 L8,0 L0,3" fill="black" /></marker><marker id="id41" markerHeight="20" markerWidth="30" orient="auto" refX="0" refY="3"><path d=" M0,3 L8,6 L5,3 L8,0 L0,3" fill="black" /></marker><marker id="id42" markerHeight="15" markerWidth="15" orient="auto" refX="15" refY="7.5"><path d="M 0 0 L 8 7.5 L 0 15 z" fill="none" stroke="black" /></marker></defs><line marker-end="url(#id29)" stroke="black" stroke-linecap="square" stroke-width="2.5" x1="790" x2="740" y1="0" y2="0" /><text fill="black" font-family="sans-serif" font-size="52" x="660" y="20">B</text><line marker-end="url(#id30)" stroke="black" stroke-linecap="square" stroke-width="2.5" x1="790" x2="740" y1="200" y2="200" /><text fill="black" font-family="sans-serif" font-size="52" x="660" y="220">B</text><line stroke="#666666" stroke-linecap="square" stroke-width="1.0" x1="790" x2="790" y1="0" y2="200" /><line marker-end="url(#id31)" stroke="black" stroke-linecap="square" stroke-width="2.5" x1="-50.0" x2="-50.0" y1="450.0" y2="400.0" /><text fill="black" font-family="sans-serif" font-size="52" x="-70.0" y="360.0">C</text><line marker-end="url(#id32)" stroke="black" stroke-linecap="square" stroke-width="2.5" x1="610.0" x2="610.0" y1="450.0" y2="400.0" /><text fill="black" font-family="sans-serif" font-size="52" x="590.0" y="360.0">C</text><line stroke="#666666" stroke-linecap="square" stroke-width="1.0" x1="-50.0" x2="610.0" y1="450.0" y2="450.0" /><polyline fill="none" points="0,0 15.0,0.0 15.0,95.5 185.0,95.5 185.0,0.0 200,0 200,200 185.0,200.0 185.0,104.5 15.0,104.5 15.0,200.0 0.0,200.0 0,0" stroke="blue" stroke-width="2.5" /><rect fill="none" height="140" stroke="blue" stroke-width="2.5" width="350" x="210.0" y="29.95" /><rect fill="none" height="174.0" stroke="blue" stroke-width="2.5" width="10" x="200.0" y="12.95" /><line stroke="red" stroke-dasharray="5 5" stroke-linecap="square" stroke-width="2.5" x1="210.0" x2="560.0" y1="95.5" y2="95.5" /><line stroke="red" stroke-dasharray="5 5" stroke-linecap="square" stroke-width="2.5" x1="210.0" x2="560.0" y1="104.4" y2="104.4" /><polyline fill="black" points="212.5,93.0 220.5,93.0 212.5,85.0 212.5,93.0" stroke="black" stroke-width="2.5" /><polyline fill="black" points="212.5,106.9 212.5,114.9 220.5,106.9 212.5,106.9" stroke="black" stroke-width="2.5" /><rect fill="black" height="20" stroke="black" stroke-width="2.5" width="25.0" x="185.0" y="39.95" /><line stroke="black" stroke-linecap="square" stroke-width="2.5" x1="175.0" x2="220.0" y1="49.95" y2="49.95" /><rect fill="black" height="20" stroke="black" stroke-width="2.5" width="25.0" x="185.0" y="139.95" /><line stroke="black" stroke-linecap="square" stroke-width="2.5" x1="175.0" x2="220.0" y1="149.95" y2="149.95" /><line stroke="#D8D8D8" stroke-linecap="square" stroke-opacity="0.7" stroke-width="2.5" x1="185.0" x2="-95.0" y1="12.95" y2="12.95" /><line stroke="#D8D8D8" stroke-linecap="square" stroke-opacity="0.7" stroke-width="2.5" x1="185.0" x2="-95.0" y1="186.95" y2="186.95" /><line stroke="#D8D8D8" stroke-linecap="square" stroke-opacity="0.7" stroke-width="2.5" x1="185.0" x2="-80.0" y1="49.95" y2="49.95" /><line stroke="#D8D8D8" stroke-linecap="square" stroke-opacity="0.7" stroke-width="2.5" x1="185.0" x2="-80.0" y1="149.95" y2="149.95" /><line marker-end="url(#id33)" marker-start="url(#id34)" stroke="black" stroke-linecap="square" stroke-width="2.5" x1="-95.0" x2="-95.0" y1="12.95" y2="49.95" /><text fill="black" font-family="sans-serif" font-size="28" x="-145.0" y="31.45">37</text><line stroke="black" stroke-linecap="square" stroke-opacity="1.0" stroke-width="2.5" x1="-105.0" x2="-85.0" y1="12.95" y2="12.95" /><line stroke="black" stroke-linecap="square" stroke-opacity="1.0" stroke-width="2.5" x1="-105.0" x2="-85.0" y1="49.95" y2="49.95" /><line marker-end="url(#id35)" marker-start="url(#id36)" stroke="black" stroke-linecap="square" stroke-width="2.5" x1="-95.0" x2="-95.0" y1="149.95" y2="186.95" /><text fill="black" font-family="sans-serif" font-size="28" x="-145.0" y="168.45">37</text><line stroke="black" stroke-linecap="square" stroke-opacity="1.0" stroke-width="2.5" x1="-105.0" x2="-85.0" y1="149.95" y2="149.95" /><line stroke="black" stroke-linecap="square" stroke-opacity="1.0" stroke-width="2.5" x1="-105.0" x2="-85.0" y1="186.95" y2="186.95" /><polyline fill="none" marker-start="url(#id37)" points="560.0,104.4 560.0,104.4 768.0,104.4" stroke="black" stroke-width="2.5" /><text fill="black" font-family="sans-serif" font-size="28" x="580.8" y="86.4">Beam ISMB 400</text><text fill="black" font-family="sans-serif" font-size="28" x="580.8" y="122.4" /><polyline fill="none" marker-start="url(#id38)" points="0.0,200.0 150.0,350.0 358.0,350.0" stroke="black" stroke-width="2.5" /><text fill="black" font-family="sans-serif" font-size="28" x="170.8" y="332.0">Beam ISSC 200</text><text fill="black" font-family="sans-serif" font-size="28" x="170.8" y="368.0" /><polyline fill="none" marker-start="url(#id39)" points="205.0,186.95 325.0,306.95 565.0,306.95" stroke="black" stroke-width="2.5" /><text fill="black" font-family="sans-serif" font-size="28" x="349.0" y="288.95">PLT. 240x174x10</text><text fill="black" font-family="sans-serif" font-size="28" x="349.0" y="324.95" /><polyline fill="none" marker-start="url(#id40)" points="185.0,49.95 375.0,-140.05 775.0,-140.05" stroke="black" stroke-width="2.5" /><text fill="black" font-family="sans-serif" font-size="28" x="415.0" y="-158.05">3 nos 20Ø holes</text><text fill="black" font-family="sans-serif" font-size="28" x="415.0" y="-107.05">for M20 bolts (grade 8.8)</text><polyline fill="none" marker-end="url(#id42)" marker-start="url(#id41)" points="210.0,95.5 9.78539644417,-72.5 -198.214603556,-72.5" stroke="black" stroke-width="2.5" /><text fill="black" font-family="sans-serif" font-size="28" x="-177.414603556" y="-90.5">          z 8</text><text fill="black" font-family="sans-serif" font-size="28" x="-219.014603556" y="-54.5" /><text fill="black" font-family="sans-serif" font-size="30" x="150" y="640">Top view (Sec A-A)</text><text fill="black" font-family="sans-serif" font-size="30" x="500" y="640">(All Dimensions are in mm)</text></svg>