<?xml version="1.0" encoding="utf-8" ?>
<svg baseProfile="full" height="100%" version="1.1" viewBox="-410 -350 1250 1280" width="100%" xmlns="http://www.w3.org/2000/svg" xmlns:ev="http://www.w3.org/2001/xml-events" xmlns:xlink="http://www.w3.org/1999/xlink"><defs><marker id="id1" markerHeight="10" markerWidth="10" orient="auto" refX="0" refY="5"><path d="M 0 0 L 10 5 L 0 10 z" fill="blue" stroke="black" /></marker><marker id="id2" markerHeight="10" markerWidth="10" orient="auto" refX="0" refY="5"><path d="M 0 0 L 10 5 L 0 10 z" fill="blue" stroke="black" /></marker><pattern height="8" id="diagonalHatch" patternTransform="rotate(45 2 2)" patternUnits="userSpaceOnUse" width="6"><path d="M -1,2 l 6,0" stroke="#000000" stroke-width="2.5" /></pattern><marker id="id3" markerHeight="30" markerWidth="30" orient="auto" refX="8" refY="3"><path d=" M0,0 L3,3 L0,6 L8,3 L0,0" fill="black" /></marker><marker id="id4" markerHeight="20" markerWidth="30" orient="auto" refX="0" refY="3"><path d=" M0,3 L8,6 L5,3 L8,0 L0,3" fill="black" /></marker><marker id="id5" markerHeight="30" markerWidth="30" orient="auto" refX="8" refY="3"><path d=" M0,0 L3,3 L0,6 L8,3 L0,0" fill="black" /></marker><marker id="id6" markerHeight="20" markerWidth="30" orient="auto" refX="0" refY="3"><path d=" M0,3 L8,6 L5,3 L8,0 L0,3" fill="black" /></marker><marker id="id7" markerHeight="30" markerWidth="30" orient="auto" refX="8" refY="3"><path d=" M0,0 L3,3 L0,6 L8,3 L0,0" fill="black" /></marker><marker id="id8" markerHeight="20" markerWidth="30" orient="auto" refX="0" refY="3"><path d=" M0,3 L8,6 L5,3 L8,0 L0,3" fill="black" /></marker><marker id="id9" markerHeight="30" markerWidth="30" orient="auto" refX="8" refY="3"><path d=" M0,0 L3,3 L0,6 L8,3 L0,0" fill="black" /></marker><marker id="id10" markerHeight="20" markerWidth="30" orient="auto" refX="0" refY="3"><path d=" M0,3 L8,6 L5,3 L8,0 L0,3" fill="black" /></marker><marker id="id11" markerHeight="30" markerWidth="30" orient="auto" refX="8" refY="3"><path d=" M0,0 L3,3 L0,6 L8,3 L0,0" fill="black" /></marker><marker id="id12" markerHeight="20" markerWidth="30" orient="auto" refX="0" refY="3"><path d=" M0,3 L8,6 L5,3 L8,0 L0,3" fill="black" /></marker><marker id="id13" markerHeight="30" markerWidth="30" orient="auto" refX="8" refY="3"><path d=" M0,0 L3,3 L0,6 L8,3 L0,0" fill="black" /></marker><marker id="id14" markerHeight="20" markerWidth="30" orient="auto" refX="0" refY="3"><path d=" M0,3 L8,6 L5,3 L8,0 L0,3" fill="black" /></marker><marker id="id15" markerHeight="20" markerWidth="30" orient="auto" refX="0" refY="3"><path d=" M0,3 L8,6 L5,3 L8,0 L0,3" fill="black" /></marker><marker id="id16" markerHeight="20" markerWidth="30" orient="auto" refX="0" refY="3"><path d=" M0,3 L8,6 L5,3 L8,0 L0,3" fill="black" /></marker><marker id="id17" markerHeight="20" markerWidth="30" orient="auto" refX="0" refY="3"><path d=" M0,3 L8,6 L5,3 L8,0 L0,3" fill="black" /></marker><marker id="id18" markerHeight="20" markerWidth="30" orient="auto" refX="0" refY="3"><path d=" M0,3 L8,6 L5,3 L8,0 L0,3" fill="black" /></marker><marker id="id19" markerHeight="20" markerWidth="30" orient="auto" refX="0" refY="3"><path d=" M0,3 L8,6 L5,3 L8,0 L0,3" fill="black" /></marker><marker id="id20" markerHeight="15" markerWidth="15" orient="auto" refX="15" refY="7.5"><path d="M 0 0 L 8 7.5 L 0 15 z" fill="none" stroke="black" /></marker></defs><line marker-end="url(#id1)" stroke="black" stroke-linecap="square" stroke-width="2.5" x1="0" x2="0" y1="-320" y2="-270" /><text fill="black" font-family="sans-serif" font-size="52" x="-10" y="-190">A</text><line marker-end="url(#id2)" stroke="black" stroke-linecap="square" stroke-width="2.5" x1="474.5" x2="474.5" y1="-322.0" y2="-272.0" /><text fill="black" font-family="sans-serif" font-size="52" x="464.5" y="-192.0">A</text><line stroke="#666666" stroke-linecap="square" stroke-width="1.0" x1="0" x2="474.5" y1="-320" y2="-322.0" /><polyline fill="none" points="200,150 200,0 0,0 0,700 200,700 200,550" stroke="blue" stroke-width="2.5" /><rect fill="#E0E0E0" height="700" stroke="blue" stroke-width="2.5" width="9.0" x="95.5" y="0.0" /><rect fill="url(#diagonalHatch)" height="240.0" stroke="white" stroke-width="2.0" width="12" x="104.5" y="183.0" /><rect fill="none" height="240.0" stroke="blue" stroke-width="2.5" width="80.0" x="104.5" y="183.0" /><polyline fill="none" points="124.5,183.0 124.5,150.0 474.5,150 474.5,550 124.5,550.0 124.5,423.0" stroke="blue" stroke-width="2.5" /><line stroke="red" stroke-dasharray="5 5" stroke-linecap="square" stroke-width="2.5" x1="124.5" x2="124.5" y1="183.0" y2="423.0" /><line stroke="red" stroke-dasharray="5 5" stroke-linecap="square" stroke-width="2.5" x1="200" x2="200" y1="150" y2="550" /><line stroke="blue" stroke-linecap="square" stroke-width="2.5" x1="124.5" x2="474.5" y1="166.0" y2="166.0" /><line stroke="blue" stroke-linecap="square" stroke-width="2.5" x1="124.5" x2="474.5" y1="534.0" y2="534.0" /><circle cx="154.5" cy="213.0" fill="none" r="6" stroke="blue" stroke-width="1.5" /><line stroke="red" stroke-linecap="square" stroke-width="2.0" x1="144.5" x2="164.5" y1="213.0" y2="213.0" /><line stroke="blue" stroke-dasharray="20 5 1 5" stroke-linecap="square" stroke-width="1.5" x1="154.5" x2="154.5" y1="183.0" y2="423.0" /><circle cx="154.5" cy="273.0" fill="none" r="6" stroke="blue" stroke-width="1.5" /><line stroke="red" stroke-linecap="square" stroke-width="2.0" x1="144.5" x2="164.5" y1="273.0" y2="273.0" /><line stroke="blue" stroke-dasharray="20 5 1 5" stroke-linecap="square" stroke-width="1.5" x1="154.5" x2="154.5" y1="183.0" y2="423.0" /><circle cx="154.5" cy="333.0" fill="none" r="6" stroke="blue" stroke-width="1.5" /><line stroke="red" stroke-linecap="square" stroke-width="2.0" x1="144.5" x2="164.5" y1="333.0" y2="333.0" /><line stroke="blue" stroke-dasharray="20 5 1 5" stroke-linecap="square" stroke-width="1.5" x1="154.5" x2="154.5" y1="183.0" y2="423.0" /><circle cx="154.5" cy="393.0" fill="none" r="6" stroke="blue" stroke-width="1.5" /><line stroke="red" stroke-linecap="square" stroke-width="2.0" x1="144.5" x2="164.5" y1="393.0" y2="393.0" /><line stroke="blue" stroke-dasharray="20 5 1 5" stroke-linecap="square" stroke-width="1.5" x1="154.5" x2="154.5" y1="183.0" y2="423.0" /><line marker-end="url(#id3)" marker-start="url(#id4)" stroke="black" stroke-linecap="square" stroke-width="2.5" x1="-80.0" x2="-80.0" y1="213.0" y2="393.0" /><text fill="black" font-family="sans-serif" font-size="28" x="-314.5" y="303.0">3 @60 mm c/c</text><line stroke="black" stroke-linecap="square" stroke-opacity="1.0" stroke-width="2.5" x1="-90.0" x2="-70.0" y1="213.0" y2="213.0" /><line stroke="black" stroke-linecap="square" stroke-opacity="1.0" stroke-width="2.5" x1="-90.0" x2="-70.0" y1="393.0" y2="393.0" /><line marker-end="url(#id5)" marker-start="url(#id6)" stroke="black" stroke-linecap="square" stroke-width="2.5" x1="-80.0" x2="-80.0" y1="213.0" y2="183.0" /><text fill="black" font-family="sans-serif" font-size="28" x="-200.0" y="198.0">30 mm</text><line stroke="black" stroke-linecap="square" stroke-opacity="1.0" stroke-width="2.5" x1="-90.0" x2="-70.0" y1="213.0" y2="213.0" /><line stroke="black" stroke-linecap="square" stroke-opacity="1.0" stroke-width="2.5" x1="-90.0" x2="-70.0" y1="183.0" y2="183.0" /><line marker-end="url(#id7)" marker-start="url(#id8)" stroke="black" stroke-linecap="square" stroke-width="2.5" x1="-80.0" x2="-80.0" y1="150.0" y2="183.0" /><text fill="black" font-family="sans-serif" font-size="28" x="-205.0" y="166.5">33 mm</text><line stroke="black" stroke-linecap="square" stroke-opacity="1.0" stroke-width="2.5" x1="-90.0" x2="-70.0" y1="150.0" y2="150.0" /><line stroke="black" stroke-linecap="square" stroke-opacity="1.0" stroke-width="2.5" x1="-90.0" x2="-70.0" y1="183.0" y2="183.0" /><line stroke="#D8D8D8" stroke-linecap="square" stroke-opacity="0.7" stroke-width="2.5" x1="104.5" x2="-60" y1="183.0" y2="183.0" /><line stroke="#D8D8D8" stroke-linecap="square" stroke-opacity="0.7" stroke-width="2.5" x1="154.5" x2="-60" y1="213.0" y2="213.0" /><line stroke="#D8D8D8" stroke-linecap="square" stroke-opacity="0.7" stroke-width="2.5" x1="154.5" x2="-60" y1="393.0" y2="393.0" /><line stroke="#D8D8D8" stroke-linecap="square" stroke-opacity="0.7" stroke-width="2.5" x1="104.5" x2="-60" y1="423.0" y2="423.0" /><line marker-end="url(#id9)" marker-start="url(#id10)" stroke="black" stroke-linecap="square" stroke-width="2.5" x1="-80.0" x2="-80.0" y1="393.0" y2="423.0" /><text fill="black" font-family="sans-serif" font-size="28" x="-200.0" y="408.0">30 mm</text><line stroke="black" stroke-linecap="square" stroke-opacity="1.0" stroke-width="2.5" x1="-90.0" x2="-70.0" y1="393.0" y2="393.0" /><line stroke="black" stroke-linecap="square" stroke-opacity="1.0" stroke-width="2.5" x1="-90.0" x2="-70.0" y1="423.0" y2="423.0" /><line stroke="#D8D8D8" stroke-linecap="square" stroke-opacity="0.7" stroke-width="2.5" x1="124.5" x2="124.5" y1="550.0" y2="800.0" /><line stroke="#D8D8D8" stroke-linecap="square" stroke-opacity="0.7" stroke-width="2.5" x1="104.5" x2="104.5" y1="700.0" y2="800.0" /><line stroke="black" stroke-linecap="square" stroke-width="2.5" x1="124.5" x2="124.5" y1="740.0" y2="760.0" /><line stroke="black" stroke-linecap="square" stroke-width="2.5" x1="104.5" x2="104.5" y1="740.0" y2="760.0" /><line marker-end="url(#id11)" stroke="black" stroke-linecap="square" stroke-width="2.5" x1="174.5" x2="124.5" y1="750.0" y2="750.0" /><line marker-end="url(#id11)" stroke="black" stroke-linecap="butt" stroke-width="2.5" x1="54.5" x2="104.5" y1="750.0" y2="750.0" /><text fill="black" font-family="sans-serif" font-size="28" x="-65.5" y="750.0">20 mm</text><line marker-end="url(#id13)" marker-start="url(#id14)" stroke="black" stroke-linecap="square" stroke-width="2.5" x1="154.5" x2="184.5" y1="-150.0" y2="-150.0" /><text fill="black" font-family="sans-serif" font-size="28" x="169.5" y="-115.0">30 mm</text><line stroke="black" stroke-linecap="square" stroke-opacity="1.0" stroke-width="2.5" x1="154.5" x2="154.5" y1="-140.0" y2="-160.0" /><line stroke="black" stroke-linecap="square" stroke-opacity="1.0" stroke-width="2.5" x1="184.5" x2="184.5" y1="-140.0" y2="-160.0" /><line stroke="#D8D8D8" stroke-linecap="square" stroke-opacity="0.7" stroke-width="2.5" x1="154.5" x2="154.5" y1="183.0" y2="-130.0" /><line stroke="#D8D8D8" stroke-linecap="square" stroke-opacity="0.7" stroke-width="2.5" x1="184.5" x2="184.5" y1="183.0" y2="-130.0" /><polyline fill="none" marker-start="url(#id15)" points="144.5,423.0 344.5,623.0 568.5,623.0" stroke="black" stroke-width="2.5" /><text fill="black" font-family="sans-serif" font-size="28" x="366.9" y="605.0">PLT. 240X80X10</text><text fill="black" font-family="sans-serif" font-size="28" x="366.9" y="656.0" /><polyline fill="none" marker-start="url(#id16)" points="0,680 -57.2899616308,679.0 -297.289961631,679.0" stroke="black" stroke-width="2.5" /><text fill="black" font-family="sans-serif" font-size="28" x="-249.289961631" y="661.0">Column ISSC 200</text><text fill="black" font-family="sans-serif" font-size="28" x="-321.289961631" y="697.0" /><polyline fill="none" marker-start="url(#id17)" points="154.5,213.0 304.5,63.0 704.5,63.0" stroke="black" stroke-width="2.5" /><text fill="black" font-family="sans-serif" font-size="28" x="344.5" y="45.0">4 nos 12Ø holes</text><text fill="black" font-family="sans-serif" font-size="28" x="344.5" y="96.0">for M20 bolts (grade 8.8)</text><polyline fill="none" marker-start="url(#id18)" points="474.5,350.0 474.5,350.0 682.5,350.0" stroke="black" stroke-width="2.5" /><text fill="black" font-family="sans-serif" font-size="28" x="495.3" y="332.0">Beam ISMB 400</text><text fill="black" font-family="sans-serif" font-size="28" x="495.3" y="383.0" /><polyline fill="none" marker-end="url(#id20)" marker-start="url(#id19)" points="110.5,198.0 -89.5,-2.0 -377.5,-2.0" stroke="black" stroke-width="2.5" /><text fill="black" font-family="sans-serif" font-size="28" x="-319.9" y="-20.0">          z 8.0 mm</text><text fill="black" font-family="sans-serif" font-size="28" x="-406.3" y="16.0" /><text fill="black" font-family="sans-serif" font-size="30" x="65.5" y="900.0">Front view (Sec C-C)</text></svg>