<?xml version="1.0" encoding="utf-8" ?>
<svg baseProfile="full" height="100%" version="1.1" viewBox="-10 -100 700.0 980.0" width="100%" xmlns="http://www.w3.org/2000/svg" xmlns:ev="http://www.w3.org/2001/xml-events" xmlns:xlink="http://www.w3.org/1999/xlink"><defs><pattern height="8" id="diagonalHatch" patternTransform="rotate(45 2 2)" patternUnits="userSpaceOnUse" width="6"><path d="M -1,2 l 6,0" stroke="#000000" stroke-width="2.5" /></pattern><marker id="id35" markerHeight="30" markerWidth="30" orient="auto" refX="8" refY="3"><path d=" M0,0 L3,3 L0,6 L8,3 L0,0" fill="black" /></marker><marker id="id36" markerHeight="20" markerWidth="30" orient="auto" refX="0" refY="3"><path d=" M0,3 L8,6 L5,3 L8,0 L0,3" fill="black" /></marker><marker id="id37" markerHeight="30" markerWidth="30" orient="auto" refX="8" refY="3"><path d=" M0,0 L3,3 L0,6 L8,3 L0,0" fill="black" /></marker><marker id="id38" markerHeight="20" markerWidth="30" orient="auto" refX="0" refY="3"><path d=" M0,3 L8,6 L5,3 L8,0 L0,3" fill="black" /></marker><marker id="id39" markerHeight="30" markerWidth="30" orient="auto" refX="8" refY="3"><path d=" M0,0 L3,3 L0,6 L8,3 L0,0" fill="black" /></marker><marker id="id40" markerHeight="20" markerWidth="30" orient="auto" refX="0" refY="3"><path d=" M0,3 L8,6 L5,3 L8,0 L0,3" fill="black" /></marker><marker id="id41" markerHeight="20" markerWidth="30" orient="auto" refX="0" refY="3"><path d=" M0,3 L8,6 L5,3 L8,0 L0,3" fill="black" /></marker><marker id="id42" markerHeight="20" markerWidth="30" orient="auto" refX="0" refY="3"><path d=" M0,3 L8,6 L5,3 L8,0 L0,3" fill="black" /></marker><marker id="id43" markerHeight="20" markerWidth="30" orient="auto" refX="0" refY="3"><path d=" M0,3 L8,6 L5,3 L8,0 L0,3" fill="black" /></marker><marker id="id44" markerHeight="20" markerWidth="30" orient="auto" refX="0" refY="3"><path d=" M0,3 L8,6 L5,3 L8,0 L0,3" fill="black" /></marker><marker id="id45" markerHeight="20" markerWidth="30" orient="auto" refX="0" refY="3"><path d=" M0,3 L8,6 L5,3 L8,0 L0,3" fill="black" /></marker><marker id="id46" markerHeight="15" markerWidth="15" orient="auto" refX="45" refY="7.5"><path d="M 0 0 L 8 7.5 L 0 15 z" fill="none" stroke="black" /></marker></defs><rect fill="none" height="700" stroke="blue" stroke-width="2.5" width="200" x="0" y="0" /><line stroke="blue" stroke-linecap="square" stroke-width="2.5" x1="185.0" x2="185.0" y1="0.0" y2="700.0" /><line stroke="blue" stroke-linecap="square" stroke-width="2.5" x1="15.0" x2="15.0" y1="0.0" y2="700.0" /><polyline fill="#E0E0E0" points="33.0,150.0 173.0,150.0 173.0,166.0 107.45,166.0 107.45,534.0 173.0,534.0 173.0,550.0 33.0,550.0 33.0,534.0 98.55,534.0 98.55,166.0 33.0,166.0 33.0,150.0" stroke="blue" stroke-width="2.5" /><rect fill="url(#diagonalHatch)" height="240.0" stroke="white" stroke-width="1.0" width="8" x="80.55" y="183.0" /><rect fill="none" height="240.0" stroke="blue" stroke-width="2.5" width="10" x="88.55" y="183.0" /><circle cx="98.55" cy="213.0" fill="none" r="1.5" stroke="red" stroke-width="1.5" /><line stroke="red" stroke-dasharray="10 5 1 5" stroke-linecap="square" stroke-width="1.5" x1="118.55" x2="68.55" y1="213.0" y2="213.0" /><rect fill="black" height="18.9" stroke="black" stroke-width="2.5" width="12" x="88.55" y="207.0" /><line stroke="black" stroke-linecap="square" stroke-width="1.5" x1="88.55" x2="107.45" y1="207.0" y2="207.0" /><line stroke="black" stroke-linecap="square" stroke-width="1.5" x1="88.55" x2="107.45" y1="219.0" y2="219.0" /><circle cx="98.55" cy="273.0" fill="none" r="1.5" stroke="red" stroke-width="1.5" /><line stroke="red" stroke-dasharray="10 5 1 5" stroke-linecap="square" stroke-width="1.5" x1="118.55" x2="68.55" y1="273.0" y2="273.0" /><rect fill="black" height="18.9" stroke="black" stroke-width="2.5" width="12" x="88.55" y="267.0" /><line stroke="black" stroke-linecap="square" stroke-width="1.5" x1="88.55" x2="107.45" y1="267.0" y2="267.0" /><line stroke="black" stroke-linecap="square" stroke-width="1.5" x1="88.55" x2="107.45" y1="279.0" y2="279.0" /><circle cx="98.55" cy="333.0" fill="none" r="1.5" stroke="red" stroke-width="1.5" /><line stroke="red" stroke-dasharray="10 5 1 5" stroke-linecap="square" stroke-width="1.5" x1="118.55" x2="68.55" y1="333.0" y2="333.0" /><rect fill="black" height="18.9" stroke="black" stroke-width="2.5" width="12" x="88.55" y="327.0" /><line stroke="black" stroke-linecap="square" stroke-width="1.5" x1="88.55" x2="107.45" y1="327.0" y2="327.0" /><line stroke="black" stroke-linecap="square" stroke-width="1.5" x1="88.55" x2="107.45" y1="339.0" y2="339.0" /><circle cx="98.55" cy="393.0" fill="none" r="1.5" stroke="red" stroke-width="1.5" /><line stroke="red" stroke-dasharray="10 5 1 5" stroke-linecap="square" stroke-width="1.5" x1="118.55" x2="68.55" y1="393.0" y2="393.0" /><rect fill="black" height="18.9" stroke="black" stroke-width="2.5" width="12" x="88.55" y="387.0" /><line stroke="black" stroke-linecap="square" stroke-width="1.5" x1="88.55" x2="107.45" y1="387.0" y2="387.0" /><line stroke="black" stroke-linecap="square" stroke-width="1.5" x1="88.55" x2="107.45" y1="399.0" y2="399.0" /><line marker-end="url(#id35)" marker-start="url(#id36)" stroke="black" stroke-linecap="square" stroke-width="2.5" x1="228.55" x2="228.55" y1="213.0" y2="393.0" /><text fill="black" font-family="sans-serif" font-size="28" x="243.55" y="303.0">3 @60 mm c/c</text><line stroke="black" stroke-linecap="square" stroke-opacity="1.0" stroke-width="2.5" x1="238.55" x2="218.55" y1="213.0" y2="213.0" /><line stroke="black" stroke-linecap="square" stroke-opacity="1.0" stroke-width="2.5" x1="238.55" x2="218.55" y1="393.0" y2="393.0" /><line marker-end="url(#id37)" marker-start="url(#id38)" stroke="black" stroke-linecap="square" stroke-width="2.5" x1="228.55" x2="228.55" y1="183.0" y2="213.0" /><text fill="black" font-family="sans-serif" font-size="28" x="243.55" y="198.0">30 mm </text><line stroke="black" stroke-linecap="square" stroke-opacity="1.0" stroke-width="2.5" x1="238.55" x2="218.55" y1="183.0" y2="183.0" /><line stroke="black" stroke-linecap="square" stroke-opacity="1.0" stroke-width="2.5" x1="238.55" x2="218.55" y1="213.0" y2="213.0" /><line marker-end="url(#id39)" marker-start="url(#id40)" stroke="black" stroke-linecap="square" stroke-width="2.5" x1="228.55" x2="228.55" y1="393.0" y2="423.0" /><text fill="black" font-family="sans-serif" font-size="28" x="243.55" y="408.0">30 mm</text><line stroke="black" stroke-linecap="square" stroke-opacity="1.0" stroke-width="2.5" x1="238.55" x2="218.55" y1="393.0" y2="393.0" /><line stroke="black" stroke-linecap="square" stroke-opacity="1.0" stroke-width="2.5" x1="238.55" x2="218.55" y1="423.0" y2="423.0" /><line stroke="#D8D8D8" stroke-linecap="square" stroke-opacity="0.7" stroke-width="2.5" x1="98.55" x2="213.55" y1="183.0" y2="183.0" /><line stroke="#D8D8D8" stroke-linecap="square" stroke-opacity="0.7" stroke-width="2.5" x1="98.55" x2="213.55" y1="213.0" y2="213.0" /><line stroke="#D8D8D8" stroke-linecap="square" stroke-opacity="0.7" stroke-width="2.5" x1="98.55" x2="213.55" y1="423.0" y2="423.0" /><line stroke="#D8D8D8" stroke-linecap="square" stroke-opacity="0.7" stroke-width="2.5" x1="98.55" x2="213.55" y1="393.0" y2="393.0" /><polyline fill="none" marker-start="url(#id41)" points="85.0,700.0 171.602540378,750.0 411.602540378,750.0" stroke="black" stroke-width="2.5" /><text fill="black" font-family="sans-serif" font-size="28" x="195.602540378" y="732.0">Column ISSC 200</text><text fill="black" font-family="sans-serif" font-size="28" x="195.602540378" y="783.0" /><polyline fill="none" marker-start="url(#id42)" points="103.0,150.0 278.0,-25.0 486.0,-25.0" stroke="black" stroke-width="2.5" /><text fill="black" font-family="sans-serif" font-size="28" x="298.8" y="-43.0">Beam ISMB 400</text><text fill="black" font-family="sans-serif" font-size="28" x="298.8" y="8.0"> </text><polyline fill="none" marker-start="url(#id43)" points="93.55,423.0 268.55,598.0 492.55,598.0" stroke="black" stroke-width="2.5" /><text fill="black" font-family="sans-serif" font-size="28" x="290.95" y="580.0">PLT. 240x80x10</text><text fill="black" font-family="sans-serif" font-size="28" x="290.95" y="631.0" /><polyline fill="none" marker-start="url(#id44)" points="98.55,213.0 266.55,45.0 666.55,45.0" stroke="black" stroke-width="2.5" /><text fill="black" font-family="sans-serif" font-size="28" x="306.55" y="27.0">4 nos 12Ø holes</text><text fill="black" font-family="sans-serif" font-size="28" x="306.55" y="78.0">for M20 bolts (grade 8.8)</text><polyline fill="none" marker-end="url(#id46)" marker-start="url(#id45)" points="84.55,363.0 224.55,503.0 480.55,503.0" stroke="black" stroke-width="2.5" /><text fill="black" font-family="sans-serif" font-size="28" x="250.15" y="485.0">          z 8 mm</text><text fill="black" font-family="sans-serif" font-size="28" x="250.15" y="536.0" /><text fill="black" font-family="sans-serif" font-size="30" x="135.0" y="827.272727273">Side view (Sec B-B)</text></svg>