<?xml version="1.0" encoding="utf-8" ?>
<svg baseProfile="full" height="100%" version="1.1" viewBox="-50 -300 850 950.0" width="100%" xmlns="http://www.w3.org/2000/svg" xmlns:ev="http://www.w3.org/2001/xml-events" xmlns:xlink="http://www.w3.org/1999/xlink"><defs><marker id="id21" markerHeight="10" markerWidth="10" orient="auto" refX="0" refY="5"><path d="M 0 0 L 10 5 L 0 10 z" fill="blue" stroke="black" /></marker><marker id="id22" markerHeight="10" markerWidth="10" orient="auto" refX="0" refY="5"><path d="M 0 0 L 10 5 L 0 10 z" fill="blue" stroke="black" /></marker><marker id="id23" markerHeight="10" markerWidth="10" orient="auto" refX="0" refY="5"><path d="M 0 0 L 10 5 L 0 10 z" fill="blue" stroke="black" /></marker><marker id="id24" markerHeight="10" markerWidth="10" orient="auto" refX="0" refY="5"><path d="M 0 0 L 10 5 L 0 10 z" fill="blue" stroke="black" /></marker><marker id="id25" markerHeight="30" markerWidth="30" orient="auto" refX="8" refY="3"><path d=" M0,0 L3,3 L0,6 L8,3 L0,0" fill="black" /></marker><marker id="id26" markerHeight="20" markerWidth="30" orient="auto" refX="0" refY="3"><path d=" M0,3 L8,6 L5,3 L8,0 L0,3" fill="black" /></marker><marker id="id27" markerHeight="20" markerWidth="30" orient="auto" refX="0" refY="3"><path d=" M0,3 L8,6 L5,3 L8,0 L0,3" fill="black" /></marker><marker id="id28" markerHeight="20" markerWidth="30" orient="auto" refX="0" refY="3"><path d=" M0,3 L8,6 L5,3 L8,0 L0,3" fill="black" /></marker><marker id="id29" markerHeight="20" markerWidth="30" orient="auto" refX="0" refY="3"><path d=" M0,3 L8,6 L5,3 L8,0 L0,3" fill="black" /></marker><marker id="id30" markerHeight="20" markerWidth="30" orient="auto" refX="0" refY="3"><path d=" M0,3 L8,6 L5,3 L8,0 L0,3" fill="black" /></marker><marker id="id31" markerHeight="20" markerWidth="30" orient="auto" refX="0" refY="3"><path d=" M0,3 L8,6 L5,3 L8,0 L0,3" fill="black" /></marker><marker id="id32" markerHeight="15" markerWidth="15" orient="auto" refX="45" refY="7.5"><path d="M 0 0 L 8 7.5 L 0 15 z" fill="none" stroke="black" /></marker><marker id="id33" markerHeight="30" markerWidth="30" orient="auto" refX="8" refY="3"><path d=" M0,0 L3,3 L0,6 L8,3 L0,0" fill="black" /></marker><marker id="id34" markerHeight="20" markerWidth="30" orient="auto" refX="0" refY="3"><path d=" M0,3 L8,6 L5,3 L8,0 L0,3" fill="black" /></marker></defs><polyline fill="#E0E0E0" points="0,0 200,0 200.0,15.0 104.5,15.0 104.5,185.0 200.0,185.0 200,200 0,200 0.0,185.0 95.5,185.0 95.5,15.0 0.0,15.0 0,0" stroke="blue" stroke-width="2.5" /><rect fill="none" height="140" stroke="blue" stroke-width="2.5" width="350" x="124.5" y="25.0" /><line stroke="red" stroke-dasharray="5 5" stroke-linecap="square" stroke-width="2.5" x1="124.5" x2="474.5" y1="90.55" y2="90.55" /><line stroke="red" stroke-dasharray="5 5" stroke-linecap="square" stroke-width="2.5" x1="124.5" x2="474.5" y1="99.45" y2="99.45" /><line stroke="blue" stroke-linecap="square" stroke-width="2.5" x1="104.5" x2="124.5" y1="99.45" y2="99.45" /><line stroke="blue" stroke-linecap="square" stroke-width="2.5" x1="104.5" x2="124.5" y1="109.45" y2="109.45" /><polyline fill="none" points="124.5,99.45 184.5,99.45 184.5,109.45 124.5,109.45" stroke="red" stroke-dasharray="5 5" stroke-width="2.5" /><polyline fill="black" points="107.0,96.95 115.0,96.95 107.0,88.95 107.0,96.95" stroke="black" stroke-width="2.5" /><polyline fill="black" points="107.0,111.95 107.0,119.95 115.0,111.95 107.0,111.95" stroke="black" stroke-width="2.5" /><rect fill="black" height="18.9" stroke="black" stroke-width="2.5" width="12" x="148.5" y="90.55" /><line stroke="black" stroke-linecap="square" stroke-width="2.5" x1="154.5" x2="154.5" y1="80.55" y2="119.45" /><line marker-end="url(#id21)" stroke="black" stroke-linecap="square" stroke-width="2.5" x1="700" x2="650" y1="-20" y2="-20" /><text fill="black" font-family="sans-serif" font-size="52" x="580" y="0">B</text><line marker-end="url(#id22)" stroke="black" stroke-linecap="square" stroke-width="2.5" x1="700" x2="650" y1="220" y2="220" /><text fill="black" font-family="sans-serif" font-size="52" x="580" y="240">B</text><line stroke="#666666" stroke-linecap="square" stroke-width="1.0" x1="700" x2="700" y1="-20" y2="220" /><line marker-end="url(#id23)" stroke="black" stroke-linecap="square" stroke-width="2.5" x1="0.0" x2="0.0" y1="178.0" y2="128.0" /><text fill="black" font-family="sans-serif" font-size="52" x="-15.0" y="78.0">C</text><line marker-end="url(#id24)" stroke="black" stroke-linecap="square" stroke-width="2.5" x1="530.0" x2="530.0" y1="178.0" y2="128.0" /><text fill="black" font-family="sans-serif" font-size="52" x="505.0" y="78.0">C</text><line stroke="#666666" stroke-linecap="square" stroke-width="1.0" x1="0.0" x2="530.0" y1="178.0" y2="178.0" /><line stroke="#D8D8D8" stroke-linecap="square" stroke-opacity="0.7" stroke-width="2.5" x1="184.5" x2="184.5" y1="90.55" y2="-162.45" /><line stroke="#D8D8D8" stroke-linecap="square" stroke-opacity="0.7" stroke-width="2.5" x1="154.5" x2="154.5" y1="90.55" y2="-162.45" /><line marker-end="url(#id25)" marker-start="url(#id26)" stroke="black" stroke-linecap="square" stroke-width="2.5" x1="154.5" x2="184.5" y1="-162.45" y2="-162.45" /><text fill="black" font-family="sans-serif" font-size="28" x="169.5" y="-182.45">30 mm</text><line stroke="black" stroke-linecap="square" stroke-opacity="1.0" stroke-width="2.5" x1="154.5" x2="154.5" y1="-172.45" y2="-152.45" /><line stroke="black" stroke-linecap="square" stroke-opacity="1.0" stroke-width="2.5" x1="184.5" x2="184.5" y1="-172.45" y2="-152.45" /><line stroke="#D8D8D8" stroke-linecap="square" stroke-opacity="0.7" stroke-width="2.5" x1="154.5" x2="154.5" y1="90.55" y2="-62.45" /><polyline fill="none" marker-start="url(#id27)" points="299.5,25.0 357.235026919,-75.0 565.235026919,-75.0" stroke="black" stroke-width="2.5" /><text fill="black" font-family="sans-serif" font-size="28" x="378.035026919" y="-93.0">Beam ISMB 400</text><text fill="black" font-family="sans-serif" font-size="28" x="378.035026919" y="-42.0" /><polyline fill="none" marker-start="url(#id28)" points="0,200 98.2719632519,470.0 338.271963252,470.0" stroke="black" stroke-width="2.5" /><text fill="black" font-family="sans-serif" font-size="28" x="122.271963252" y="452.0">Column ISSC 200</text><text fill="black" font-family="sans-serif" font-size="28" x="122.271963252" y="503.0"> </text><polyline fill="none" marker-start="url(#id29)" points="184.5,109.45 257.294046853,309.45 481.294046853,309.45" stroke="black" stroke-width="2.5" /><text fill="black" font-family="sans-serif" font-size="28" x="279.694046853" y="291.45">PLT. 240x80x10</text><text fill="black" font-family="sans-serif" font-size="28" x="279.694046853" y="342.45" /><polyline fill="none" marker-start="url(#id30)" points="154.5,90.55 327.705080757,-209.45 727.705080757,-209.45" stroke="black" stroke-width="2.5" /><text fill="black" font-family="sans-serif" font-size="28" x="367.705080757" y="-227.45">4 nos 12Ø holes</text><text fill="black" font-family="sans-serif" font-size="28" x="367.705080757" y="-176.45">for M20 bolts (grade 8.8)</text><polyline fill="none" marker-end="url(#id32)" marker-start="url(#id31)" points="104.5,117.45 195.492558567,367.45 451.492558567,367.45" stroke="black" stroke-width="2.5" /><text fill="black" font-family="sans-serif" font-size="28" x="221.092558567" y="349.45">          z 8 mm</text><text fill="black" font-family="sans-serif" font-size="28" x="221.092558567" y="400.45" /><line stroke="black" stroke-linecap="square" stroke-width="2.5" x1="104.5" x2="104.5" y1="-225.0" y2="-245.0" /><line stroke="black" stroke-linecap="square" stroke-width="2.5" x1="124.5" x2="124.5" y1="-225.0" y2="-245.0" /><line marker-end="url(#id33)" stroke="black" stroke-linecap="square" stroke-width="2.5" x1="54.5" x2="104.5" y1="-235.0" y2="-235.0" /><line marker-end="url(#id33)" stroke="black" stroke-linecap="butt" stroke-width="2.5" x1="174.5" x2="124.5" y1="-235.0" y2="-235.0" /><text fill="black" font-family="sans-serif" font-size="28" x="184.5" y="-235.0">20 mm</text><line stroke="#D8D8D8" stroke-linecap="square" stroke-opacity="0.7" stroke-width="2.5" x1="104.5" x2="104.5" y1="15.0" y2="-270.0" /><line stroke="#D8D8D8" stroke-linecap="square" stroke-opacity="0.7" stroke-width="2.5" x1="124.5" x2="124.5" y1="25.0" y2="-275.0" /><text fill="black" font-family="sans-serif" font-size="32" x="230" y="600">Top view (Sec A-A)</text></svg>